/* XPM */
static char *_6690e60023646cad7dd8802601c70d965hbYWk4m7pUq8hs[] = {
/* columns rows colors chars-per-pixel */
"64 64 148 2 ",
"   c #245977",
".  c #265C7B",
"X  c #295E7D",
"o  c #2D617D",
"O  c #32637D",
"+  c #2F6581",
"@  c #336582",
"#  c #366983",
"$  c #3B6A85",
"%  c #3C6C89",
"&  c #416D87",
"*  c #426E89",
"=  c #427087",
"-  c #45738B",
";  c #4A758D",
":  c #4B788F",
">  c #517C8F",
",  c #4C7790",
"<  c #4D7A91",
"1  c #537D93",
"2  c #587D97",
"3  c #597E98",
"4  c #578295",
"5  c #5C8497",
"6  c #5D8499",
"7  c #5F889E",
"8  c #61869B",
"9  c #648A9E",
"0  c #688D9F",
"q  c #668BA2",
"w  c #6A8EA2",
"e  c #6D92A5",
"r  c #7293A6",
"t  c #7495A9",
"y  c #7699AA",
"u  c #7C9CAD",
"i  c #7D9EB0",
"p  c #7EA0AC",
"a  c #829FAF",
"s  c #84A1AF",
"d  c #84A2B2",
"f  c #8AA5B3",
"g  c #8FABB7",
"h  c #8FABB9",
"j  c #93ADBA",
"k  c #98AEBC",
"l  c #96B1BB",
"z  c #9AB2BE",
"x  c #9CB5C2",
"c  c #A1B6C3",
"v  c #A4BAC4",
"b  c #A9BDC6",
"n  c #A7BDC8",
"m  c #AABDCA",
"M  c #ACC0C7",
"N  c #AEC2CC",
"B  c #B2C4CD",
"V  c #B5C8CF",
"C  c #B5C6D0",
"Z  c #B7C8D1",
"A  c #BCCDD4",
"S  c #C2CFD5",
"D  c #C3D1D6",
"F  c #C4D3DA",
"G  c #C9D6DC",
"H  c #CDD9DD",
"J  c #D1DCDE",
"K  c #CFDDE0",
"L  c #D3DDE2",
"P  c #D8DFE5",
"I  c #D6E1E4",
"U  c #DAE3E6",
"Y  c #DDE5E9",
"T  c #DEE8EA",
"R  c #E1E6E9",
"E  c #E3EAEC",
"W  c #E8EEEE",
"Q  c #E6EEF0",
"!  c #EAEFF2",
"~  c #EBF0F3",
"^  c #EDF1F0",
"/  c #EDF1F2",
"(  c #ECF0F3",
")  c #ECF2F2",
"_  c #EDF3F3",
"`  c #EEF2F3",
"'  c #ECF1F4",
"]  c #EFF3F4",
"[  c #EEF2F5",
"{  c #EDF2F3",
"}  c #F0F4F5",
"|  c #F3F4F6",
" . c #F2F6F7",
".. c #F3F5F5",
"X. c #F6F8F7",
"o. c #F4F8F7",
"O. c #F1F5F8",
"+. c #F3F7F8",
"@. c #F5F6F8",
"#. c #F6F7F9",
"$. c #F9F7F8",
"%. c #F0F9F8",
"&. c #F2F8F8",
"*. c #F5F9F8",
"=. c #F4F8F9",
"-. c #F5F9FA",
";. c #F7F8FA",
":. c #F7FBFA",
">. c #F6FAFB",
",. c #F7FBFC",
"<. c #F6F9F9",
"1. c #F9F9F9",
"2. c #F8FAF9",
"3. c #F9FBFA",
"4. c gray98",
"5. c #FBFBFB",
"6. c #F8FCFB",
"7. c #FBFDFA",
"8. c #FAFCFB",
"9. c #FDFEF9",
"0. c #FCFCFA",
"q. c #FDFDFB",
"w. c #FEFDFB",
"e. c #FFFFFB",
"r. c #F9FAFC",
"t. c #FDFBFC",
"y. c #FAFEFD",
"u. c #FBFFFE",
"i. c gray99",
"p. c #FDFDFD",
"a. c #FEFCFD",
"s. c #FDFFFC",
"d. c #FCFEFD",
"f. c #FEFEFC",
"g. c #FEFFFD",
"h. c #FFFFFD",
"j. c #FCFCFE",
"k. c #FDFDFF",
"l. c #FFFDFE",
"z. c #FDFFFE",
"x. c #FDFEFF",
"c. c #FCFFFF",
"v. c #FEFEFE",
"b. c #FEFEFF",
"n. c #FFFEFF",
"m. c #FEFFFF",
"M. c white",
"N. c #FFFFFF",
/* pixels */
"M.M.M.M.M.M.M.M.M.M.M.M.M.M.M.M.M.M.M.M.M.M.M.M.M.M.M.M.M.M.M.M.M.M.M.M.M.M.M.M.M.M.M.M.M.M.M.M.M.M.M.M.M.M.M.M.M.M.M.M.M.M.M.M.",
"M.M.M.M.M.M.M.M.M.M.M.M.M.M.M.M.M.M.M.M.M.M.M.M.M.M.M.M.M.M.M.M.M.M.M.M.M.M.M.M.M.M.M.M.M.M.M.M.M.M.M.M.M.M.M.M.M.M.M.M.M.M.M.M.",
"M.M.M.M.M.M.M.M.M.M.M.M.M.M.M.M.M.M.M.M.M.M.M.M.M.M.M.M.M.M.M.M.M.M.M.M.M.M.M.M.M.M.M.M.M.M.M.M.M.M.M.M.M.M.M.M.M.M.M.M.M.M.M.M.",
"M.M.M.M.M.M.M.M.M.M.M.M.M.M.M.M.M.M.M.M.M.M.M.M.M.M.M.M.M.M.M.M.M.M.M.M.M.M.M.M.M.M.M.M.M.M.M.M.M.M.M.M.M.M.M.M.M.M.M.M.M.M.M.M.",
"M.M.M.M.M.M.M.M.M.M.M.M.M.M.M.M.M.M.M.M.M.M.M.M.M.M.M.M.M.M.M.M.M.M.M.M.M.M.M.M.M.M.M.M.M.M.M.M.M.M.M.M.M.M.M.M.M.M.M.M.M.M.M.M.",
"M.M.M.M.M.M.M.M.M.M.M.M.M.M.M.M.M.M.M.M.M.M.M.M.M.M.M.M.M.M.M.M.M.M.M.M.M.M.M.M.M.M.M.M.M.M.M.M.M.M.M.M.M.M.M.M.M.M.M.M.M.M.M.M.",
"M.M.M.M.M.M.M.M.M.M.M.M.M.M.M.M.M.M.M.M.M.M.M.M.M.M.M.M.M.M.M.M.M.M.M.M.M.M.M.M.M.M.M.M.M.M.M.M.M.M.M.M.M.M.M.M.M.M.M.M.M.M.M.M.",
"M.M.M.M.M.M.M.M.M.M.M.M.M.M.M.M.M.M.M.M.M.M.M.M.M.M.M.M.M.M.M.M.-.-.8.M.M.M.M.M.M.M.M.M.M.M.M.M.M.M.M.M.M.M.M.M.M.M.M.M.M.M.M.M.",
"M.M.M.M.M.M.M.M.M.M.M.M.M.M.M.M.M.M.M.M.M.M.M.M.M.M.O.F z t 1 # O O O & 5 d m U M.M.M.M.M.M.M.M.M.M.M.M.M.M.M.M.M.M.M.M.M.M.M.M.",
"M.M.M.M.M.M.M.M.M.M.M.M.M.M.M.M.M.M.M.M.M.M.M.1.D u ; X o : q u d f d y 6 $ . @ 5 z R 0.M.M.M.M.M.M.M.M.M.M.M.M.M.M.M.M.M.M.M.M.",
"M.M.M.M.M.M.M.M.M.M.M.M.M.M.M.M.M.M.M.M.M.1.B 6 X & y B Y } 8.0.0.0.M.8.-.! H z 8 X $ u U 0.M.M.M.M.M.M.M.M.M.M.M.M.M.M.M.M.M.M.",
"M.M.M.M.M.M.M.M.M.M.M.M.M.M.M.M.M.M.M.M.L 9 X 1 v E M.M.M.M.M.M.M.M.M.M.M.M.M.M.r.H d @ $ j } M.M.M.M.M.M.M.M.M.M.M.M.M.M.M.M.M.",
"M.M.M.M.M.M.M.M.M.M.M.M.M.M.M.M.M.M.1.N # @ x ) M.M.M.M.M.M.M.M.M.M.M.M.M.M.M.M.M.M.0.I 9 X 1 R M.M.M.M.M.M.M.M.M.M.M.M.M.M.M.M.",
"M.M.M.M.M.M.M.M.M.M.M.M.M.M.M.M.M.X.y X 6 T 8.M.M.M.M.M.M.M.M.M.M.M.M.M.M.M.M.M.M.M.M.M.1.B # $ A 0.M.M.M.M.M.M.M.M.M.M.M.M.M.M.",
"M.M.M.M.M.M.M.M.M.M.M.M.M.M.M.M.O.8 X f 1.M.M.M.M.M.M.M.M.M.M.M.M.M.M.M.M.M.M.M.M.M.M.j.M.j.T 1 + B 0.M.M.M.M.M.M.M.M.M.M.M.M.M.",
"M.M.M.M.M.M.M.M.M.M.M.M.M.M.M.1.9 X b 8.M.M.M.M.M.M.M.M.M.M.M.M.M.M.M.M.M.M.M.M.M.M.M.M.M.M.M.) 6 o C 0.M.M.M.M.M.M.M.M.M.M.M.M.",
"M.M.M.M.M.M.M.M.M.M.M.M.M.M.8.f X x M.M.M.M.M.M.M.M.M.M.M.M.M.M.M.M.M.M.M.M.M.M.M.M.M.M.M.M.M.M.) 1 # G M.M.M.M.M.M.M.M.M.M.M.M.",
"M.M.M.M.M.M.M.M.M.M.M.M.M.0.b . d 1.M.0.M.M.M.M.M.M.M.M.M.M.M.M.M.M.M.M.M.M.M.M.M.M.M.M.M.M.M.M.M.E & ; E M.M.M.M.M.M.M.M.M.M.M.",
"M.M.M.M.M.M.M.M.M.M.M.M.M.T # 1 1.M.M.M.M.M.M.M.M.M.M.M.M.M.M.M.M.M.M.M.M.M.M.M.M.M.M.M.M.M.M.M.M.M.G @ y 1.M.M.M.M.M.M.M.M.M.M.",
"M.M.M.M.M.M.M.M.M.M.M.M.M.9 @ R M.M.M.M.M.E ) M.M.M.M.M.M.M.M.M.M.M.M.M.M.M.M.M.M.M.M.M.M.M.M.M.M.M.M.j X A M.M.M.M.M.M.M.M.M.M.",
"M.M.M.M.M.M.M.M.M.M.M.M.G X z M.M.M.M.M.[ - ; k R t.M.M.M.M.M.M.M.M.M.M.M.M.M.M.M.M.M.M.M.M.M.M.M.M.M.[ , 7 } M.M.M.M.M.M.M.M.M.",
"M.M.M.M.M.M.M.M.M.M.M.t.8 % ) M.M.M.M.M.$.1 X X $ f L 8.M.M.M.M.M.M.M.M.M.M.M.M.M.M.M.M.M.M.M.M.M.M.M.M.b X A M.M.M.M.M.M.M.M.M.",
"M.M.M.M.M.M.M.M.M.M.M.U X x 0.M.M.M.M.M.M.F . e y $ o t F -.0.M.M.M.M.M.M.M.M.M.M.M.M.M.M.M.M.M.M.M.M.M.[ , 5 1.M.M.M.M.M.M.M.M.",
"M.M.M.M.M.M.M.M.M.M.0.f X E M.M.M.M.M.M.M.1.q $ U Y g - X 9 B } M.M.M.M.M.M.M.M.M.M.M.M.M.M.M.M.M.M.M.M.M.j X U M.M.M.M.M.M.M.M.",
"M.M.M.M.M.M.M.M.M.M.M., 9 M.M.M.M.M.M.M.M.M.L @ d M.0.~ x $ X 1 b -.0.M.M.M.M.M.M.M.M.M.M.M.M.M.M.M.M.M.M.J @ v M.M.M.M.M.M.M.M.",
"M.M.M.M.M.M.M.M.M.M.Q X v M.M.M.M.M.M.M.M.M.M.d O L 0.M.0.@.B <   = z ) 0.M.M.M.M.M.M.M.M.M.M.M.M.M.M.M.M.;.> 6 0.M.M.M.M.M.M.M.",
"M.M.M.M.M.M.M.M.M.M.N   L M.M.M.M.M.M.M.M.M.M.E % r 1.M.M.M.0.1.D 9 . $ a E M.M.M.M.M.M.M.M.M.M.M.M.M.M.M.0.k f -.M.M.M.M.M.M.M.",
"M.M.M.M.M.M.M.M.M.M.d o } M.M.M.M.M.M.M.M.M.M.M.l X F 0.M.M.M.M.M.0.J y o @ w K 0.M.M.M.M.M.M.M.M.M.M.M.M.r.&.-.&.&.M.M.M.M.M.M.",
"M.M.M.M.M.M.M.M.M.M.e - M.M.M.M.M.M.M.M.M.M.M.M.) ; 1 -.M.M.M.M.M.M.M.M.R i @ X 8 H M.M.0.M.M.M.M.M.M.M.M.b X o O ; r.M.M.M.M.M.",
"M.M.M.M.M.M.M.M.M.r.8 8 M.M.M.M.M.M.M.M.M.M.M.M.M.v X B M.M.M.M.M.M.M.M.M.M.[ k $   : Z r.M.M.M.M.M.M.M.M.n 2 ,.-.1.M.M.M.M.M.M.",
"M.M.M.M.M.M.M.M.M.&.1 e M.M.M.M.M.M.M.M.M.M.M.M.M.-.2 $ u p u p p p u p p u u u y $ X . $ U M.M.M.M.M.M.M.b , F F E M.M.M.M.M.M.",
"M.M.M.M.M.M.M.M.M.@.2 r M.M.M.M.M.M.M.M.M.M.M.M.M.1.t X X X X X X X X X X X X X X X X X   L M.M.M.M.M.M.M.v @ 6 6 F M.M.M.M.M.M.",
"M.M.M.M.M.M.M.M.M.1.6 9 M.M.M.M.M.M.M.M.M.M.M.M.M.H + X X X X X X X X X X X X X . X X 8 S M.M.M.M.M.M.M.M.n 3 M.M.M.M.M.M.M.M.M.",
"M.M.M.M.M.M.M.M.M.M.9 < M.M.M.M.M.M.M.M.M.M.M.0.1.0 X X X X X X X X X X X X X X @ r L M.M.M.M.M.M.M.M.M.M.b $ u u f r.M.M.M.M.M.",
"M.M.M.M.M.M.M.M.M.0.u O j.M.M.M.M.M.M.M.M.M.M.M.Z o X X X X X X X X X X X X $ f W M.M.M.M.M.M.M.M.M.M.M.M.P v v v M M.M.M.M.M.M.",
"M.M.M.M.M.M.M.M.M.0.x   T M.M.M.M.M.M.M.M.M.M.-.2 X X X X X X X X X X . - x } M.M.M.M.M.M.M.M.M.M.M.M.M.M.0.A B 1.M.M.M.M.M.M.M.",
"M.M.M.M.M.M.M.M.M.M.L   Z 0.M.M.M.M.M.M.M.M.0.b X X X X X X X X . X 4 n ! M.M.M.M.M.M.M.M.M.M.M.M.M.M.M.M.M.6 : 1.M.M.M.M.M.M.M.",
"M.M.M.M.M.M.M.M.M.M.r.$ i 0.M.M.M.M.M.M.M.M.~ , . . X X X X X X 9 A ..0.M.M.M.M.M.M.M.M.M.M.M.M.M.M.M.M.M.E $ f M.M.M.M.M.M.M.M.",
"M.M.M.M.M.M.M.M.M.M.j.e # } M.M.M.M.M.M.M.0.j X X X X . . O y G -.M.M.M.M.M.M.M.M.M.M.M.M.M.M.M.M.M.M.M.M.n X G M.M.M.M.M.M.M.M.",
"M.M.M.M.M.M.M.M.M.M.M.A . V M.M.M.M.M.M.M.T @ X X X X $ f U 8.M.M.M.M.M.M.M.M.M.M.M.M.M.M.M.M.M.M.M.M.M.j.9 = } M.M.M.M.M.M.M.M.",
"M.M.M.M.M.M.M.M.M.M.M.1.- 6 j.M.M.M.M.M.0.u . X . $ j E M.M.M.M.M.M.M.M.M.M.M.M.M.M.M.M.M.M.M.M.M.M.M.M.G O k M.M.M.M.M.M.M.M.M.",
"M.M.M.M.M.M.M.M.M.M.M.M.c . D 0.M.M.M.M.E X X ; m ~ M.M.M.M.M.M.M.M.M.M.M.M.M.M.M.M.M.M.M.M.M.M.M.M.M.j.w * E M.M.M.M.M.M.M.M.M.",
"M.M.M.M.M.M.M.M.M.M.M.M.-.; : @.M.M.M.M.M.B D ..0.M.M.M.M.M.M.M.M.M.M.M.M.M.M.M.M.M.M.M.M.M.M.M.M.M.M.A o x M.M.M.M.M.M.M.M.M.M.",
"M.M.M.M.M.M.M.M.M.M.M.M.0.A X s M.M.M.M.M.M.M.M.M.M.M.M.M.M.M.M.M.M.M.M.M.M.M.M.M.M.M.M.M.M.M.M.M.M.! ; 2 ] M.M.M.M.M.M.M.M.M.M.",
"M.M.M.M.M.M.M.M.M.M.M.M.M.M.r X D 0.M.M.M.M.M.M.M.M.M.M.M.M.M.M.M.M.M.M.M.M.M.M.M.M.M.M.M.M.M.M.M.-.r o D M.M.M.M.M.M.M.M.M.M.M.",
"M.M.M.M.M.M.M.M.M.M.M.M.M.M.] : O U 0.M.M.M.M.M.M.M.M.M.M.M.M.M.M.M.M.M.M.M.M.M.M.M.M.M.M.M.M.M.0.h X z 8.M.M.M.M.M.M.M.M.M.M.M.",
"M.M.M.M.M.M.M.M.M.M.M.M.M.M.M.E $ $ T M.M.M.M.M.M.M.M.M.M.M.M.M.M.M.M.M.M.M.M.M.M.M.M.M.M.M.M.M.z X u ;.M.M.M.M.M.M.M.M.M.M.M.M.",
"M.M.M.M.M.M.M.M.M.M.M.M.M.M.M.M.I $ $ G M.M.M.M.M.M.M.M.M.M.M.M.M.M.M.M.M.M.M.M.M.M.M.M.M.0...f X t r.M.M.M.M.M.M.M.M.M.M.M.M.M.",
"M.M.M.M.M.M.M.M.M.M.M.M.M.M.M.M.M.L - # m 1.M.M.M.M.M.M.M.M.M.M.M.M.M.M.M.M.M.M.M.M.M.M.M.E t o y @.M.M.M.M.M.M.M.M.M.M.M.M.M.M.",
"M.M.M.M.M.M.M.M.M.M.M.M.M.M.M.M.M.M.R 9 X r U M.M.M.M.M.M.M.M.M.M.M.M.M.M.M.M.M.M.M.M.-.B = @ l r.M.M.M.M.M.M.M.M.M.M.M.M.M.M.M.",
"M.M.M.M.M.M.M.M.M.M.M.M.M.M.M.M.M.M.M.-.k # @ f U M.M.M.M.M.M.M.M.M.M.M.M.M.M.M.M.@.S 9 . 6 F M.M.M.M.M.M.M.M.M.M.M.M.M.M.M.M.M.",
"M.M.M.M.M.M.M.M.M.M.M.M.M.M.M.M.M.M.M.M.M.U e X # t F 1.M.M.M.M.M.M.M.M.M.M.M.~ c 2 X O c X.0.M.M.M.M.M.M.M.M.M.M.M.M.M.M.M.M.M.",
"M.M.M.M.M.M.M.M.M.M.M.M.M.M.M.M.M.M.M.M.M.M.0.L a @   $ q f b F I U L A z y 1 o   , v ) M.M.M.M.M.M.M.M.M.M.M.M.M.M.M.M.M.M.M.M.",
"M.M.M.M.M.M.M.M.M.M.M.M.M.M.M.M.M.M.M.M.M.M.M.0.M.] A f : X               @ 9 x L j.M.M.M.M.M.M.M.M.M.M.M.M.M.M.M.M.M.M.M.M.M.M.",
"M.M.M.M.M.M.M.M.M.M.M.M.M.M.M.M.M.M.M.M.M.M.M.M.M.M.M.M.M.} U H D A D J E -.j.M.M.M.M.M.M.M.M.M.M.M.M.M.M.M.M.M.M.M.M.M.M.M.M.M.",
"M.M.M.M.M.M.M.M.M.M.M.M.M.M.M.M.M.M.M.M.M.M.M.M.M.M.M.M.M.M.M.M.M.M.M.M.M.M.M.M.M.M.M.M.M.M.M.M.M.M.M.M.M.M.M.M.M.M.M.M.M.M.M.M.",
"M.M.M.M.M.M.M.M.M.M.M.M.M.M.M.M.M.M.M.M.M.M.M.M.M.M.M.M.M.M.M.M.M.M.M.M.M.M.M.M.M.M.M.M.M.M.M.M.M.M.M.M.M.M.M.M.M.M.M.M.M.M.M.M.",
"M.M.M.M.M.M.M.M.M.M.M.M.M.M.M.M.M.M.M.M.M.M.M.M.M.M.M.M.M.M.M.M.M.M.M.M.M.M.M.M.M.M.M.M.M.M.M.M.M.M.M.M.M.M.M.M.M.M.M.M.M.M.M.M.",
"M.M.M.M.M.M.M.M.M.M.M.M.M.M.M.M.M.M.M.M.M.M.M.M.M.M.M.M.M.M.M.M.M.M.M.M.M.M.M.M.M.M.M.M.M.M.M.M.M.M.M.M.M.M.M.M.M.M.M.M.M.M.M.M.",
"M.M.M.M.M.M.M.M.M.M.M.M.M.M.M.M.M.M.M.M.M.M.M.M.M.M.M.M.M.M.M.M.M.M.M.M.M.M.M.M.M.M.M.M.M.M.M.M.M.M.M.M.M.M.M.M.M.M.M.M.M.M.M.M.",
"M.M.M.M.M.M.M.M.M.M.M.M.M.M.M.M.M.M.M.M.M.M.M.M.M.M.M.M.M.M.M.M.M.M.M.M.M.M.M.M.M.M.M.M.M.M.M.M.M.M.M.M.M.M.M.M.M.M.M.M.M.M.M.M.",
"0.M.M.M.M.M.M.M.M.M.M.M.M.M.M.M.M.M.M.M.M.M.M.M.M.M.M.M.M.M.M.M.M.M.M.M.M.M.M.M.M.M.M.M.M.M.M.M.M.M.M.M.M.M.M.M.M.M.M.M.M.M.M.M.",
"f 1.M.M.M.M.M.M.M.M.M.M.M.M.M.M.M.M.M.M.M.M.M.M.M.M.M.M.M.M.M.M.M.M.M.M.M.M.M.M.M.M.M.M.M.M.M.M.M.M.M.M.M.M.M.M.M.M.M.M.M.M.M.M.",
"X a 1.M.M.M.M.M.M.M.M.M.M.M.M.M.M.M.M.M.M.M.M.M.M.M.M.M.M.M.M.M.M.M.M.M.M.M.M.M.M.M.M.M.M.M.M.M.M.M.M.M.M.M.M.M.M.M.M.M.M.M.M.M."
};
