/* XPM */
static char *result[] = {
/* columns rows colors chars-per-pixel */
"64 64 220 2 ",
"   c #1D1610",
".  c #1B150F",
"X  c #281B14",
"o  c #2C2219",
"O  c #362C1D",
"+  c #372C24",
"@  c #3D3429",
"#  c #3A3F3E",
"$  c #6D3E1E",
"%  c #703F1E",
"&  c #443522",
"*  c #483726",
"=  c #4A3928",
"-  c #503D2D",
";  c #5D3124",
":  c #473D35",
">  c #6B3423",
",  c #4D1F0F",
"<  c #73411F",
"1  c #59452E",
"2  c #55422B",
"3  c #5B4532",
"4  c #5C4833",
"5  c #5F4C38",
"6  c #504738",
"7  c #754422",
"8  c #7C4621",
"9  c #7D4924",
"0  c #764827",
"q  c #634D35",
"w  c #634E39",
"e  c #6A4A37",
"r  c #695137",
"t  c #6A533C",
"y  c #66523C",
"u  c #72573D",
"i  c #75593E",
"p  c #74452B",
"a  c #37535D",
"s  c #2F4C55",
"d  c #365560",
"f  c #356677",
"g  c #5C5347",
"h  c #515E5F",
"j  c #595959",
"k  c #485151",
"l  c #645241",
"z  c #6D5846",
"x  c #765A40",
"c  c #7A5C43",
"v  c #73594A",
"b  c #6A5D57",
"n  c #7E6044",
"m  c #79614C",
"M  c #7A6551",
"N  c #656D51",
"B  c #485B60",
"V  c #42616C",
"C  c #596466",
"Z  c #4B6975",
"A  c #556E78",
"S  c #686962",
"D  c #7D6E62",
"F  c #706D62",
"G  c #6C7777",
"H  c #6E7C7D",
"J  c #737D7A",
"K  c #5A605D",
"L  c #89361C",
"P  c #853C25",
"I  c #913C21",
"U  c #834A23",
"Y  c #8B4E24",
"T  c #84472A",
"R  c #8C5127",
"E  c #925226",
"W  c #995629",
"Q  c #9D5829",
"!  c #9A5627",
"~  c #9A4327",
"^  c #A84525",
"/  c #BD4825",
"(  c #B74B27",
")  c #A55C2A",
"_  c #A95E2A",
"`  c #C94C24",
"'  c #DA5326",
"]  c #C95228",
"[  c #E45626",
"{  c #846447",
"}  c #86654A",
"|  c #8B694D",
" . c #88674C",
".. c #916D4E",
"X. c #946F51",
"o. c #967153",
"O. c #9C7555",
"+. c #9B765A",
"@. c #857459",
"#. c #A47B5A",
"$. c #AA7F5C",
"%. c #A17857",
"&. c #AF7941",
"*. c #8C7868",
"=. c #867566",
"-. c #A67F62",
";. c #5C944B",
":. c #5D924F",
">. c #63984C",
",. c #639958",
"<. c #75A54F",
"1. c #73A44F",
"2. c #74A96E",
"3. c #BF8632",
"4. c #EDB01A",
"5. c #D89929",
"6. c #C38D34",
"7. c #CA9139",
"8. c #D9A728",
"9. c #E7AA23",
"0. c #E09F28",
"q. c #FAC814",
"w. c #8F8B5B",
"e. c #AB805D",
"r. c #A1985E",
"t. c #96B34F",
"y. c #83A952",
"u. c #87B051",
"i. c #8BB352",
"p. c #88B45F",
"a. c #94B953",
"s. c #9ABD54",
"d. c #94B856",
"f. c #95A757",
"g. c #AA8465",
"h. c #B78C6D",
"j. c #BF8D68",
"k. c #B68763",
"l. c #BE9275",
"z. c #A79769",
"x. c #8DB56C",
"c. c #9D8460",
"v. c #9EC055",
"b. c #9EC05A",
"n. c #A2C255",
"m. c #A2C35C",
"M. c #397187",
"N. c #3F7B92",
"B. c #497587",
"V. c #52869A",
"C. c #628A99",
"Z. c #74878A",
"A. c #458CA8",
"S. c #5097B1",
"D. c #6299AB",
"F. c #6892A4",
"G. c #76B4AE",
"H. c #6BACA5",
"J. c #2DBDEF",
"K. c #33BFEF",
"L. c #39BFEF",
"P. c #34BFF0",
"I. c #55A6C4",
"U. c #59B3D6",
"Y. c #7BBAD4",
"T. c #6DB1CE",
"R. c #5BBCE2",
"E. c #3AC1F0",
"W. c #36C0F0",
"Q. c #3CC0EF",
"!. c #43C1EF",
"~. c #4CC3EF",
"^. c #54C4EE",
"/. c #5EC6EE",
"(. c #48C6F1",
"). c #58CAF2",
"_. c #60C6EE",
"`. c #65C8EE",
"'. c #6BC9EF",
"]. c #72CBEF",
"[. c #78CDEF",
"{. c #68CDF2",
"}. c #7CCEF0",
"|. c #74CCF0",
" X c #79D3F4",
".X c #6AD1F4",
"XX c #999991",
"oX c #82B887",
"OX c #98A49C",
"+X c #82BA94",
"@X c #A3A496",
"#X c #89BCAE",
"$X c #81C1B6",
"%X c #8EB9C4",
"&X c #84C5C6",
"*X c #85C9DA",
"=X c #87CDE7",
"-X c #8AD1ED",
";X c #84D1F0",
":X c #8BD2F0",
">X c #88DAF6",
",X c #90D5F1",
"<X c #95DEF7",
"1X c #81CFF0",
"2X c #B9D7E4",
"3X c #A8DDF3",
"4X c #A3E2F8",
"5X c #B9E6F8",
"6X c #C5DCE6",
"7X c #C1E4F4",
"8X c #CCE9F6",
"9X c #C6EAF8",
"0X c #D5EDF8",
"qX c #D4F1FC",
"wX c #DBF2FB",
"eX c #DFE7EA",
"rX c #E7F5FC",
"tX c #F4FBFE",
"yX c #FEFFFF",
"uX c #E7EAEC",
/* pixels */
"J.J.J.J.J.J.J.J.J.J.J.J.J.J.J.J.J.J.J.J.J.J.J.J.J.J.J.J.J.J.J.J.J.J.J.J.J.J.J.J.J.J.J.J.J.J.J.J.J.J.J.J.J.J.J.J.J.J.J.J.J.J.J.J.",
"J.J.J.J.J.J.J.J.J.J.J.J.J.J.J.J.J.J.J.J.J.J.J.J.J.J.J.J.J.J.J.J.J.J.J.J.J.J.J.J.J.J.J.J.J.J.J.J.J.J.J.J.J.J.J.J.J.J.J.J.J.J.J.J.",
"J.J.J.J.J.J.J.J.J.J.J.J.J.J.J.J.J.J.J.J.J.J.J.J.J.J.J.J.J.J.J.J.J.J.J.J.J.J.J.J.J.J.J.J.J.J.J.J.J.J.J.J.J.J.J.J.J.J.J.J.J.J.J.J.",
"J.J.J.J.J.J.J.J.J.J.J.J.J.J.J.J.J.J.J.J.J.J.J.J.J.J.J.J.J.J.J.J.J.J.J.J.J.J.J.J.J.J.J.J.J.J.J.J.J.J.J.J.J.J.J.J.J.J.J.J.J.J.J.J.",
"J.J.J.J.J.J.J.J.J.J.J.J.J.J.J.J.J.J.J.J.J.J.J.J.J.J.J.J.J.J.J.J.J.J.J.J.J.J.J.J.J.J.J.J.J.W.(.(.E.J.J.J.J.J.J.J.J.J.J.J.J.J.J.J.",
"J.J.J.J.J.J.J.J.J.J.J.J.J.J.J.J.J.J.J.J.J.J.J.J.J.J.J.J.J.J.J.J.J.J.J.J.J.J.J.J.J.J.J.J.!.4XwXwX4X(.J.J.J.J.J.J.J.J.J.J.J.J.J.J.",
"J.J.J.J.J.J.J.J.J.J.J.J.J.J.J.J.J.J.J.J.J.J.J.J.J.J.J.J.J.J.J.J.J.J.J.J.J.J.J.J.J.J.J.W.5XyXyXyXyXqX(.).).).J.J.J.J.J.J.J.J.J.J.",
"J.J.J.J.J.J.J.J.J.J.J.J.J.J.J.J.J.J.J.J.J.J.J.J.J.J.J.J.J.J.J.J.J.J.J.J.J.J.J.J.J.J.J.4XyXyXyXyXyXyXtXyXyXtX.XJ.J.J.J.J.J.J.J.J.",
"J.J.J.J.J.J.J.J.J.J.J.J.J.J.J.J.J.J.J.J.J.J.J.J.J.J.J.J.J.J.J.J.J.J.J.J.J.J.J.(.>X4X4XwXyXyXyXyXyXyXyXyXyXyXtX{.J.J.J.J.J.J.J.J.",
"J.J.J.J.J.J.J.J.J.J.J.J.J.J.J.J.J.J.J.J.J.J.J.J.J.J.J.J.J.J.J.J.J.J.J.J.J.J.E.5XtXyXyXtXyXyXyXyXyXyXyXyXyXyXtX4XJ.J.J.J.J.J.J.J.",
"J.J.J.J.J.J.J.J.J.J.J.J.J.J.J.J.J.J.J.J.J.J.J.J.J.J.J.J.J.J.J.J.J.J.J.J.J.J. XyXyXyXyXyXyXyXyXyXyXyXyXyXyXyXyXrXE.W.J.J.J.J.J.J.",
"J.J.J.J.J.J.J.J.J.J.J.J.J.J.J.J.J.J.J.J.J.J.J.J.J.J.J.J.J.J.J.J.J.J.J.J.J.J.3XyXyXyXyXyXyXyXyXyXyXyXyXtXyXyXyXtXwX>XP.J.J.J.J.J.",
"J.J.J.J.J.J.J.J.J.J.J.J.J.J.J.J.J.J.J.J.J.J.J.J.J.J.J.J.J.J.J.J.J.J.J.J.J.W.9XtXyXyXyXyXyXyXyXyXyXyXtX0XtXyXyXrXyXtX).J.J.J.J.J.",
"J.J.J.J.J.J.J.J.J.J.J.J.J.J.J.J.!.).).E.J.J.J.J.J.J.J.J.J.J.J.J.J.J.J.J.J.E.5XqXyXtXtX0XtXyXyXyXyXyXwX7X9X8X8X8XyXyX9XJ.J.J.J.J.",
"J.J.J.J.J.J.J.J.J.J.J.J.J.J.K. XqXtXtX9X{.J.J.J.J.J.J.J.J.J.J.J.J.J.J.J.J.K.3X2X6X6X2X2X6XeXuXuXuX6X2X2X2X2X2X2XyXyXqXJ.J.J.J.J.",
"J.J.J.J.E.!.!.E.J.J.J.J.J.J..XrXyXyXyXyXwX>X<X<X XK.J.J.J.K.!.!.W.J.J.W.!.!.:XXX*.*.*.=.*.*.*.=.*.*.=.=.*.*.*.*.tXyXqX!.!.J.J.P.",
"J.J.J.J.~._._./.J.J.J.P.P.E.qXyXyXyXyXyXyXyXyXyXtX<XW.J.J.Q._._.!.J.J.R._._.].=.Q ! ) U _ _ _ < ) Q Q U ) _ ) 9 0XtX X_./.E.J.L.",
"L.L.P.W.~._._._.J.P.>XqXqXqXtXyXyXyXyXyXyXyXyXyXyXtX X~.~.^._._.~.!.E.^._._._.S Y R E < U E E < Y Y E U U E E 0 3X>XQ._./.E.J.L.",
"/././././._._._.J.>XtXyXyXyXyXyXyXyXyXyXyXyXyXyXyXyX5X_./._._._./._._._._._._.S U < Y Y Y U < < U % Y Y U Y < 0 /.^.^._./.L.J.L.",
"/./././._._._./.K.wXyXyXyXyXyXyXyXyXyXyXyXyXyXyXyXyXwX1X`._._._._._._._._._.`.N ! 8 _ _ _ ) Y < ) < _ _ _ _ U 0 /./._._./.L.J.L.",
"_._._._._._._._.^.rXyXyXyXyXyXyXyXyXyXyXyXyXtXyXyXyXtXtX5X'._._._._._._._._._.S R U E Y E E < $ E 8 ! Y R ! < p _._._._./.^.^./.",
"_._._._._._._./.1X8XyXyXyXyXtXyXyXyXyXyXyXrX8XrXtXtXrXyXyX:X_._._._._._._._._.S U U Y % U U U $ U U Y < U U U 7 _._._._._._././.",
"_._._._._._._._.:X7X0XtXtX0X8XtXyXyXyXyXtX8X5X7X7X7X0XyXyX8X_._._._._._._._._.F E ! ! < E R R < Y E ! 8 Y E Y 0 _._._._._._._._.",
"_._._._._._._._.].7X7X7X7X7X7X8X0XwXrX0X7X7X7X7X7X5X8XyXyX9X_._._._._._._._._.I.D.D.D.D.D.D.D.D.D.D.D.D.D.D.D.D._._._._._._._._.",
"_._._._._._._._.`.4X7X7X7X7X7X7X7X7X7X7X7X7X7X7X7X6X7XtXyX5X_._._._._._._._._._._._._._._._._._._._._._._._._._._._._._._._._._.",
"_._._._._._._._./.}.5X7X7X7X7X7X7X7X7X7X7X7X7X7X7X7X5X8XwX]._._._._._._._._._._._._._._._._._._._._._._._._._._._._._._._._._._.",
"_._._._._._._._._._.].,X,X,X,X,X,X,X,X,X,X,X,X,X,X,X,X:X}._._._._._._._._._._._._._._._._._._._._._._._._._._._._._._._._._._._.",
"_._._._._._._._._._._._._._._._._._._._._._._._._._._._._._._._._._._._._._._._._._._._._._._._._._._._._._._._._._._._._._._._.",
"_._._._._._._._._._._._._._._._._._._._._._._._._._._._._._._._././.A.A B.Z I././././._._._._._._._._._._._._._._._././._._._._.",
"_._._._._._._._._._._._._._._._._._._._._._._._._._._._._._._._._.).s ^ ' / > A././._._._._._._._._._._._._._._._._./.`._._._._.",
"_._._._._._._._._._._._._._._._._._._._._._._._._._._._._._._._._._.a ( [ [ ' P A R._./._._././._._._._._._._./._._.`./._._._._.",
"_._._._._._._._._._._._._._._._._._._._._._._._._._._._._._._._._._.a ~ ` ` [ [ / , A./._._.U.I._._._._._._.A.M.A.M.A.f N.A.M.A.",
"_._._._._._._._._._._._._._._._._._._._._._._._._._._._._._._._._._.s B.B.+ > ` ] ` > s R.R.A B _.`.)._._._.s @ d c f O k s l V ",
"_._._._._._._._._._._._._._._._._._._._._._._._._._._._._._._._._._.f U./././.A.A.A.A.U./.I.~ ] B.`._._._._.6 { l -.g t c l } b ",
"_._._._._._._._._._._._._._._._._._._._._._._._._._._._._._._._._.I.T A R._._._._._._._.R.b [ [ P I._._._._.k +.-.$.$.$.$.$.$.l.",
"_._._._._._._._._._._._._._._._._._._._._._._._._._._._._._._._.U.b ' ] A _._._._._._.).s ^ ' [ ' S _._._.R.k +.$.$.$.$.$.$.-.h.",
"_._._._.|.1X1X1X_._._._._._._.'.1X'._._.].1X1X`._._._._./.'.;X1XA ^ [ [ ~ T.-X'._._._.N.o L I ~ I ; M.R._._.B ..X.X.X.X.X.X.X.%.",
"_._._._.[.:X:X:X_._.`.`.{.`.`.|.:X]._._.].:X1X`._._.'.'.`.].:XT.P ` [ [ [ v =X]._._._.k o c @ + v o 3 U._._._.g  . . . .| |  .{ ",
"|.|.[.|.1X:X:X:X_._.1X:X:X:X;X:X:X'._._.|.:X1X_._.].1X1X:X;X:XC ^ ` ` ' [ ^ C.]._._._.B { { n n  .c 5 U._._._.C. .......| | ..l ",
":X:X:X:X:X:X:X:X_./.}.:X:X:X:X:X:X:X-X-X:X:X1X'._.|.:X:X:X:XF.I / / / / / / > U._._._.a z z z z v z # Y._._._.Y.3 %.$.-.-.h.l.D ",
":X:X:X:X:X:X:X:X_._.}.:X:X:X<X:X:X:X3X,X,X:X;X`._.|.:X:X:XY.+ P P P P P I I P B.1X1X1Xh $.e.$.e.$.-.C ]._._._.[.3 #.$.$.$.h.l.D ",
":X:X:X:X:X:X:X:X_._.C.J w.B.*.B.*.B.B.OX@X@XOXOXOX%X:X:X:XY.g -.-.-.-.-.$.-.-.j :X:X1Xj ..#.{ X.#.| C |.'.'.'.Y.3 #.$.$.{ } l.D ",
":X:X:X:X:X:X:X:X}.;XM W W W T E ) Q R &.8.9.9.8.7.@X:X:X:XY.z g.$.j.$.j.l.l.XXb ,X<X:Xh { O.e } #.{ C :X:X:X:XY.3 #.$.$.r 5 l.D ",
":X:X:X:X:X:X:X:X:X:XM E W W T R Q Q T 7.q.8.8.4.9.@X:X:X:X*Xk o.$.$.$.$.$.$.O.k F.B.F.# w #.c ..#.e # C.C.C.C.D.3 #.$.#.r 4 l.D ",
":X:X:X:X:X:X:X:X:X:Xm 8 8 Y Y U U 9 9 6.q.9.8.3.9.@X,X:X:X:XD.m $.$.$.$.$.$.j o * : : o 3 %.#.$.$.- X & * : * V 3 #.$.$.r q l.D ",
":X:X:X:X:X:X:X:X:X:XM R 8 _ _ _ ) R R 6.q.q.7.8.4.@X,X,X:X:X>Xh k.l.j.j.l.l.A l x v v } & z t u t & x v c c  .V 3 #.$.#.X.+.l.D ",
":X:X:X:X:X:X:X:X:X:XM Y U W ! E W 7 9 6.q.4.3.4.9.@X:X:X:X:X:Xh #.$.#.k.$.l.A & e l l e l l l t z l l y y l & T.3 #.$.$.$.h.l.D ",
":X:X:X:X:X:X:X:X:X;Xm U U Y 8 8 U 8 0 6.q.4.5.4.9.@X:X:X:X:X:Xh {  .u %.X.l.Z * x c { { { c { c { c c { { c * Y.3 #.$.$.$.h.l.D ",
":X:X:X:X:X:X:X:X:X:XM Q Q _ R R Q W R &.7.5.5.0.7.@X-X,X:X:X:Xh { { u %.| l.Z * i r u n u r n n q i { u u R : Y.3 #.e.e.$.h.l.M ",
":X:X:X:X:X:X:X:X:X:XZ.G G G G G G G 2.XXXX@XXX@X@X%X-X-X:X:X:Xh %.$.O.k.$.l.Z * i 2 r n r = n n & e c q - { - Y.3 | O.$.$.h.l.D ",
":X:X:X:X:X:X-X-X:X:X:X:X:X:X:X:X:X:X:X:X,X,X:X:X:X:X-X,X:X:X:Xh O.%.X.k.$.l.Z * i 2 r n r = n n * r { q - { = Y.3 1 c $.g.h.l.=.",
":X:X:X:X:X:X:X-X:X:X:X:X:X:X:X:X:X:X:X:X-X-X:X:X:X,X-X-X:X:X:Xh { { u %...l.Z & i 1 r { r 1 n n 1 r { r q { = Y.3 2 i e.e.h.l.D ",
":X:X:X:X:X:X,X,X:X:X:X-X:X:X:X:X:X:X:X:X:X:X:X:X:X:X:X:X:X:X:Xh { } u %.| l.B & 4 4 q 5 q 1 r 5 q r 5 w 4 y & V.3 - u #.#.h.l.D ",
":X:X:X:X:X:X-X-X:X:X:X-X:X:X:X:X:X:X:X:X:X:X:X:X:X:X,X,X:X:X:XV O.%.o.k.e.l.6 . t o o r . { . u X O w   c   x * 3 3 r ....g.l.D ",
":X:X:X:X:X:X-XoXx.p.x.=X:X:X:X:X:X:X:X:X:X:X-X:X:X:X*X+XoXx.$XC k.j.j.j.l.l.l +.$.#.e.e.X.| { ..} | $.#.$.#.$.o.3  .| | c +.l.D ",
":X:X:X:X:X&XH.n.v.n.n.H.#X=X:X:X:X:X:X:X:X:X,X-X-X%X+Xf.b.n.x.N e.j.j.j.l.l.l #.e.e.e.#.%.{ i i n ..$.$.$.$.$.O.3 | | } w l h.w.",
"-X,X,X-XY.b.v.v.n.n.n.n.v.&X-X,X:X:X:X:X:X:X-X-X&Xd.v.n.n.n.n.v.f.j.j.j.l.l.y $.e.$.$.$.O.= & & = { $.$.$.$.$.O.3  . . .1 q z.t.",
",X-X-X>XG.v.v.v.i.n.n.v.v.G.:X,X:X:X:X:X:X:X-X-XH.n.v.i.t.n.n.n.f.j.j.j.l.l.l $.$.$.$.$.%.O & & & i $.$.$.$.$.O.3  . . .1 q r.b.",
"-X-X-X=X2.v.n.v.v.n.v.a.v.x.*X:X:X:X:X:X:X:X:X*Xi.n.n.a.a.n.a.s.s.r.j.j.l.l.y $.$.$.$.$.O.O & & & i $.$.$.$.$.O.3  .|  .w y y.s.",
">X-X>XY.;.<.v.n.n.n.v.a.v.v.&X:X:X:X:X:X:X:X:XG.>.i.n.n.n.n.s.s.n.f.j.j.l.l.l $.$.$.$.e.%.O & & * i $.$.$.$.$.O.3 | | | | w.>.y.",
"-X:X:X=X,.;.b.m.n.v.n.n.v.p.=X,X:X:X:X:X:X:X;X$X>.<.n.n.n.n.n.n.v.r.l.j.l.l.l $.e.$.$.e.%.O & & & i $.$.$.$.$.O.3 }  .| | w.>.1.",
":X:X,X=X,.;.1.<.v.v.v.n.n.x.=X-X:X:X:X:X:X-X-X&X;.>.i.v.v.v.v.n.s.z.l.l.l.l.l o.o.X.X.o...O & & & u o.O.o.o.o. .3 | | |  .c.:.>.",
",X,X,X-X2.;.;.;.1.a.>.a.v.oX=X,X:X:X:X:X:X:X>X*X,.;.;.;.i.a.y.n.s.N z z z z + - - - - - - X X o X & - - - - - * O - - - - 4 :.;.",
"b.m.b.b.v.v.i.a.a.i.a.a.a.b.m.v.m.m.m.m.m.m.b.b.a.u.u.u.u.i.u.i.i.t.t.t.t.t.t.t.t.t.t.t.t.t.t.t.t.t.t.t.t.t.t.t.t.t.t.t.t.t.t.y."
};
