/* XPM */
static char *result[] = {
/* columns rows colors chars-per-pixel */
"64 64 8 1 ",
"  c black",
". c #AC3231",
"X c #EEC399",
"o c #E28A74",
"O c white",
"+ c #323D39",
"@ c #D8A065",
"# c #38946F",
/* pixels */
"                                                                ",
"                                                                ",
"                          ..      ........                      ",
"                          ..      ........                      ",
"                          ....      ........                    ",
"                          ....      ........                    ",
"                    ..    ......    ..........                  ",
"                    ..    ......    ..........                  ",
"                    ....  ......................                ",
"                    ....  ......................                ",
"                    ..............................              ",
"                    ..............................              ",
"                    ..............................              ",
"                    ..............................              ",
"                    ..............................              ",
"                    ..............................              ",
"                    ....XX........XX..............              ",
"                    ....XX........XX..............              ",
"                    ....XXXX..XX..XXXX..XX........              ",
"                    ....XXXX..XX..XXXX..XX........              ",
"                  ......XXXX..ooooooXX..XXXXoo....              ",
"                  ......XXXX..ooooooXX..XXXXoo....              ",
"                      ....XXooooOOOOooXXXXooOO..                ",
"                      ....XXooooOOOOooXXXXooOO..                ",
"                        ....ooooOOOO++oooo++OOoo                ",
"                        ....ooooOOOO++oooo++OOoo                ",
"                      XXXXXX@@ooOOOO++OOoo++OOoo                ",
"                      XXXXXX@@ooOOOO++OOoo++OOoo                ",
"                    XXXXXXXX@@XXooOOOOOOooOOOOXX                ",
"                    XXXXXXXX@@XXooOOOOOOooOOOOXX                ",
"                  XXXXXXXX@@@@@@XXXXXXXXXXXXXX@@                ",
"                  XXXXXXXX@@@@@@XXXXXXXXXXXXXX@@                ",
"                XXXXXXXXXX@@@@@@@@XXXXXXXXXX@@                  ",
"                XXXXXXXXXX@@@@@@@@XXXXXXXXXX@@                  ",
"              ooXXXXXXXX@@@@@@XXXX@@@@@@@@@@@@                  ",
"              ooXXXXXXXX@@@@@@XXXX@@@@@@@@@@@@                  ",
"            XXXXooXXXX  @@@@XXXXXXXXXXXXXX@@@@@@                ",
"            XXXXooXXXX  @@@@XXXXXXXXXXXXXX@@@@@@                ",
"            XXXXXXoo    @@@@XXXXXXXXXXXX  @@@@@@ooXX            ",
"            XXXXXXoo    @@@@XXXXXXXXXXXX  @@@@@@ooXX            ",
"          XXXXXXXXXX  ##@@@@XXXXXXXXXXXX##  @@oo@@@@XX          ",
"          XXXXXXXXXX  ##@@@@XXXXXXXXXXXX##  @@oo@@@@XX          ",
"          XXXXXXXX@@########XXXXXXXXXX######oo@@@@@@XX          ",
"          XXXXXXXX@@########XXXXXXXXXX######oo@@@@@@XX          ",
"            XXXX@@  ##########################  @@@@@@          ",
"            XXXX@@  ##########################  @@@@@@          ",
"              XX  ####@@@@@@####################                ",
"              XX  ####@@@@@@####################                ",
"                    XXXXXX@@############@@@@XXXX                ",
"                    XXXXXX@@############@@@@XXXX                ",
"                  @@XXXXXXXX@@##    ##@@@@XXXXXX                ",
"                  @@XXXXXXXX@@##    ##@@@@XXXXXX                ",
"                  XXXXXXXXXX@@        @@@@XXXXXX                ",
"                  XXXXXXXXXX@@        @@@@XXXXXX                ",
"                ooXXXXXXXXXX          @@@@XXXXooXX              ",
"                ooXXXXXXXXXX          @@@@XXXXooXX              ",
"              @@@@oooooooooo          ooooooooXXXX              ",
"              @@@@oooooooooo          ooooooooXXXX              ",
"            @@@@@@XXXXXXXXXX          @@@@@@XXXXXXXX            ",
"            @@@@@@XXXXXXXXXX          @@@@@@XXXXXXXX            ",
"            @@@@@@XXXXXXXXXX          @@@@@@@@XXXX              ",
"            @@@@@@XXXXXXXXXX          @@@@@@@@XXXX              ",
"                                                                ",
"                                                                "
};
