/* XPM */
static char *d608bb0c0795474a9951f188fd716c0aOgAW7hYkcKiclTDY[] = {
/* columns rows colors chars-per-pixel */
"64 64 150 2 ",
"   c #235777",
".  c #235877",
"X  c #295C77",
"o  c #265C7B",
"O  c #295E7D",
"+  c #2D607D",
"@  c #33647F",
"#  c #38667E",
"$  c #295E80",
"%  c #2F6281",
"&  c #336581",
"*  c #366882",
"=  c #3B6B85",
"-  c #3E6D88",
";  c #416F87",
":  c #416E89",
">  c #407087",
",  c #44728A",
"<  c #4A758D",
"1  c #4D788E",
"2  c #507B8E",
"3  c #4C7790",
"4  c #4E7991",
"5  c #537D94",
"6  c #577F98",
"7  c #558196",
"8  c #5D8497",
"9  c #5C8499",
"0  c #5F889D",
"q  c #61869B",
"w  c #648A9D",
"e  c #688D9F",
"r  c #678CA1",
"t  c #698EA1",
"y  c #6C91A3",
"u  c #7495A6",
"i  c #7498A6",
"p  c #7496A9",
"a  c #7897A9",
"s  c #779AAE",
"d  c #7B9BAB",
"f  c #829FAD",
"g  c #829FB1",
"h  c #83A1AF",
"j  c #85A2B1",
"k  c #89A5B4",
"l  c #8DA9B6",
"z  c #8EABB8",
"x  c #90ABB6",
"c  c #93ADBB",
"v  c #97B2BD",
"b  c #9AB2BE",
"n  c #9EB5C1",
"m  c #A0B6C3",
"M  c #A4BAC5",
"N  c #A9BDC7",
"B  c #A7BDCA",
"V  c #ABBFC9",
"C  c #ACC1CA",
"Z  c #B2C6CD",
"A  c #B5C8CF",
"S  c #B5C7D1",
"D  c #B7CAD1",
"F  c #BBCBD3",
"G  c #C1CFD6",
"H  c #C2D1D7",
"J  c #C4D3D9",
"K  c #CAD6DD",
"L  c #CDD9DD",
"P  c #D1DADF",
"I  c #D3DDE2",
"U  c #D7E0E5",
"Y  c #DAE3E6",
"T  c #DDE6E9",
"R  c #DEE8E9",
"E  c #E2E7EB",
"W  c #E3EAED",
"Q  c #E9EFEF",
"!  c #EBF1EF",
"~  c #E7ECF0",
"^  c #E9EEF1",
"/  c #EBF1F1",
"(  c #EAF0F0",
")  c #ECF0F1",
"_  c #EDF1F2",
"`  c #EDF3F3",
"'  c #EDF1F4",
"]  c #EFF3F4",
"[  c #EFF2F7",
"{  c #EFF5F5",
"}  c #EDF1F3",
"|  c #F0F4F3",
" . c #F4F6F3",
".. c #F1F5F4",
"X. c #F0F4F5",
"o. c #F1F7F7",
"O. c #F2F6F7",
"+. c #F4F6F5",
"@. c #F5F5F7",
"#. c #F5F7F6",
"$. c #F2F5F5",
"%. c #F7F9F6",
"&. c #F6F8F7",
"*. c #F8FAF7",
"=. c #F3F7F8",
"-. c #F5F6F8",
";. c #F2F7F9",
":. c #F5F9F8",
">. c #F4F8F9",
",. c #F7F9F8",
"<. c #F5F9FA",
"1. c #F6F9F9",
"2. c #F9F9F9",
"3. c #F9FBF8",
"4. c #F8FAF9",
"5. c #F8F8FA",
"6. c #F9FBFA",
"7. c #FBFBFB",
"8. c #FAFCF9",
"9. c #F8FCFB",
"0. c #FBFDFA",
"q. c #FAFCFB",
"w. c #FDFCF8",
"e. c #FCFCFA",
"r. c #FDFDFB",
"t. c #FEFDFB",
"y. c #FCFEFB",
"u. c #FFFFFB",
"i. c #FBFDFC",
"p. c #FAFEFD",
"a. c #F9FDFE",
"s. c #FBFFFE",
"d. c gray99",
"f. c #FDFDFD",
"g. c #FEFCFD",
"h. c #FDFFFC",
"j. c #FCFEFD",
"k. c #FEFEFC",
"l. c #FFFFFD",
"z. c #FCFDFF",
"x. c #FDFDFF",
"c. c #FFFDFE",
"v. c #FDFFFE",
"b. c #FCFFFF",
"n. c #FEFEFE",
"m. c #FEFEFF",
"M. c #FFFEFF",
"N. c #FEFFFF",
"B. c white",
"V. c #FFFFFF",
/* pixels */
"B.B.B.B.B.B.B.B.B.B.B.B.B.B.B.B.B.B.B.B.B.B.B.B.B.B.B.B.B.B.B.B.B.B.B.B.B.B.B.B.B.B.B.B.B.B.B.B.B.B.B.B.B.B.B.B.B.B.B.B.B.B.B.B.",
"B.B.B.B.B.B.B.B.B.B.B.B.B.B.B.B.B.B.B.B.B.B.B.B.B.B.B.B.B.B.B.B.B.B.B.B.B.B.B.B.B.B.B.B.B.B.B.B.B.B.B.B.B.B.B.B.B.B.B.B.B.B.B.B.",
"B.B.B.B.B.B.B.B.B.B.B.B.B.B.B.B.B.B.B.B.B.B.B.B.B.B.B.B.B.B.B.B.B.B.B.B.B.B.B.B.B.B.B.B.B.B.B.B.B.B.B.B.B.B.B.B.B.B.B.B.B.B.B.B.",
"B.B.B.B.B.B.B.B.B.B.B.B.B.B.B.B.B.B.B.B.B.B.B.B.B.B.B.B.B.B.B.B.B.B.B.B.B.B.B.B.B.B.B.B.B.B.B.B.B.B.B.B.B.B.B.B.B.B.B.B.B.B.B.B.",
"B.B.B.B.B.B.B.B.B.B.B.B.B.B.B.B.B.B.B.B.B.B.B.B.B.B.B.B.B.B.B.B.B.B.B.B.B.B.B.B.B.B.B.B.B.B.B.B.B.B.B.B.B.B.B.B.B.B.B.B.B.B.B.B.",
"B.B.B.B.B.B.B.B.B.B.B.B.B.B.B.B.B.B.B.B.B.B.B.B.B.B.B.B.B.B.B.B.B.B.B.B.B.B.B.B.B.B.B.B.B.B.B.B.B.B.B.B.B.B.B.B.B.B.B.B.B.B.B.B.",
"B.B.B.B.B.B.B.B.B.B.B.B.B.B.B.B.B.B.B.B.B.B.B.B.B.B.B.B.B.B.B.B.B.B.B.B.B.B.B.B.B.B.B.B.B.B.B.B.B.B.B.B.B.B.B.B.B.B.B.B.B.B.B.B.",
"B.B.B.B.B.B.B.B.B.B.B.B.B.B.B.B.B.B.B.B.B.B.B.B.B.B.B.B.B.B.B.B.B.B.B.B.B.B.B.B.B.B.B.B.B.B.B.B.B.B.B.B.B.B.B.B.B.B.B.B.B.B.B.B.",
"B.B.B.B.B.B.B.B.B.B.B.B.B.B.B.B.B.B.B.B.B.B.B.B.B.B.B.B.B.5.d M i.B.L a q.B.B.B.B.B.B.B.B.B.B.B.B.B.B.B.B.B.B.B.B.B.B.B.B.B.B.B.",
"B.B.B.B.B.B.B.B.B.B.B.B.B.B.B.B.B.B.B.B.B.B.B.B.B.B.B.B.B.-.= * I B.F * q.B.B.B.B.B.B.B.B.B.B.B.B.B.B.B.B.B.B.B.B.B.B.B.B.B.B.B.",
"B.B.B.B.B.B.B.B.B.B.B.B.B.B.B.B.B.B.B.B.B.B.B.B.B.B.B.B.B.-.= * y r.F @ B.B.B.B.B.B.B.B.B.B.B.B.B.B.B.B.B.B.B.B.B.B.B.B.B.B.B.B.",
"B.B.B.B.B.B.B.B.B.B.B.B.B.B.B.B.B.B.B.B.B.B.B.B.B.B.B.B.B.-.= x * K F @ i.B.B.B.B.B.B.B.B.B.B.B.B.B.B.B.B.B.B.B.B.B.B.B.B.B.B.B.",
"B.B.B.B.B.B.B.B.B.B.B.B.B.B.B.B.B.B.B.B.B.B.B.B.B.B.B.O.W O.- D j 5 D @ q.W O.B.i.B.B.B.B.B.B.B.B.B.B.B.B.B.B.B.B.B.B.B.B.B.B.B.",
"B.B.B.B.B.B.B.B.B.B.B.B.B.B.B.B.B.B.B.B.B.B.B.B.W c 5 + 8 @.- D ^ @ d & q.5 + 5 c ! B.B.B.B.B.B.B.B.B.B.B.B.B.B.B.B.B.B.B.B.B.B.",
"B.B.B.B.B.B.B.B.B.B.B.B.B.B.B.B.B.B.B.B.B.B.I p % * y m U O.= D r.M O @ q.I m t * & a I B.B.B.B.B.B.B.B.B.B.B.B.B.B.B.B.B.B.B.B.",
"B.B.B.B.B.B.B.B.B.B.B.B.B.B.B.B.B.B.B.B.Q z @ > z R B.r.B.O.- D B.=., = q.B.B.B.U z : * l ] B.B.B.B.B.B.B.B.B.B.B.B.B.B.B.B.B.B.",
"B.B.B.B.B.B.B.B.B.B.B.B.B.B.B.B.B.B.B.L , @ k O.r.B.B.B.B.B.W O.i.B.( W B.B.B.B.B.B.] k @ , I r.B.B.B.B.B.B.B.B.B.B.B.B.B.B.B.B.",
"B.B.B.B.B.B.B.B.B.B.B.B.B.B.B.B.r.q.m @ 5 I B.B.B.B.B.B.B.B.B.B.B.B.B.B.B.B.B.B.B.B.B.B.U < & V B.B.B.B.B.B.B.B.B.B.B.B.B.B.B.B.",
"B.B.B.B.B.B.B.B.B.B.B.B.B.B.B.B.i.v + y _ B.B.B.B.B.B.B.B.B.B.B.B.B.B.B.B.B.B.B.B.B.B.B.r...t O n B.B.B.B.B.B.B.B.B.B.B.B.B.B.B.",
"B.B.B.B.B.B.B.B.B.B.B.B.B.B.B.i.n O k @.r.B.B.B.B.B.B.B.B.B.B.B.B.B.B.B.B.B.B.B.B.B.B.B.B.B.<.d + b r.B.B.B.B.B.B.B.B.B.B.B.B.B.",
"B.B.B.B.B.B.B.B.B.B.B.B.B.B.B.A % p <.B.B.B.B.B.B.B.B.B.B.B.B.B.B.B.B.B.B.B.B.B.B.B.B.B.B.B.B.%.p @ G r.B.B.B.B.B.B.B.B.B.B.B.B.",
"B.B.B.B.B.B.B.B.B.B.B.B.B.B.W = 9 <.B.B.B.B.B.B.B.B.B.B.B.B.B.B.B.B.B.B.B.B.B.B.B.B.B.B.B.B.B.B.O.9 = W B.B.B.B.B.B.B.B.B.B.B.B.",
"B.B.B.B.B.B.B.B.B.B.B.B.B.q.q - E B.B.B.B.B.B.B.B.B.B.B.B.B.B.B.O.] B.B.B.B.B.B.B.B.B.B.B.B.B.B.B.T & t q.B.B.B.B.B.B.B.B.B.B.B.",
"B.B.B.B.B.B.B.B.B.B.B.B.B.H X B B.B.B.B.B.B.B.B.B.B.B.B.B.B.B._ , = 5.B.B.B.B.B.B.B.B.B.B.B.B.B.B.r.V o F r.B.B.B.B.B.B.B.B.B.B.",
"B.B.B.B.B.B.B.B.B.B.B.B.5., 5 5.B.B.B.B.B.B.B.B.B.B.B.B.B.B.r.b O O C B.B.B.B.B.B.B.B.B.B.B.B.B.B.B.<.4 <  .B.B.B.B.B.B.B.B.B.B.",
"B.B.B.B.B.B.B.B.B.B.B.B.D o H B.B.B.B.B.B.B.B.B.B.B.B.B.B.B.@.3 O O , 5.B.B.B.B.B.B.B.B.B.B.B.B.B.B.B.D O D B.B.B.B.B.B.B.B.B.B.",
"B.B.B.B.B.B.B.B.B.B.B.B.5 > 5.B.B.B.B.B.B.B.B.B.B.B.B.B.B.B.D % * O o H B.B.B.B.B.B.B.B.B.B.B.B.B.B.B.<.1 y 5.B.B.B.B.B.B.B.B.B.",
"B.B.B.B.B.B.B.B.B.B.B.W O n B.B.B.B.B.B.B.B.B.B.B.B.B.B.B.5.5 0 q O O 0 B.B.B.B.B.B.B.B.B.B.B.B.B.B.B.B.b @ Y B.B.B.B.B.B.B.B.B.",
"B.B.B.B.B.B.B.B.B.B.r.C O W B.B.B.B.B.B.B.B.B.B.B.B.B.B.B.H O S t O O o K B.B.B.B.B.B.B.B.B.B.B.B.B.B.B.W + M B.B.B.B.B.B.B.B.B.",
"B.B.B.B.B.B.B.B.B.B.B.s > B.B.B.B.B.B.B.B.B.B.B.B.B.B.B.B.8 : O.t O O O y B.B.B.B.B.B.B.B.B.B.B.B.B.B.B.5.4 s B.B.B.B.B.B.B.B.B.",
"B.B.B.B.B.B.B.B.B.B.B., p B.B.B.B.B.B.B.B.B.B.B.B.B.B.r.I + M B.t O O O O I B.B.B.B.B.B.B.B.B.B.B.B.B.B.B.p 5 r.B.B.B.B.B.B.B.B.",
"B.B.B.B.B.B.B.B.B.B.{ O n B.B.B.B.B.B.B.B.B.B.B.B.B.B.q.a = _ B.e O O O o g r.B.B.B.B.B.B.B.B.B.B.B.B.B.B.c * B.B.B.B.B.B.B.B.B.",
"B.B.B.B.B.B.B.B.B.B.T . H B.B.B.B.B.B.B.B.B.B.B.B.r.B.T + v B.B.t O O O O = T B.B.B.B.B.B.B.B.B.B.B.B.B.B.N O ] B.B.B.B.B.B.B.B.",
"B.B.B.B.B.B.B.B.B.B.I   I B.B.B.B.B.B.B.B.B.B.B.B.B.B.z & ( B.B.t O O O O O k B.B.B.B.B.B.B.B.B.B.B.B.B.B.A o E B.B.B.B.B.B.B.B.",
"B.B.B.B.B.B.B.B.B.B.P . I B.B.B.B.B.B.B.B.B.B.B.B.B.~ - i B.B.B.t O O O O o - O.B.B.B.B.B.B.B.B.B.B.B.B.B.F X T B.B.B.B.B.B.B.B.",
"B.B.B.B.B.B.B.B.B.B.I   I B.B.B.B.B.B.B.B.B.B.B.B.r.b & T B.B.B.t O O O O O O n B.B.B.B.B.B.B.B.B.B.B.B.B.Z o W B.B.B.B.B.B.B.B.",
"B.B.B.B.B.B.B.B.B.B.W . F B.B.B.B.B.B.B.B.B.B.B.B.*., y B.B.B.B.t O O O O O O , O.B.B.B.B.B.B.B.B.B.B.B.r.M O =.B.B.B.B.B.B.B.B.",
"B.B.B.B.B.B.B.B.B.B.O.+ b B.B.B.B.B.B.B.B.B.B.B.B.V + F B.B.B.B.t o O O O O O + D i.B.B.B.B.B.B.B.B.B.B.r.z = B.B.B.B.B.B.B.B.B.",
"B.B.B.B.B.B.B.B.B.B.B.1 t B.B.B.B.B.B.B.B.B.B.B.q.5 q 5.B.B.B.B.r O O O O O o O 5 <.B.B.B.B.B.B.B.B.B.B.B.y 9 r.B.B.B.B.B.B.B.B.",
"B.B.B.B.B.B.B.B.B.B.r.j = B.B.B.B.B.B.B.B.B.B.B.D . D B.B.B.B._ 6 O O O O O O $ O J B.B.B.B.B.B.B.B.B.B.%., f B.B.B.B.B.B.B.B.B.",
"B.B.B.B.B.B.B.B.B.B.B.A o T B.B.B.B.B.B.B.B.B.i.9 , 5.B.r.5.M : O O O O O O O O O 0 5.B.B.B.B.B.B.B.B.B.Y O Z B.B.B.B.B.B.B.B.B.",
"B.B.B.B.B.B.B.B.B.B.B._ O l B.B.B.B.B.B.B.B.B.I O C q.*.Z 5 O p I I y O o O O O O O L B.B.B.B.B.B.B.B.r.k = E B.B.B.B.B.B.B.B.B.",
"B.B.B.B.B.B.B.B.B.B.B.r.q = <.B.B.B.B.B.B.B.d.y - O.K e O 9 F <.B.B.5.D 7 O O O O O d 5.B.B.B.B.B.B.B.@., p B.B.B.B.B.B.B.B.B.B.",
"B.B.B.B.B.B.B.B.B.B.B.B.K o A i.B.B.B.B.B.B.T O k a O > V i.B.B.B.B.B.B.q.V > O O O & U B.B.B.B.B.B.B.N O J B.B.B.B.B.B.B.B.B.B.",
"B.B.B.B.B.B.B.B.B.B.B.B.B.5 : @.B.B.B.B.B.B.k O O @ m <.B.B.B.B.B.B.B.B.B.B.%.n & O O j r.B.B.B.B.B.@.: 7 5.B.B.B.B.B.B.B.B.B.B.",
"B.B.B.B.B.B.B.B.B.B.B.B.r.I O b r.B.B.B.B.*., O f _ B.B.B.B.B.B.B.B.B.B.B.B.B.B.( s O 2 r.B.B.B.B.B.v O L B.B.B.B.B.B.B.B.B.B.B.",
"B.B.B.B.B.B.B.B.B.B.B.B.B.r.p * L B.B.B.B.B.W T B.B.B.B.B.B.B.B.B.B.B.B.B.B.B.B.B.B.U W B.B.B.B.B.L + h B.B.B.B.B.B.B.B.B.B.B.B.",
"B.B.B.B.B.B.B.B.B.B.B.B.B.B.] 3 4 ^ B.B.B.B.B.B.B.B.B.B.B.B.B.B.B.B.B.B.B.B.B.B.B.B.B.B.B.B.B.B.E 4 1 ] B.B.B.B.B.B.B.B.B.B.B.B.",
"B.B.B.B.B.B.B.B.B.B.B.B.B.B.B.J = q ..B.B.B.B.B.B.B.B.B.B.B.B.B.B.B.B.B.B.B.B.B.B.B.B.B.B.B.B.O.q = I B.B.B.B.B.B.B.B.B.B.B.B.B.",
"B.B.B.B.B.B.B.B.B.B.B.B.B.B.B.B.F % w _ B.B.B.B.B.B.B.B.B.B.B.B.B.B.B.B.B.B.B.B.B.B.B.B.B.B._ 8 @ D r.B.B.B.B.B.B.B.B.B.B.B.B.B.",
"B.B.B.B.B.B.B.B.B.B.B.B.B.B.B.B.r.F & 3 T i.B.B.B.B.B.B.B.B.B.B.B.B.B.B.B.B.B.B.B.B.B.B.r.E < @ F r.B.B.B.B.B.B.B.B.B.B.B.B.B.B.",
"B.B.B.B.B.B.B.B.B.B.B.B.B.B.B.B.B.B.J = = Z B.B.B.B.B.B.B.B.B.B.B.B.B.B.B.B.B.B.B.B.B.B.S = = K B.B.B.B.B.B.B.B.B.B.B.B.B.B.B.B.",
"B.B.B.B.B.B.B.B.B.B.B.B.B.B.B.B.B.B.B.T w O e I r.B.B.B.B.B.B.B.B.B.B.B.B.B.B.B.r.B.K t O t W B.B.B.B.B.B.B.B.B.B.B.B.B.B.B.B.B.",
"B.B.B.B.B.B.B.B.B.B.B.B.B.B.B.B.B.B.B.B.O.M - & p J <.B.B.B.B.B.B.B.B.B.B.B.B.5.G p & - M <.B.B.B.B.B.B.B.B.B.B.B.B.B.B.B.B.B.B.",
"B.B.B.B.B.B.B.B.B.B.B.B.B.B.B.B.B.B.B.B.B.r.=.l - . ; j D T 5.B.B.B.B.>.Y A j = . ; c O.t.B.B.B.B.B.B.B.B.B.B.B.B.B.B.B.B.B.B.B.",
"B.B.B.B.B.B.B.B.B.B.B.B.B.B.B.B.B.B.B.B.B.B.B.B.5.J u = . . O * = = # O X o = u K *.B.B.B.B.B.B.B.B.B.B.B.B.B.B.B.B.B.B.B.B.B.B.",
"B.B.B.B.B.B.B.B.B.B.B.B.B.B.B.B.B.B.B.B.B.B.B.B.B.B.B.5.W F v f u p h b G W 7.r.B.B.B.B.B.B.B.B.B.B.B.B.B.B.B.B.B.B.B.B.B.B.B.B.",
"B.B.B.B.B.B.B.B.B.B.B.B.B.B.B.B.B.B.B.B.B.B.B.B.B.B.B.B.B.B.r.r.r.B.i.i.B.B.B.B.B.B.B.B.B.B.B.B.B.B.B.B.B.B.B.B.B.B.B.B.B.B.B.B.",
"B.B.B.B.B.B.B.B.B.B.B.B.B.B.B.B.B.B.B.B.B.B.B.B.B.B.B.B.B.B.B.B.B.B.B.B.B.B.B.B.B.B.B.B.B.B.B.B.B.B.B.B.B.B.B.B.B.B.B.B.B.B.B.B.",
"B.B.B.B.B.B.B.B.B.B.B.B.B.B.B.B.B.B.B.B.B.B.B.B.B.B.B.B.B.B.B.B.B.B.B.B.B.B.B.B.B.B.B.B.B.B.B.B.B.B.B.B.B.B.B.B.B.B.B.B.B.B.B.B.",
"B.B.B.B.B.B.B.B.B.B.B.B.B.B.B.B.B.B.B.B.B.B.B.B.B.B.B.B.B.B.B.B.B.B.B.B.B.B.B.B.B.B.B.B.B.B.B.B.B.B.B.B.B.B.B.B.B.B.B.B.B.B.B.B.",
"B.B.B.B.B.B.B.B.B.B.B.B.B.B.B.B.B.B.B.B.B.B.B.B.B.B.B.B.B.B.B.B.B.B.B.B.B.B.B.B.B.B.B.B.B.B.B.B.B.B.B.B.B.B.B.B.B.B.B.B.B.B.B.B.",
"B.B.B.B.B.B.B.B.B.B.B.B.B.B.B.B.B.B.B.B.B.B.B.B.B.B.B.B.B.B.B.B.B.B.B.B.B.B.B.B.B.B.B.B.B.B.B.B.B.B.B.B.B.B.B.B.B.B.B.B.B.B.B.B.",
"| B.B.B.B.B.B.B.B.B.B.B.B.B.B.B.B.B.B.B.B.B.B.B.B.B.B.B.B.B.B.B.B.B.B.B.B.B.B.B.B.B.B.B.B.B.B.B.B.B.B.B.B.B.B.B.B.B.B.B.B.B.B.B."
};
