/* XPM */
static char *result[] = {
/* columns rows colors chars-per-pixel */
"64 64 20 1 ",
"  c black",
". c #FBF235",
"X c #D8A065",
"o c #26243C",
"O c #554D25",
"+ c #554E25",
"@ c #DAA166",
"# c #564E25",
"$ c #DAA066",
"% c #87463A",
"& c white",
"* c #B56D5B",
"= c #B66D5B",
"- c #86463A",
"; c #B46D5B",
": c #B56D5C",
"> c #B56E5B",
", c #780606",
"< c #790506",
"1 c #534B24",
/* pixels */
"                                                                ",
"                                                                ",
"                                                ......XX        ",
"                                                ......XX        ",
"                          oooooooooooo      ......XXXX..        ",
"                          oooooooooooo      ......XXXX..        ",
"                      oooooooooooooooooo  ....XXXX......        ",
"                      oooooooooooooooooo  ....XXXX......        ",
"                    oooooooooooooooooooooo..XX........          ",
"                    oooooooooooooooooooooo..XX........          ",
"                  oooooooooooooooooooooooooo........            ",
"                  oooooooooooooooooooooooooo........            ",
"                ooooO+ooooOOOO@@OOOOO+ooO+oooo                  ",
"                oooo##oooo#OOO$$OOOOO#oo##oooo                  ",
"                oooooooooooooooooooooooooooooo                  ",
"                oooooooooooooooooooooooooooooo                  ",
"                oooooooooooooooooooooooooooooo                  ",
"                oooooooooooooooooooooooooooooo                  ",
"                oooooooooooooooooooooooooooooo                  ",
"                oooooooooooooooooooooooooooooo                  ",
"                    %%&&@@****@@&&&&***=oooooo                  ",
"                    --&&$$;;;*$$&&&&;;;:oooooo                  ",
"                    --&&oo>;;:oo&&&&;;;;*=oo                    ",
"                    --&&oo>;;:oo&&&&;;;;;:oo                    ",
"                    --&&oo>;;:oo&&&&;;;;;:oo                    ",
"                    --&&oo>;;:oo&&&&;;;;;:oo                    ",
"                    ,,,,**;;;;**<,,,,,,,-%                      ",
"                    ,,,,;;;;;;;;,,,,,,,,--                      ",
"                    ,,;;;;------;;;;,,----                      ",
"                    ,,;;;;------;;;;,,----                      ",
"                      --;;;;;;;;;;----XX;;--                    ",
"                      --;;;;;;;;;;----XX;;--                    ",
"                    --XX----------;;XX;;;;;;--                  ",
"                    --XX----------;;XX;;;;;;--                  ",
"                  --;;;;XX;;;;;;;;XX;;;;;;;;;;--                ",
"                  --;;;;XX;;;;;;;;XX;;;;;;;;;;--                ",
"                  ;;;;;;;;XX..XX..;;--;;;;;;;;--                ",
"                  ;;;;;;;;XX..XX..;;--;;;;;;;;--                ",
"                --;;;;--;;;;;;;;;;;;;;--;;;;;;;;--              ",
"                --;;;;--;;;;;;;;;;;;;;--;;;;;;;;--              ",
"                ;;;;;;--;;;;;;;;;;;;;;--;;;;;;;;--              ",
"                ;;;;;;--;;;;;;;;;;;;;;--;;;;;;;;--              ",
"                ;;1111--;;;;;;;;;;;;;;--11111111--              ",
"                ;;1111--;;;;;;;;;;;;;;--11111111--              ",
"                ;;;;;;--,,,,,,,,,,,,,,--;;;;;;;;--              ",
"                ;;;;;;--,,,,,,,,,,,,,,--;;;;;;;;--              ",
"                --;;;;--;;,,,,,,,,;;;;--;;;;;;;;--              ",
"                --;;;;--;;,,,,,,,,;;;;--;;;;;;;;--              ",
"                  --;;;;;;,,,,,,,,;;;;;;--;;;;----              ",
"                  --;;;;;;,,,,,,,,;;;;;;--;;;;----              ",
"                    --;;;;,,,,,,,,;;;;;;;;----                  ",
"                    --;;;;,,,,,,,,;;;;;;;;----                  ",
"                      ;;;;,,,,,,,,;;;;;;;;                      ",
"                      ;;;;,,,,,,,,;;;;;;;;                      ",
"                      ;;;;,,,,,,,,;;;;;;;;                      ",
"                      ;;;;,,,,,,,,;;;;;;;;                      ",
"                      ;;;;;;--  --;;;;;;;;                      ",
"                      ;;;;;;--  --;;;;;;;;                      ",
"                  --;;;;;;;;--  --;;;;;;;;;;--                  ",
"                  --;;;;;;;;--  --;;;;;;;;;;--                  ",
"                --;;;;;;;;;;--    ;;;;;;;;;;--                  ",
"                --;;;;;;;;;;--    ;;;;;;;;;;--                  ",
"                ;;;;;;;;;;;;--    ;;;;;;;;;;--                  ",
"                ;;;;;;;;;;;;--    ;;;;;;;;;;--                  "
};
