/* XPM */
static char *result[] = {
/* columns rows colors chars-per-pixel */
"64 64 188 2 ",
"   c #010101",
".  c #0A0404",
"X  c #03030D",
"o  c #0D0D0C",
"O  c #09030B",
"+  c #130305",
"@  c #120E0B",
"#  c #1C0B0B",
"$  c #1B130E",
"%  c #15100C",
"&  c #05061A",
"*  c #040515",
"=  c #1E1814",
"-  c #1C1C1C",
";  c #1A1416",
":  c #32090B",
">  c #3D0A0C",
",  c #25170F",
"<  c #2D0F11",
"1  c #251610",
"2  c #2B1B14",
"3  c #241B14",
"4  c #391A18",
"5  c #2A0708",
"6  c #2C221A",
"7  c #3A211B",
"8  c #1F1621",
"9  c #090C33",
"0  c #060827",
"q  c #222223",
"w  c #2B2A2A",
"e  c #282522",
"r  c #3E2A23",
"t  c #333333",
"y  c #3A3635",
"u  c #530D10",
"i  c #5B0F14",
"p  c #4C1013",
"a  c #450B0D",
"s  c #6A0E14",
"d  c #791017",
"f  c #741017",
"g  c #7A0F15",
"h  c #6D1B21",
"j  c #412426",
"k  c #482B25",
"l  c #4A392C",
"z  c #423326",
"x  c #5E392C",
"c  c #5B3626",
"v  c #523F31",
"b  c #463F39",
"n  c #782D31",
"m  c #594332",
"M  c #4A413B",
"N  c #654D39",
"B  c #6C523D",
"V  c #764934",
"C  c #0E124E",
"Z  c #0F1250",
"A  c #101354",
"S  c #23175B",
"D  c #121665",
"F  c #161C7B",
"G  c #221868",
"H  c #383A6B",
"J  c #6F1A4A",
"K  c #773E41",
"L  c #411E7D",
"P  c #561E6A",
"I  c #691F73",
"U  c #71226D",
"Y  c #702D70",
"T  c #77386B",
"R  c #454545",
"E  c #4A4A4A",
"W  c #545454",
"Q  c gray37",
"!  c #5A4C49",
"~  c #6E4042",
"^  c #77484C",
"/  c #695446",
"(  c #715640",
")  c #765A43",
"_  c #694E50",
"`  c #645C57",
"'  c #7C695A",
"]  c #694564",
"[  c #694569",
"{  c #644364",
"}  c #656565",
"|  c #6C6C6C",
" . c #746D6B",
".. c #756A64",
"X. c #747474",
"o. c #797979",
"O. c #7D7774",
"+. c #77706B",
"@. c #871219",
"#. c #94151C",
"$. c #A6171F",
"%. c #AE161D",
"&. c #B4161E",
"*. c #9F152E",
"=. c #8F193F",
"-. c #881F26",
";. c #A91720",
":. c #BB1822",
">. c #B51721",
",. c #B01537",
"<. c #892127",
"1. c #CA1924",
"2. c #C41823",
"3. c #CC353D",
"4. c #D1353D",
"5. c #C92731",
"6. c #9A5B3C",
"7. c #94583A",
"8. c #DF7B22",
"9. c #B25541",
"0. c #85654A",
"q. c #886E58",
"w. c #9E7957",
"e. c #9A7556",
"r. c #A07F55",
"t. c #A67E5D",
"y. c #AD6748",
"u. c #88797A",
"i. c #D34650",
"p. c #DA7276",
"a. c #EC9A1D",
"s. c #F3BA19",
"d. c #C79C3F",
"f. c #FFC20D",
"g. c #FEC211",
"h. c #A78259",
"j. c #AF8562",
"k. c #BA8C67",
"l. c #B48966",
"z. c #C4946C",
"x. c #CE9A6F",
"c. c #D09C6F",
"v. c #CC9A73",
"b. c #C89770",
"n. c #D19E73",
"m. c #DDA67C",
"M. c #E4AB7C",
"N. c #E0A778",
"B. c #171D86",
"V. c #1B229C",
"C. c #39399B",
"Z. c #232196",
"A. c #1C24A3",
"S. c #1D26AA",
"D. c #1E26B1",
"F. c #1E28B0",
"G. c #2528AC",
"H. c #443F8F",
"J. c #46408C",
"K. c #574D8A",
"L. c #818181",
"P. c #8D8D8D",
"I. c #979797",
"U. c #9B9B9B",
"Y. c #A59B9C",
"T. c #ACACAC",
"R. c gray65",
"E. c #B5B4B4",
"W. c #BBB9B9",
"Q. c #E28B91",
"!. c #E4B48D",
"~. c #E6BC9B",
"^. c #EBBCBE",
"/. c #D9C7B8",
"(. c #C5C5C5",
"). c #CBCBCB",
"_. c #C9C7C7",
"`. c #D3D3D3",
"'. c #DCDCDC",
"]. c #EEDCCE",
"[. c #E2DEDE",
"{. c #F5DEDE",
"}. c #F4E0D1",
"|. c #E1E1E1",
" X c #EBEBEB",
".X c #F3F3F3",
"XX c #FFFFFF",
"oX c #FCF7F6",
/* pixels */
"XXXXXXXXXXXXXXXXXXXXXXXXXXXXXXXXXXXXXXXXXXXXXXXXXXXXXXXXXXXXXXXXXXXXXXXXXXXXXXXXXXXXXXXXXXXXXXXXXXXXXXXXXXXXXXXXXXXXXXXXXXXXXXXX",
"XXXXXXXXXXXXXXXXXXXXXXXXXXXXXXXXXXXXXXXXXXXXXXXXXXXXXXXXXXXXXXXXXXXXXXXXXXXXXXXXXXXXXXXXXXXXXXXXXXXXXXXXXXXXXXXXXXXXXXXXXXXXXXXX",
"XXXXXXXXXXXXXXXXXXXXXXXXXXXXXXXXXXXXXXXXXXXXXXXXXXXXXXXXXXXXXXXXXXXXXXXXXXXXXXXXXXXXXXXXXXXXXXXXXXXXXXXXXXXXXXXXXXXXXXXXXXXXXXXX",
"XXXXXXXXXXXXXXXXXXXXXXXXXXXXXXXXXXXXXXXXXXXXXXXXXXXXXXXXXXXXXXXXXXXXXXXXXXXXXXXXXXXXXXXXXXXXXXXXXXXXXXXXXXXXXXXXXXXXXXXXXXXXXXXX",
"XXXXXXXXXXXXXXXXXXXXXXXXXXXXXXXXXXXXXXXXXXXXXXXXXXXXXXXXXXXXXXXXXXXXXXXXXXXXXXXXXXXXXXXXXXXXXXXXXXXXXXXXXXXXXXXXXXXXXXXXXXXXXXXX",
"XXXXXXXXXXXXXXXXXXXXXXXXXXXXXXXXXXXXXXXXXXXXXXXXXXXXXXXXXXXXXXXXXXXXXXXXXXXXXXXXXXXXXXXXXXXXXXXXXXXXXXXXXXXXXXXXXXXXXXXXXXXXXXXX",
"XXXXXXXXXXXXXXXXXXXXXXXXXXXXXXXXXXXXXXXXXXXXXXXXXXXXXXXXXXXXXXXXXXXXXXXXXXXXXXXXXXXXXXXXXXXXXXXXXXXXXXXXXXXXXXXXXXXXXXXXXXXXXXXX",
"XXXXXXXXXXXXXXXXXXXXXXXXXXXXXXXXXXXXXXXXXXXXXXXXXXXXXXXXXXXXXXXXXXXXXXXXXXXXXXXXXXXXXXXXXXXXXXXXXXXXXXXXXXXXXXXXXXXXXXXXXXXXXXXX",
"XXXXXXXXXXXXXXXXXXXXXXXXXXXXXXXXXXXXXXXXXXXXXXXXXXXXXXXXXXXXXXXXXXXXXXXXXXXXXXXXXXXXXXXXXXXXXXXXXXXXXXXXXXXXXXXXXXXXXXXXXXXXXXXX",
"XXXXXXXXXXXXXXXXXXXXXXXXXXXXXXXXXXXXXXXXXXXXXXXXXXXXXXXXXX'.`.`.`.`.'.XXXXXXXXXXXXXXXXXXXXXXXXXXXXXXXXXXXXXXXXXXXXXXXXXXXXXXXXXX",
"XXXXXXXXXXXXXXXXXXXXXXXXXXXXXXXXXXXXXXXXXXXXXXXXXXXXXXXXXXR         E .XXXXXXXXXXXXXXXXXXXXXXXXXXXXXXXXXXXXXXXXXXXXXXXXXXXXXXXXX",
"XXXXXXXXXXXXXXXXXXXXXXXXXXXXXXXXXXXXXXXXXXXXXXXXXXXXU.t t -.$.$.$.;.<.y t P.XXXXXXXXXXXXXXXXXXXXXXXXXXXXXXXXXXXXXXXXXXXXXXXXXXXX",
"XXXXXXXXXXXXXXXXXXXXXXXXXXXXXXXXXXXXXXXXXXXXXXXXXXU.^ s s &.3.Q.Q.i.>.s s ^ I. XXXXXXXXXXXXXXXXXXXXXXXXXXXXXXXXXXXXXXXXXXXXXXXXX",
"XXXXXXXXXXXXXXXXXXXXXXXXXXXXXXXXXXXXXXXXXXXXXX.X(.j f 1.1.4.p.XXXXQ.4.1.2.@.j W. XXXXXXXXXXXXXXXXXXXXXXXXXXXXXXXXXXXXXXXXXXXXXXX",
"XXXXXXXXXXXXXXXXXXXXXXXXXXXXXXXXXXXXXXXXXXXXXX(.# %.1.1.2.^.oXXXXXoX^.5.1.1.>.: U.oXXXXXXXXXXXXXXXXXXXXXXXXXXXXXXXXXXXXXXXXXXXXX",
"XXXXXXXXXXXXXXXXXXXXXXXXXXXXXXXXXXXXXXXXXXXXR._ @.2.1.>.u ! Q Q Q Q ! a ;.1.2.-.K P..XXXXXXXXXXXXXXXXXXXXXXXXXXXXXXXXXXXXXXXXXXX",
"XXXXXXXXXXXXXXXXXXXXXXXXXXXXXXXXXXXXXXXXXXXXX.: 1.1.;.g .             . s $.1.1.u E .XXXXXXXXXXXXXXXXXXXXXXXXXXXXXXXXXXXXXXXXXXX",
"XXXXXXXXXXXXXXXXXXXXXXXXXXXXXXXXXXXXXXXXXXXXX.: 1.>.i                 .   u >.1.u E  XXXXXXXXXXXXXXXXXXXXXXXXXXXXXXXXXXXXXXXXXXX",
"XXXXXXXXXXXXXXXXXXXXXXXXXXXXXXXXXXXXXXXXXXXXX.: 2.a +               % o   + a &.u E .XXXXXXXXXXXXXXXXXXXXXXXXXXXXXXXXXXXXXXXXXXX",
"XXXXXXXXXXXXXXXXXXXXXXXXXXXXXXXXXXXXXXXXXXXXX.: :.#   % o.L.O.B B +.K.L.q   + &.u E  XXXXXXXXXXXXXXXXXXXXXXXXXXXXXXXXXXXXXXXXXXX",
"XXXXXXXXXXXXXXXXXXXXXXXXXXXXXXXXXXXXXXXXXXXXX.5 $.7 6 b .X'./.M.M./.|.XX` 2 4 -.a E .XXXXXXXXXXXXXXXXXXXXXXXXXXXXXXXXXXXXXXXXXXX",
"XXXXXXXXXXXXXXXXXXXXXXXXXXXXXXXXXXXXXXXXXXXXX.  % z.m.!.XXW l M.M.B W .X~.m.v.2   E  XXXXXXXXXXXXXXXXXXXXXXXXXXXXXXXXXXXXXXXXXXX",
"XXXXXXXXXXXXXXXXXXXXXXXXXXXXXXXXXXXXXXXX XX.' B @ b.!.!.oXR z M.M.m E .X~.!.n.3 m q.} oXXXXXXXXXXXXXXXXXXXXXXXXXXXXXXXXXXXXXXXXX",
"XXXXXXXXXXXXXXXXXXXXXXXXXXXXXXXXXXXXXXXX[.q 0.l.+ 0.z.!.].' ) M.M.q.q.].!.z.e.$ 0.h.@ .XXXXXXXXXXXXXXXXXXXXXXXXXXXXXXXXXXXXXXXXX",
"XXXXXXXXXXXXXXXXXXXXXXXXXXXXXXXXXXXXXXXX'.y 0.w.  @ ( v.v.m.M.M.M.M.m.c.c.0.@   ) h.e .XXXXXXXXXXXXXXXXXXXXXXXXXXXXXXXXXXXXXXXXX",
"XXXXXXXXXXXXXXXXXXXXXXXXXXXXXXXXXXXXXXXXXX`.+.3 o w.( 6 6 k.M.M.M.M.k.r 6 B h.= = ! (.XXXXXXXXXXXXXXXXXXXXXXXXXXXXXXXXXXXXXXXXXX",
"XXXXXXXXXXXXXXXXXXXXXXXXXXXXXXXXXXXXXXXXXXXX).o.@ z.(     l N N N N l .   N m.= Q W.XXXXXXXXXXXXXXXXXXXXXXXXXXXXXXXXXXXXXXXXXXXX",
"XXXXXXXXXXXXXXXXXXXXXXXXXXXXXXXXXXXXXXXXXXXXXX).y j.) 3                 3 B j.b R.XXXXXXXXXXXXXXXXXXXXXXXXXXXXXXXXXXXXXXXXXXXXXX",
"XXXXXXXXXXXXXXXXXXXXXXXXXXXXXXXXXXXXXXXXXXXXXXXX Xw ) z.@               h.0.w `.XXXXXXXXXXXXXXXXXXXXXXXXXXXXXXXXXXXXXXXXXXXXXXXX",
"XXXXXXXXXXXXXXXXXXXXXXXXXXXXXXXXXXXXXXXXXXXXXXXXXX'.O.z l.k.k.k.k.k.k.k.m  .`.XXXXXXXXXXXXXXXXXXXXXXXXXXXXXXXXXXXXXXXXXXXXXXXXXX",
"XXXXXXXXXXXXXXXXXXXXXXXXXXXXXXXXXXXXXXXXXXXXXXXXXXXXo.$ e.w.w.w.w.w.w.w.6  .XXXXXXXXXXXXXXXXXXXXXXXXXXXXXXXXXXXXXXXXXXXXXXXXXXXX",
"XXXXXXXXXXXXXXXXXXXXXXXXXXXXXXXXXXXXXXXXXXXX.X X X Xo.+ X X X + + O X X . |  X X X XXXXXXXXXXXXXXXXXXXXXXXXXXXXXXXXXXXXXXXXXXXXX",
"XXXXXXXXXXXXXXXXXXXXXXXXXXXXXXXXXXXXXXXXXXXXL.- - - h *.Z.V.L &.>.P V.A.=.h 3 8 - ` .XXXXXXXXXXXXXXXXXXXXXXXXXXXXXXXXXXXXXXXXXXX",
"XXXXXXXXXXXXXXXXXXXXXXXXXXXXXXXXXXXXXXXX XP.K f d f J Y w.h.y.1.1.9.r.r.T J d d g n  .oXXXXXXXXXXXXXXXXXXXXXXXXXXXXXXXXXXXXXXXXX",
"XXXXXXXXXXXXXXXXXXXXXXXXXXXXXXXXXXXXXXXX[.j f %.;.1.U C.s.f.a.,.,.8.f.f.K.I 1.;.%.@.5 .XXXXXXXXXXXXXXXXXXXXXXXXXXXXXXXXXXXXXXXXX",
"XXXXXXXXXXXXXXXXXXXXXXXXXXXXXXXXXXXXXXXX{.3.i . + &.U C.s.f.d.G.G.h.g.g.K.I :.5 . > &.oXXXXXXXXXXXXXXXXXXXXXXXXXXXXXXXXXXXXXXXXX",
"XXXXXXXXXXXXXXXXXXXXXXXXXXXXXXXXXXXXXXXX|.r L.).(.j S G.J.J.C.D.D.C.H.H.G.G j E.).Y.4 .XXXXXXXXXXXXXXXXXXXXXXXXXXXXXXXXXXXXXXXXX",
"XXXXXXXXXXXXXXXXXXXXXXXXXXXXXXXXXXXXXX|.T.| W.XXoXX.H B.S.F.F.D.D.D.G.D.B.H X. XXX`.} E.`.XXXXXXXXXXXXXXXXXXXXXXXXXXXXXXXXXXXXXX",
"XXXXXXXXXXXXXXXXXXXXXXXXXXXXXXXXXXXXXXI.q  XXXXXXXXXL.& S.F.D.D.D.D.D.D.9 | XXXXXXXXXX- | XXXXXXXXXXXXXXXXXXXXXXXXXXXXXXXXXXXXXX",
"XXXXXXXXXXXXXXXXXXXXXXXXXXXXXXXXXXXXXXI.w |.XXXXXX.Xh.& S.D.D.D.D.D.D.D.9 X.XXXXXXXXXX- | XXXXXXXXXXXXXXXXXXXXXXXXXXXXXXXXXXXXXX",
"XXXXXXXXXXXXXXXXXXXXXXXXXXXXXXXXXXXXXXI.e  XXXXXoXo.H F S.D.D.D.D.D.D.D.B.H o. XXXXXXX- | XXXXXXXXXXXXXXXXXXXXXXXXXXXXXXXXXXXXXX",
"XXXXXXXXXXXXXXXXXXXXXXXXXXXXXXXXXXXXXXW.} T.E.E.T.- Z S.D.D.D.D.D.D.D.D.F.D ; U.E.E.E.Q U.XXXXXXXXXXXXXXXXXXXXXXXXXXXXXXXXXXXXXX",
"XXXXXXXXXXXXXXXXXXXXXXXXXXXXXXXXXXXXXXXX'.t o o o   A D.D.D.D.F.D.D.D.D.F.D   o o o o  XXXXXXXXXXXXXXXXXXXXXXXXXXXXXXXXXXXXXXXXX",
"XXXXXXXXXXXXXXXXXXXXXXXXXXXXXXXXXXXXXXXX.X`.).U.X F V.D.D.A 0 0 0 0 C S.F.A.F * o.).(.XXXXXXXXXXXXXXXXXXXXXXXXXXXXXXXXXXXXXXXXXX",
"XXXXXXXXXXXXXXXXXXXXXXXXXXXXXXXXXXXXXXXXXXXXXX(.X V.S.D.D.9 q o.o.t 9 S.F.D.A.& I.XXXXXXXXXXXXXXXXXXXXXXXXXXXXXXXXXXXXXXXXXXXXXX",
"XXXXXXXXXXXXXXXXXXXXXXXXXXXXXXXXXXXXXXXXXXXXXX(.X V.S.D.D.9 R XXXX} 9 A.D.F.A.& I.XXXXXXXXXXXXXXXXXXXXXXXXXXXXXXXXXXXXXXXXXXXXXX",
"XXXXXXXXXXXXXXXXXXXXXXXXXXXXXXXXXXXXXXXXXXXXXX(.X V.D.D.D.9 R XXXX} 9 S.D.D.A.& I.XXXXXXXXXXXXXXXXXXXXXXXXXXXXXXXXXXXXXXXXXXXXXX",
"XXXXXXXXXXXXXXXXXXXXXXXXXXXXXXXXXXXXXXXXXXXXT.` x { [ [ [ 8 R XXXX} 8 T { [ { x ! P..XXXXXXXXXXXXXXXXXXXXXXXXXXXXXXXXXXXXXXXXXXX",
"XXXXXXXXXXXXXXXXXXXXXXXXXXXXXXXXXXXXXXXX.X(.' k 6.6.6.6.6.2 R XXXX} 2 7.6.6.6.7.c ! E.XXXXXXXXXXXXXXXXXXXXXXXXXXXXXXXXXXXXXXXXXX",
"XXXXXXXXXXXXXXXXXXXXXXXXXXXXXXXXXXXXXXXX|.t x 7.6.6.6.6.6.3 R XXXX} 2 7.6.6.6.6.7.V ; .XXXXXXXXXXXXXXXXXXXXXXXXXXXXXXXXXXXXXXXXX",
"XXXXXXXXXXXXXXXXXXXXXXXXXXXXXXXXXXXXXXXX'.q @ , 1 1 1 1 1 . R XXXX} . = , , , , , #   .XXXXXXXXXXXXXXXXXXXXXXXXXXXXXXXXXXXXXXXXX",
"XXXXXXXXXXXXXXXXXXXXXXXXXXXXXXXXXXXXXXXX XP.o.o.o.o.o.o.o.o.I.XXXXT.X.O.O.O.o.o.o.o.o..XXXXXXXXXXXXXXXXXXXXXXXXXXXXXXXXXXXXXXXXX",
"XXXXXXXXXXXXXXXXXXXXXXXXXXXXXXXXXXXXXXXXXXXXXXXXXXXXXXXXXXXXXXXXXXXXXXXXXXXXXXXXXXXXXXXXXXXXXXXXXXXXXXXXXXXXXXXXXXXXXXXXXXXXXXXX",
"XXXXXXXXXXXXXXXXXXXXXXXXXXXXXXXXXXXXXXXXXXXXXXXXXXXXXXXXXXXXXXXXXXXXXXXXXXXXXXXXXXXXXXXXXXXXXXXXXXXXXXXXXXXXXXXXXXXXXXXXXXXXXXXX",
"XXXXXXXXXXXXXXXXXXXXXXXXXXXXXXXXXXXXXXXXXXXXXXXXXXXXXXXXXXXXXXXXXXXXXXXXXXXXXXXXXXXXXXXXXXXXXXXXXXXXXXXXXXXXXXXXXXXXXXXXXXXXXXXX",
"XXXXXXXXXXXXXXXXXXXXXXXXXXXXXXXXXXXXXXXXXXXXXXXXXXXXXXXXXXXXXXXXXXXXXXXXXXXXXXXXXXXXXXXXXXXXXXXXXXXXXXXXXXXXXXXXXXXXXXXXXXXXXXXX",
"XXXXXXXXXXXXXXXXXXXXXXXXXXXXXXXXXXXXXXXXXXXXXXXXXXXXXXXXXXXXXXXXXXXXXXXXXXXXXXXXXXXXXXXXXXXXXXXXXXXXXXXXXXXXXXXXXXXXXXXXXXXXXXXX",
"XXXXXXXXXXXXXXXXXXXXXXXXXXXXXXXXXXXXXXXXXXXXXXXXXXXXXXXXXXXXXXXXXXXXXXXXXXXXXXXXXXXXXXXXXXXXXXXXXXXXXXXXXXXXXXXXXXXXXXXXXXXXXXXX",
"XXXXXXXXXXXXXXXXXXXXXXXXXXXXXXXXXXXXXXXXXXXXXXXXXXXXXXXXXXXXXXXXXXXXXXXXXXXXXXXXXXXXXXXXXXXXXXXXXXXXXXXXXXXXXXXXXXXXXXXXXXXXXXXX",
"XXXXXXXXXXXXXXXXXXXXXXXXXXXXXXXXXXXXXXXXXXXXXXXXXXXXXXXXXXXXXXXXXXXXXXXXXXXXXXXXXXXXXXXXXXXXXXXXXXXXXXXXXXXXXXXXXXXXXXXXXXXXXXXX",
"XXXXXXXXXXXXXXXXXXXXXXXXXXXXXXXXXXXXXXXXXXXXXXXXXXXXXXXXXXXXXXXXXXXXXXXXXXXXXXXXXXXXXXXXXXXXXXXXXXXXXXXXXXXXXXXXXXXXXXXXXXXXXXXX",
"XXXXXXXXXXXXXXXXXXXXXXXXXXXXXXXXXXXXXXXXXXXXXXXXXXXXXXXXXXXXXXXXXXXXXXXXXXXXXXXXXXXXXXXXXXXXXXXXXXXXXXXXXXXXXXXXXXXXXXXXXXXXXXXX",
"XXXXXXXXXXXXXXXXXXXXXXXXXXXXXXXXXXXXXXXXXXXXXXXXXXXXXXXXXXXXXXXXXXXXXXXXXXXXXXXXXXXXXXXXXXXXXXXXXXXXXXXXXXXXXXXXXXXXXXXXXXXXXXXX",
"XXXXXXXXXXXXXXXXXXXXXXXXXXXXXXXXXXXXXXXXXXXXXXXXXXXXXXXXXXXXXXXXXXXXXXXXXXXXXXXXXXXXXXXXXXXXXXXXXXXXXXXXXXXXXXXXXXXXXXXXXXXXXXXX"
};
