/* XPM */
static char *result[] = {
/* columns rows colors chars-per-pixel */
"64 64 197 2 ",
"   c #1F4045",
".  c #1F4248",
"X  c #1F4E56",
"o  c #204146",
"O  c #21444A",
"+  c #29474C",
"@  c #23484F",
"#  c #29494E",
"$  c #2E544E",
"%  c #325449",
"&  c #224C53",
"*  c #2C4B50",
"=  c #25525C",
"-  c #2D535A",
";  c #225057",
":  c #355255",
">  c #355359",
",  c #3C5A5D",
"<  c #36575C",
"1  c #3A635B",
"2  c #235661",
"3  c #235964",
"4  c #295A66",
"5  c #245D6A",
"6  c #2B5D6A",
"7  c #285661",
"8  c #375C65",
"9  c #24606E",
"0  c #2C606D",
"q  c #3B616A",
"w  c #326E6F",
"e  c #35606B",
"r  c #3A736E",
"t  c #246372",
"y  c #2B6573",
"u  c #2C6976",
"i  c #2A6A7A",
"p  c #326571",
"a  c #316B7C",
"s  c #396A76",
"d  c #425C5F",
"f  c #52734C",
"g  c #4F6469",
"h  c #416269",
"j  c #556B6E",
"k  c #51676B",
"l  c #497F6A",
"z  c #457C6B",
"x  c #476D76",
"c  c #596E72",
"v  c #647679",
"b  c #4B8069",
"n  c #568967",
"m  c #5E8D63",
"M  c #528668",
"N  c #5E977D",
"B  c #699763",
"V  c #61997B",
"C  c #83AB5D",
"Z  c #88AF5B",
"A  c #8EB35A",
"S  c #9DBE56",
"D  c #97BA58",
"F  c #A2C255",
"G  c #2D6F81",
"H  c #316F81",
"J  c #2E7184",
"K  c #327285",
"L  c #32768A",
"P  c #34798E",
"I  c #38798D",
"U  c #367D93",
"Y  c #397E94",
"T  c #3C8194",
"R  c #3F8398",
"E  c #52808D",
"W  c #549082",
"Q  c #44869A",
"!  c #47869A",
"~  c #5A8999",
"^  c #6F8489",
"/  c #7E8A8C",
"(  c #738486",
")  c #71919D",
"_  c #688890",
"`  c #488BA1",
"'  c #518FA2",
"]  c #598FA1",
"[  c #5992A3",
"{  c #5D99AC",
"}  c #5B99B0",
"|  c #659BAC",
" . c #6898A7",
".. c #769CAC",
"X. c #7BAAB8",
"o. c #69A4BA",
"O. c #2DBDEF",
"+. c #33BEEF",
"@. c #39BFEF",
"#. c #5BB6D8",
"$. c #59ABCA",
"%. c #6AABC4",
"&. c #78AFC3",
"*. c #65B3CE",
"=. c #72B2CA",
"-. c #65BDDE",
";. c #75BCD8",
":. c #45BEEA",
">. c #5FBCE1",
",. c #3CC0EF",
"<. c #3BC2F0",
"1. c #44C2EF",
"2. c #4CC3EF",
"3. c #55C4EE",
"4. c #5CC6EE",
"5. c #45C5F1",
"6. c #5ACBF3",
"7. c #60C6EE",
"8. c #66C8EE",
"9. c #6CCAEF",
"0. c #6BC3E6",
"q. c #74CBEF",
"w. c #70C3E4",
"e. c #67CFF4",
"r. c #73CDF0",
"t. c #7CCEF0",
"y. c #7ED1F2",
"u. c #848F91",
"i. c #819499",
"p. c #869598",
"a. c #8C9FA4",
"s. c #909DA3",
"d. c #83A6AF",
"f. c #9BA1A2",
"g. c #9CA9AD",
"h. c #95A2A5",
"j. c #82ACB8",
"k. c #9FAFB5",
"l. c #96AAB0",
"z. c #85B0BE",
"x. c #8DB1BF",
"c. c #9DB2BB",
"v. c #A1A5A6",
"b. c #A3A7A8",
"n. c #A4A9AB",
"m. c #AAAEAF",
"M. c #A6ADB1",
"N. c #ACBABF",
"B. c #A7B4B6",
"V. c #B8BBBC",
"C. c #81B7CE",
"Z. c #94BAC5",
"A. c #94B8C7",
"S. c #84BAD0",
"D. c #A4B9C6",
"F. c #9FC1CB",
"G. c #82C2DC",
"H. c #9DC4D6",
"J. c #A8C3CE",
"K. c #AECCDB",
"L. c #B7CDD4",
"P. c #BBD3DB",
"I. c #82C6E2",
"U. c #84CAE6",
"Y. c #89CEEB",
"T. c #87CBE7",
"R. c #8BD1EE",
"E. c #96D4ED",
"W. c #85D2F1",
"Q. c #8BD2F0",
"!. c #83D8F6",
"~. c #9CDBF5",
"^. c #AEE2F7",
"/. c #B6E7F9",
"(. c #C3C6C6",
"). c #CCCECE",
"_. c #C1D6DD",
"`. c #C8D0D1",
"'. c #DCDEDE",
"]. c #D4D7D7",
"[. c #DEE9ED",
"{. c #D3E2E7",
"}. c #C5EAF9",
"|. c #CBEDFA",
" X c #D2EFFB",
".X c #D6F1FB",
"XX c #E2EBED",
"oX c #EEEFEF",
"OX c #E1E5E6",
"+X c #E4EEF1",
"@X c #E9EEF0",
"#X c #EDF2F4",
"$X c #E5F6FD",
"%X c #F2F4F5",
"&X c #F2F6F8",
"*X c #F4FAFC",
"=X c #FFFFFF",
/* pixels */
"O.O.O.O.O.O.O.O.O.O.O.O.O.O.O.O.O.O.O.O.O.O.O.O.O.O.O.O.O.O.O.O.O.O.O.O.O.O.O.O.O.O.O.O.O.O.O.O.O.O.O.O.O.O.O.O.O.O.O.O.O.O.O.O.",
"O.O.O.O.O.O.O.O.O.O.O.O.O.O.O.O.O.O.O.O.O.O.O.O.O.O.O.O.O.O.O.O.O.O.O.O.O.O.O.O.O.O.O.O.O.O.O.O.O.O.O.O.O.O.O.O.O.O.O.O.O.O.O.O.",
"O.O.O.O.O.O.O.O.O.O.O.O.O.O.O.O.O.O.O.O.O.O.O.O.O.O.O.O.O.O.O.O.O.O.O.O.O.O.O.O.O.O.O.O.O.O.O.O.O.O.O.O.O.O.O.O.O.O.O.O.O.O.O.O.",
"O.O.O.O.O.O.O.O.O.O.O.O.O.O.O.O.O.O.O.O.O.O.O.O.O.O.O.O.O.O.O.O.O.O.O.O.O.O.O.O.O.O.O.O.O.O.O.O.O.O.O.O.O.O.O.O.O.O.O.O.O.O.O.O.",
"O.O.O.O.O.O.O.O.O.O.O.O.O.O.O.O.O.O.O.O.O.O.O.O.O.O.O.O.O.O.O.O.O.O.O.O.O.O.O.O.O.O.O.O.O.O.O.O.O.O.O.O.O.O.O.O.O.O.O.O.O.O.O.O.",
"O.O.O.O.O.O.O.O.O.O.O.O.O.O.O.O.O.O.O.O.O.O.O.O.O.O.O.O.O.O.O.O.O.O.O.O.O.O.O.O.O.O.O.O.O.O.O.O.O.O.O.O.O.O.O.O.O.O.O.O.O.O.O.O.",
"O.O.O.O.O.O.O.O.O.O.O.O.O.O.O.O.O.O.O.O.O.O.O.O.O.O.O.O.O.O.O.O.O.O.O.O.O.O.O.O.O.O.O.O.O.O.O.O.O.O.O.O.O.O.O.O.O.O.O.O.O.O.O.O.",
"O.O.O.O.O.O.O.O.O.O.O.O.O.O.O.O.O.O.O.O.O.O.O.O.O.O.O.O.O.O.O.O.O.O.O.O.O.O.O.O.O.O.O.O.O.O.O.O.O.O.O.O.O.O.O.O.O.O.O.O.O.O.O.O.",
"O.O.O.O.O.O.O.O.O.O.O.O.O.O.O.O.O.O.O.O.O.O.O.O.O.O.O.O.O.O.O.O.O.O.O.O.O.O.O.O.O.O.O.O.O.O.O.O.O.O.O.O.O.O.O.O.O.O.O.O.O.O.O.O.",
"O.O.O.O.O.O.O.O.O.O.O.O.O.O.O.O.O.O.O.O.O.O.O.O.O.O.O.O.O.O.O.O.O.O.O.O.O.O.O.O.O.O.O.O.O.O.O.O.O.e.O.O.O.O.O.O.O.O.O.O.O.O.O.O.",
"O.O.O.O.O.O.O.O.O.O.O.O.O.O.O.O.O.O.O.O.O.O.O.O.O.O.O.O.O.O.O.O.O.O.O.O.O.O.O.O.O.O.O.O.O.O.O.O.;.L.,.O.O.O.O.O.O.O.O.O.O.O.O.O.",
"O.O.O.O.O.O.O.O.O.O.O.O.O.O.O.O.O.O.O.O.O.O.O.O.O.O.O.O.O.O.O.O.O.O.O.O.O.O.O.O.O.O.O.O.O.O.O.O.k.n.|.<.O.O.O.O.O.O.O.O.O.O.O.O.",
"O.O.O.O.O.O.O.O.O.O.O.O.O.O.O.O.O.O.O.O.O.O.O.O.O.O.O.O.O.O.O.O.O.O.O.O.O.O.O.O.O.O.O.O.O.O.O.+.g.n.=X5.O.O.O.O.O.O.O.O.O.O.O.O.",
"O.O.O.O.O.O.O.O.O.O.O.O.O.O.O.O.O.O.O.O.O.O.O.O.O.O.O.O.O.O.O.O.O.O.O.O.O.O.O.O.O.O.O.O.O.O.O.b.b.n.=X=X6.O.O.O.O.O.O.O.O.O.O.O.",
"O.O.O.O.O.O.O.O.O.O.O.O.O.O.O.O.O.O.O.O.O.O.O.O.O.O.O.O.O.O.O.O.O.O.O.O.O.O.O.O.O.O.O.O.O.O.*.b.b.n.).=X^.O.O.O.O.O.O.O.O.O.O.O.",
"O.,.,.,.@.O.O.O.O.O.O.O.O.@.@.O.O.O.@.@.<.O.O.O.O.O.O.O.+.@.@.@.O.O.O.@.@.<.@.+.O.O.O.O.O.A.M.b.b.b.b.%X=X6.+.O.O.O.O.O.@.@.+.O.",
"<.4.4.4.3.O.O.O.O.O.O.O.+.3.3.O.O.O.1.4.4.+.O.O.O.O.O.O.1.4.7.2.O.O.<.4.4.4.4.O.O.O.O.+.>.n.b.b.b.b.b.'.*X$X!.,.O.O.O.O.2.4.3.O.",
"@.4.7.7.4.O.O.+.:.@.,.,.1.4.4.O.O.O.2.7.7.+.O.O.@.@.@.@.2.7.7.2.<.+.,.7.7.7.4.O.O.O.O.:.m.b.b.b.b.b.b.b.oX=X=Xe.O.O.O.O.2.7.3.O.",
"2.7.7.7.4.O.O.1.7.4.7.4.4.7.4.+.+.+.2.7.7.@.O.O.3.4.4.4.4.7.7.4.3.3.4.7.7.7.7.O.O.O.O.S.n.n.b.b.b.b.b.b.oX=X=X X,.1.1.1.3.7.3.O.",
"7.7.7.7.4.O.O.1.7.7.7.7.7.7.7.7.7.7.4.7.7.+.O.O.4.7.7.7.4.7.7.7.4.4.7.7.7.7.4.O.O.O.#.g.b.b.b.b.b.b.b.b.oX=X=X=X~.9.4.4.7.4.3.O.",
"7.7.7.7.3.O.O.1.7.7.7.7.7.7.7.7.7.7.7.7.7.+.O.O.4.7.7.7.7.7.7.7.7.7.7.7.7.7.4.,.@.,.g.b.b.b.b.b.b.b.b.b.oX=X=X=X=X9.7.7.7.7.3.O.",
"7.7.7.7.4.O.O.1.7.7.7.7.7.7.7.7.7.7.7.7.7.@.O.+.4.7.7.7.7.7.7.7.7.7.7.7.7.7.7.7.4.H.n.b.b.b.b.b.b.b.b.b.(.=X=X=X=X}.r.7.7.7.4.3.",
"7.7.7.7.4.@.@.2.7.7.7.7.7.7.7.7.7.7.7.7.7.7.7.7.7.7.7.7.7.7.7.7.7.7.7.7.7.7.7.7.K.n.b.b.b.b.b.b.b.b.b.b.n.=X=X=X=X=X~.9.7.7.4.4.",
"7.7.7.7.4.4.4.7.7.7.7.7.7.7.7.7.7.7.7.7.7.7.7.7.7.7.7.7.7.7.7.7.7.7.7.7.7.7.7.;.k.b.b.b.b.b.b.b.b.b.b.b.n.=X=X=X=X=X*X/.8.7.7.7.",
"7.7.7.7.7.7.7.7.7.7.7.7.7.7.7.7.7.7.7.7.7.7.7.7.4.7.7.7.7.7.7.7.7.7.7.7.7.7.w.g.b.b.b.b.b.b.b.b.b.b.b.b.n.=X=X=X=X=X=X=X Xr.4.7.",
"7.7.7.7.7.7.7.7.7.7.7.7.7.7.7.7.7.7.7.7.7.7.7.7.7.7.7.7.7.7.7.7.7.7.7.7.8.q.D.n.b.b.b.b.b.b.b.b.b.b.b.b.n.=X=X=X=X=X=X=X=X~.9.7.",
"7.7.7.7.7.7.7.7.7.7.7.7.7.7.7.7.7.7.7.7.7.7.7.7.7.7.7.7.7.7.7.7.7.7.7.7.w.J.v.n.b.b.b.b.b.b.b.b.b.b.b.b.b.=X=X=X=X=X=X=X=X=X}.9.",
"7.7.7.7.7.7.7.7.7.7.7.7.7.7.7.7.7.7.7.7.7.7.7.7.7.7.7.7.7.7.7.7.7.7.7.7.A.b.n.v.b.b.b.b.b.b.b.b.b.b.b.v./ =X=X=X=X=X=X=X=X=X=X.X",
"7.7.7.t.8.7.7.7.7.7.7.7.7.7.7.7.7.7.7.7.7.7.7.7.7.7.7.7.7.7.7.7.7.7.7.7./ f.n.b.g.s.v.b.b.b.b.b.b.b.b.b.k =X=X=X=X=X=X=X=X=X=X=X",
"7.7.4.N.E.7.7.7.7.7.7.7.7.7.7.7.7.7.7.7.7.7.7.7.7.7.7.7.7.7.7.7.7.8.-.h * g u.) ) T ~ h.b.b.b.b.b.b.b.c # < %X=X=X=X=X=X` L.&X=X",
"7.4.;.b.@XW.4.7.7.7.7.7.7.7.7.7.7.7.7.7.7.7.7.7.7.7.7.7.7.7.7.7.7.-.E O o O + y I T U h.b.b.b.b.b.b.b.*   o #X=X=X=X=X=XQ Q z.=X",
"7.w.k.v.'..Xr.4.7.7.7.7.7.7.7.7.7.7.7.7.7.7.7.7.7.7.7.7.7.7.7.7.7.p @   o   4 K P U U s.b.b.b.b.b.b.j +     c OX=X=X=X=XQ 4 5 | ",
"w.c.b.b.m.=X^.9.7.7.7.7.7.7.7.7.7.7.7.7.7.7.7.7.7.7.7.7.7.7.7.7.$.&       @ i U U U U a.b.b.b.b.b.u.+         B.=X=X=X=XX.p & P ",
"Z.b.b.b.b.].=X}.7.7.7.7.7.7.7.7.7.7.7.7.7.7.7.7.7.7.7.7.7.7.7.7.> O     O 5 U U U U U a.b.b.b.b.v.:           + =X=X=X=X=X[ = i ",
"n.b.v.n.v.(.=X*XW.4.7.7.7.7.7.7.7.7.7.7.7.7.7.7.7.7.7.7.7.7.7.8.        . 5 U U U U U a.b.b.b.s.k +           + &X=X=X=X=X[ = @ ",
"b.b.n.v.n.(.=X=X|.r.7.7.7.7.7.7.7.7.7.7.4.7.7.7.7.7.7.7.7.7.8...        t t U U U U U Y b.b.g.: o             o U &X=X=X=X[ =   ",
"b.b.b.b.b.V.%X=X=X~.7.7.7.7.7.7.7.7.7.7.7.7.7.7.7.7.7.7.7.7.#.6       X t i U U U U U Y b.b.u.                & U P.&X=X=X&X .  ",
"b.b.b.b.b.b.'.=X=X$XW.7.7.7.7.7.7.7.7.7.7.7.7.7.7.7.7.7.7.7.C.8       t t P U U U Y U T b.b.,               o p U T [.=X=X=XP.+ ",
"b.b.b.b.b.b.'.=X=X=X*X~.7.7.7.7.7.7.7.7.7.7.7.7.7.7.7.7.7.7.x #   . 2 t t P U U U U U Y h.k +                 K U U { {.=X=X=X< ",
"b.b.b.b.b.b.{.=X=X=X=X=Xy.9.q.7.7.7.8.q.q.7.7.7.7.7.7.7.8.E.-   X 5 t t i P U U U U U P Q &                   K U U T Z.=X=X=XX.",
"b.b.b.b.b.s.].=X=X=X=X=X*X}.W.7.7.7.q.Q.Q.8.7.7.7.7.7.7.r.^ @   5 t t t i P U U U U U U i 3 .               o K U U U U [.=X=X=X",
"b.b.b.b.b.( g.%X=X=X=X{.=X*X~.7.7.7.t.Q.Q.8.7.7.9.r.9.9.t.      t t t t t L U U U U U U t t X                 K U U U U { +X=X=X",
"b.b.b.b.f.+ : `.=X=X=X' Z.+XP.U.q.9.t.Q.Q.8.7.7.Q.Q.Q.Y.o.o o @ t t t t i P U U U U U U t t 2                 K U U i L U J.#X=X",
"b.b.b.b.v   + / =X=X=X' 0 ~ ! =.Y.Q.Q.Q.Q.8.7.7.Q.Q.Q.w.8 O O 2 t t t t t L U U U U U U t t t X               K U U i L U Y | *X",
"b.b.b.p.:     , OX=X=XA.7 y Y } I.Q.Q.Q.Q.8.7.7.Q.Q.Q.J.8   . 3 t t t t t L U U U U U U t t t 5 @ .           K U U L P U U U X.",
"v.b.v.k         N.=X=X=Xy = Y Y &.Q.Q.Q.Q.q.9.9.Q.Q.Q.x *   X 3 t t t t t L U U U T U U t t t t 9 &           K U U U K U U U T ",
"h.b.j o         E +X=X=XE @ Y U ` Y.Q.Q.Q.Q.Q.Q.Q.Q.Q.> O   = t t t t t t L U U U U U U t t t t t 5           K U U U 7 U U U U ",
"h.v O         & L X.#X=X_.x 4 U Y =.Y.Q.Q.Q.Q.Q.Q.T.~ @   O 5 t t t t t i U U U U U U U i t t t t t 3 .       a U U P 2 P U U U ",
"_ ,           & Y ! J.=X=X) - U U Q G.Q.Q.Q.Q.Q.T. .*     5 t t t t t t G P U i P U U U P t t t t t t ;       & U U U y P U U U ",
"a @           & Y Y ! +X=X[.& a U U } T.Q.Q.Q.Q.] -   o X t t t t t t t P U U = J U U U T t t t t t t t X       U U U J 2 L U U ",
"i =           ; U U U | =X*Xy y U L R %.Q.Q.Q.Q.-     & 5 t t t t t t t P U U . J U U U U t t t t t t t 3     . i U U U O K U U ",
"i 9 o         & U L G U P.=Xd.= J U U ` T.Q.Q.O     . 5 t t t 5 t t t t U U U X J U U T T t t t t t t t t         U U U O K U U ",
"t t 3 .       ; U P L U T z.z.6 H L L U %.I.s       t t t t t t t t t t P U U . J U U U t t t t t t t t t .     o P U U O L U U ",
"i t t 3 .     ; U U K I U U U i 6 U J U U ~ -   . & t t t t t t t t t t U U i . J U U U t t t t t t t t t 2       i P U = L U U ",
"i t t t ;     & U U y L U U U P 6 U L G =       3 t t t t t t t t t t t P U . i U U U U t t t t t t t t t t       O L U L U U U ",
"J t t t t X   . H U G K U U U U H J L i       & 5 t t t t t t t t t t t U U . L U U U P t t t t t t t t t t .       K U U i L U ",
"L t t t t 5 .   y U U & U U U U L i p @     . t t t t t t t t t t t 9 t L P X P U U U t t t t t t t t t t t O       K U U t K U ",
"J t t t t t &   @ K U @ U U U P U 8 &     O = t t t t t t t t t t t t t L 3 L U U U U i t t t t t t t t t t .       K U U 4 K U ",
"t t t t t t 2 .   i Y = U U U G u         2 9 t t t t t t t t t t t t t L 2 U U T U P t t t t t t t t 9 t t .       K U U G P U ",
"i t t t t t 5 X   7 U G U U U s &       & 5 t t t t t t t t t t t t t t P G U U U T t t t t t t t t t t t t O       K U U U U U ",
"t t t t t t 9 @   = P U J U U 8 @       t t t t t t t t t t t t t t t J U U U U U U t t t t t t t t t t t t         K U U U U U ",
"t t p i t t 9 @   = P U y U ; .     . 2 t t t t y l n 9 t t t t t t t U i L U U T i t t t t t t t t t t t t .     ; L U U U U U ",
"t z C B 9 t 9 @   & U U J G       . 2 5 t t t t n D F B l r t t t t i U P U U U L t b z t t t t t 9 t t t t O o   y P Y U U U U ",
"r S F F C Z m $   7 P U I 1 f %   3 9 t t w M b A F F S F S n l t H P U U U W V u n F S B b b n w t t t t t % f % P U U U U T N "
};
