/* XPM */
static char *_a8f3dba6a0e48bc8fbf849c7a2f6227GRpvSMv0YS32bXZW[] = {
/* columns rows colors chars-per-pixel */
"64 64 156 2 ",
"   c #235976",
".  c #265D7B",
"X  c #295E7D",
"o  c #2D617D",
"O  c #32637F",
"+  c #38647F",
"@  c #38687F",
"#  c #285E80",
"$  c #2E6181",
"%  c #336581",
"&  c #396783",
"*  c #356881",
"=  c #3C6B84",
"-  c #3D6D89",
";  c #3E7089",
":  c #406E86",
">  c #426D89",
",  c #457186",
"<  c #44728A",
"1  c #4A758D",
"2  c #4C788E",
"3  c #547D8F",
"4  c #4B7690",
"5  c #4D7991",
"6  c #537C93",
"7  c #567E98",
"8  c #568095",
"9  c #5A8295",
"0  c #578199",
"q  c #5C849A",
"w  c #5F889E",
"e  c #61869A",
"r  c #648A9D",
"t  c #688D9F",
"y  c #668AA1",
"u  c #6B8EA1",
"i  c #708FA3",
"p  c #6D92A4",
"a  c #6F92A8",
"s  c #7394A5",
"d  c #7295A8",
"f  c #7897A9",
"g  c #7798AA",
"h  c #7C9CAC",
"j  c #7F9EB0",
"k  c #819DAC",
"l  c #809FB1",
"z  c #80A0AD",
"x  c #85A2B2",
"c  c #8AA5B3",
"v  c #8CA9B6",
"b  c #8EA9B9",
"n  c #91ABB7",
"m  c #93ADBA",
"M  c #95B0BB",
"N  c #9AB2BD",
"B  c #9EB5C2",
"V  c #A0B5C1",
"C  c #A4BAC5",
"Z  c #ADBEC6",
"A  c #A7BDC8",
"S  c #ABBEC8",
"D  c #ADC1CB",
"F  c #B2C4CD",
"G  c #B8C7CF",
"H  c #B5C8CF",
"J  c #B4C6D0",
"K  c #B9C7D2",
"L  c #B6C9D1",
"P  c #BCCCD3",
"I  c #BED1D7",
"U  c #C1CFD7",
"Y  c #C4D3D7",
"T  c #C4D3D9",
"R  c #C9D5DB",
"E  c #CCD9DE",
"W  c #CEDAE1",
"Q  c #D3DDE2",
"!  c #D8DFE5",
"~  c #D7E2E4",
"^  c #DBE4E6",
"/  c #DDE6E9",
"(  c #DEE8EA",
")  c #E1E7EB",
"_  c #E4EBED",
"`  c #E9EFEF",
"'  c #EBF0EC",
"]  c #F0F2ED",
"[  c #E7EEF1",
"{  c #E9EEF1",
"}  c #EFF5F5",
"|  c #EDF2F3",
" . c #F2F4F3",
".. c #F0F4F5",
"X. c #F3F5F4",
"o. c #F1F7F7",
"O. c #F3F7F6",
"+. c #F2F6F7",
"@. c #F4F5F7",
"#. c #F5F7F6",
"$. c #F2F6F6",
"%. c #F3F8F4",
"&. c #F6F8F5",
"*. c #F6F8F6",
"=. c #FBFCF7",
"-. c #F9FAF7",
";. c #F1F5F8",
":. c #F3F7F8",
">. c #F5F6F8",
",. c #F6F7F9",
"<. c #F7F7F9",
"1. c #F3F6F9",
"2. c #F9F7FA",
"3. c #F7F9F8",
"4. c #F7F8FA",
"5. c #F5FAFA",
"6. c #F9F9F9",
"7. c #F9FBF8",
"8. c #F8FAF9",
"9. c #F9FBFA",
"0. c gray98",
"q. c #FBFBFB",
"w. c #FCFBF9",
"e. c #F8FDF9",
"r. c #FAFCF9",
"t. c #FBFDFA",
"y. c #FAFCFB",
"u. c #FCFDF8",
"i. c #FCFCFA",
"p. c #FDFCFA",
"a. c #FDFDFB",
"s. c #FEFDFB",
"d. c #F9FAFC",
"f. c #FBFDFC",
"g. c #FAFEFD",
"h. c #FBFCFE",
"j. c gray99",
"k. c #FDFDFD",
"l. c #FEFCFD",
"z. c #FDFFFC",
"x. c #FCFEFD",
"c. c #FEFEFC",
"v. c #FEFFFD",
"b. c #FFFFFD",
"n. c #FCFCFE",
"m. c #FCFDFF",
"M. c #FDFDFF",
"N. c #FFFDFE",
"B. c #FDFFFE",
"V. c #FCFFFF",
"C. c #FEFEFE",
"Z. c #FEFEFF",
"A. c #FFFEFF",
"S. c #FEFFFF",
"D. c white",
"F. c #FFFFFF",
/* pixels */
"D.D.D.D.D.D.D.D.D.D.D.D.D.D.D.D.D.D.D.D.D.D.D.D.D.D.D.D.D.D.D.D.D.D.D.D.D.D.D.D.D.D.D.D.D.D.D.D.D.D.D.D.D.D.D.D.D.D.D.D.D.D.D.D.",
"D.D.D.D.D.D.D.D.D.D.D.D.D.D.D.D.D.D.D.D.D.D.D.D.D.D.D.D.D.D.D.D.D.D.D.D.D.D.D.D.D.D.D.D.D.D.D.D.D.D.D.D.D.D.D.D.D.D.D.D.D.D.D.D.",
"D.D.D.D.D.D.D.D.D.D.D.D.D.D.D.D.D.D.D.D.D.D.D.D.D.D.D.D.D.D.D.D.D.D.D.D.a.D.D.D.D.D.D.D.D.D.D.D.D.D.D.D.D.D.D.D.D.D.D.D.D.D.D.D.",
"D.D.D.D.D.D.D.D.D.D.D.D.D.D.D.D.D.D.D.D.D.D.D.D.D.D.D.D.6.| ! E R Y E ~ | y.D.D.D.D.D.D.D.D.D.D.D.D.D.D.D.D.D.D.D.D.D.D.D.D.D.D.",
"D.D.D.D.D.D.D.D.D.D.D.D.D.D.D.D.D.D.D.D.D.D.D.a.:.Q C f 8 < * o o o O * ; 9 f C Q o.D.D.D.D.D.D.D.D.D.D.D.D.D.D.D.D.D.D.D.D.D.D.",
"D.D.D.D.D.D.D.D.D.D.D.D.D.D.D.D.D.D.D.D.D.D.[ V q o . X : 9 d k c x l d q - X . o q C [ D.D.D.D.D.D.D.D.D.D.D.D.D.D.D.D.D.D.D.D.",
"D.D.D.D.D.D.D.D.D.D.D.D.D.D.D.D.D.D.D.a.^ p X X * d P [ a.D.D.D.D.D.D.D.D.a.[ P s & . o s ) j.D.D.D.D.D.D.D.D.D.D.D.D.D.D.D.D.D.",
"D.D.D.D.D.D.D.D.D.D.D.D.D.D.D.D.D.a.o.c * . 2 F [ D.a.a.D.D.D.D.D.D.D.D.D.D.D.D.D.[ D 1 . * x >.D.D.D.D.D.D.D.D.D.D.D.D.D.D.D.D.",
"D.D.D.D.D.D.D.D.D.D.D.D.D.D.D.D.6.Y 1 X 5 L 6.D.D.D.D.D.D.D.D.D.D.D.D.D.D.D.D.D.D.D.D.>.F 2 . 1 R D.D.D.D.D.D.D.D.D.D.D.D.D.D.D.",
"D.D.D.D.D.D.D.D.D.D.D.D.D.D.D.>.N * * c | a.D.D.D.D.D.D.D.D.D.D.D.D.D.D.D.D.D.D.D.D.D.D.D.` v % * V 6.D.D.D.D.D.D.D.D.D.D.D.D.D.",
"D.D.D.D.D.D.D.D.D.D.D.D.D.D.6.h o > P D.D.D.D.D.D.D.D.D.D.D.D.D.D.D.D.D.D.D.D.D.D.D.D.D.D.D.D.P = X b 5.D.D.D.D.D.D.D.D.D.D.D.D.",
"D.D.D.D.D.D.D.D.D.D.D.D.a.@.p X e [ g.D.D.D.D.D.D.D.D.D.D.D.D.D.D.D.D.D.D.D.D.D.D.D.D.D.D.D.a.g.[ 6 # i 6.D.D.D.D.D.D.D.D.D.D.D.",
"D.D.D.D.D.D.D.D.D.D.D.D.y.h X u ' g.D.D.D.D.D.D.D.D.D.D.D.D.D.D.D.D.D.D.D.D.D.D.D.D.D.D.D.D.D.D.D.o.9 . h 5.D.D.D.D.D.D.D.D.D.D.",
"D.D.D.D.D.D.D.D.D.D.D.6.M . 9  .D.D.D.D.D.D.D.D.D.D.D.D.D.D.D.D.D.D.D.D.D.D.D.D.D.D.D.D.D.D.D.D.D.D.} q X n 6.D.D.D.D.D.D.D.D.D.",
"D.D.D.D.D.D.D.D.D.D.D.K O 1 ) a.D.D.D.D.D.D.D.D.D.D.D.D.D.D.D.D.D.D.D.D.D.D.D.D.D.D.D.D.D.D.D.D.D.D.D._ 2 * Y D.D.D.D.D.D.D.D.D.",
"D.D.D.D.D.D.D.D.D.D._ 4 % R D.D.D.D.D.D.D.6.D.D.D.D.D.D.D.D.D.D.D.D.D.D.D.D.D.D.D.D.D.D.6.D.D.D.D.D.D.D.Y * < o.D.D.D.D.D.D.D.D.",
"D.D.D.D.D.D.D.D.D.6.s X N a.D.D.D.D.D.6.h < F y.D.D.D.D.D.D.D.D.D.D.D.D.D.D.D.D.D.a.5.D - z d.D.D.D.D.D.=.B X f y.D.D.D.D.D.D.D.",
"D.D.D.D.D.D.D.D.a.^ X q :.D.D.D.D.D.D.d.< X X 0 R D.D.D.D.D.D.D.D.D.D.D.D.D.D.D.y.E 7 X X 1 :.D.D.D.D.D.D.} 1 o Q a.D.D.D.D.D.D.",
"D.D.D.D.D.D.D.D.6.t o Y D.D.D.D.D.D.D.a.S X X X X p Q D.D.D.D.D.D.D.D.D.D.D.a.Q u X O = . F D.D.D.D.D.D.D.D.R X u g.D.D.D.D.D.D.",
"D.D.D.D.D.D.D.D.! o p &.D.D.D.D.D.D.D.D.] < X X X . - c ) a.D.D.D.D.D.a.6./ x = X r H & = o.D.D.D.D.D.D.D.a.6.6 X Q a.D.D.D.D.D.",
"D.D.D.D.D.D.D.a.v . U a.D.D.D.D.D.D.D.D.a.c X X X X X . < C >.D.D.D.D.@.C < . 1 F %.A X b D.D.D.D.D.D.D.D.D.g.L X c y.D.D.D.D.D.",
"D.D.D.D.D.D.D.>.+ = 6.D.D.D.D.D.D.D.D.D.D.~ * X X X X X . . , P >.o.P < . - V 6.g.g.6 = [ D.D.D.D.D.D.D.D.D.D.o.< < ` D.D.D.D.D.",
"D.D.D.D.D.D.a.U . x a.D.D.D.D.D.D.D.D.D.D.y.x X X X X X X X . X 6 6 o o m | D.D.D.P X j D.D.D.D.D.D.D.D.D.D.D.D.k . P D.D.D.D.D.",
"D.D.D.D.D.D.D.c o W D.D.D.D.D.D.D.D.D.D.D.D.^ X X X X X X X X X X % h _ D.D.D.D.6.9 * ` a.D.D.D.D.D.D.D.D.D.D.D.E . x D.D.D.D.D.",
"D.D.D.D.D.D.:.w - } D.D.D.D.D.D.D.D.D.D.D.D.D.p X X X X X X X X X 1 5.a.D.D.D.D.R o s g.D.D.D.D.D.D.D.D.D.D.D.D.5.= q g.D.D.D.D.",
"D.D.D.D.D.D._ - 6 y.D.D.D.D.D.D.D.D.D.D.D.D.a.R X X X X X X X X X 5 6.a.D.D.D.D.r . R D.D.D.D.D.D.D.D.D.D.D.D.D.D.9 < o.D.D.D.D.",
"D.D.D.D.D.D.Q X s y.D.D.D.D.D.D.D.D.D.D.D.D.D.4.9 X X X X X X X X 5 y.D.D.D.D./ X 9 6.D.D.D.D.D.D.D.D.D.D.D.D.D.D.h % _ D.D.D.D.",
"D.D.D.D.D.g.P . m D.D.D.D.D.D.D.D.D.D.D.D.D.D.a.Y . X X X X X X X 5 y.D.D.D.6.g X T D.D.D.D.D.D.D.D.D.D.D.D.D.D.l.m X Q D.D.D.D.",
"D.D.D.D.D.a.D   Z D.D.D.D.D.D.D.D.D.D.D.D.D.D.D.g.1 X X X X X X X 5 6.D.D.D.^ % 6 @.D.D.D.D.D.D.D.D.D.D.D.D.D.D.D.C X T D.D.D.D.",
"D.D.D.D.D.D.C   G D.D.D.D.D.D.D.D.D.D.D.D.D.D.D.D.D X X X X X X X 5 y.D.D.D.v . F D.D.D.D.D.D.D.D.D.D.D.D.D.D.D.D.D X G D.D.D.D.",
"D.D.D.D.D.D.C   P D.D.D.D.D.D.D.D.D.D.D.D.D.D.D.D.o.< X X X X X X 5 6.D.D.| * = @.D.D.D.D.D.D.D.D.D.D.D.D.D.D.D.D.D X F D.D.D.D.",
"D.D.D.D.D.y.A   F D.D.D.D.D.D.D.D.D.D.D.D.D.D.D.D.y.n X X . X X X 5 y.D.D.V X N D.D.D.D.D.D.D.D.D.D.D.D.D.D.D.D.D.A X P D.D.D.D.",
"D.D.D.D.D.y.J . N D.D.D.D.D.D.D.D.D.D.D.D.D.D.D.D.D./ = X X X X X 5 y.D.y.1 - } D.D.D.D.D.D.D.D.D.D.D.D.D.D.D.D.D.N X E D.D.D.D.",
"D.D.D.D.D.D.R . k a.D.D.D.D.D.D.D.D.D.D.D.D.D.D.D.D.6.v X X X X X 5 6.a.D . c a.D.D.D.D.D.D.D.D.D.D.D.D.D.D.D.D.D.x o ) D.D.D.D.",
"D.D.D.D.D.D.) & e 6.D.D.D.D.D.D.D.D.D.D.D.D.D.D.D.D.D.^ X X X X X 5 -.&.6 * ` D.D.D.D.D.D.D.D.D.D.D.D.D.D.D.D.D.D.y = | D.D.D.D.",
"D.D.D.D.D.D.} 6 < :.D.D.D.D.D.D.D.D.D.D.D.D.D.D.D.D.D.D.s X X X X 5 e.E $ g a.D.D.D.D.D.D.D.D.D.D.D.D.D.D.D.D.g.g.< 6 5.D.D.D.D.",
"D.D.D.D.D.D.D.h % ^ D.D.D.D.D.D.D.D.D.D.D.D.D.D.D.D.D.D.Q X X X X 5 6.q . E D.D.D.D.D.D.D.D.D.D.D.D.D.D.D.D.D.D.( X f D.D.D.D.D.",
"D.D.D.D.D.D.D.S . B D.D.D.D.D.D.D.D.D.D.D.D.D.D.D.D.D.D.-.9 X . X 4 ^ X q D.D.D.D.D.D.D.D.D.D.D.D.D.D.D.D.D.D.a.N . A D.D.D.D.D.",
"D.D.D.D.D.D.D.[ X 4 D.D.D.D.D.D.D.D.D.D.D.D.D.D.D.D.D.D.a.E X X X 4 p X R D.D.D.D.D.D.D.D.D.D.D.D.D.D.D.D.D.D.5.6 & / D.D.D.D.D.",
"D.D.D.D.D.a.D.D.u X ^ D.D.D.D.D.D.D.D.D.D.D.D.D.D.D.D.D.D.6.6 . . % % 3 :.D.D.D.D.D.D.D.D.D.D.D.D.D.D.D.D.D.D.W % d 6.D.D.D.D.D.",
"D.D.D.D.D.D.D.D.P X v 6.D.D.D.D.D.D.D.D.D.D.D.D.D.D.D.D.D.D.F X X X . L D.D.D.D.D.D.D.D.D.D.D.D.D.D.D.D.D.D.6.s . P D.D.D.D.D.D.",
"D.D.D.D.D.D.D.D.o.1 = ! D.D.D.D.D.D.D.D.D.D.D.D.D.D.D.D.D.D.@.4 . X : 6.D.D.D.D.D.D.D.D.D.D.D.D.D.D.D.D.D.D.) X 1 6.D.D.D.D.D.D.",
"D.D.D.D.D.D.D.D.D.L . k j.D.D.D.D.D.D.D.D.D.D.D.D.D.D.D.D.D.g.m . . B a.D.D.D.D.D.D.D.D.D.D.D.D.D.D.D.D.D.6.p X H a.D.D.D.D.D.D.",
"D.D.D.D.D.D.D.D.D.y.8 O L D.D.D.D.D.D.D.D.D.D.D.D.D.D.D.D.D.D.) y y o.D.D.D.D.D.D.D.D.D.D.D.D.D.D.D.D.D.D.P X e &.D.D.D.D.D.D.D.",
"D.D.D.D.D.D.D.D.D.D.Y * 1 [ D.D.D.D.D.D.D.D.D.D.D.D.D.D.D.D.D.D.o.>.D.D.D.D.D.D.D.D.D.D.D.D.D.D.D.D.D.D.) 6 % ~ a.D.D.D.D.D.D.D.",
"D.D.D.D.D.D.D.D.D.D.g.v . s 6.D.D.D.D.D.D.D.D.D.D.D.D.D.D.D.D.D.D.D.a.D.D.D.D.D.D.D.D.D.D.D.D.D.D.D.D.j.a X m D.D.D.D.D.D.D.D.D.",
"D.D.D.D.D.D.D.D.D.D.D.o.u X v 6.D.D.D.D.D.D.D.D.D.D.D.D.D.D.D.D.D.D.D.D.D.D.D.D.D.D.D.D.D.D.D.D.D.D.6.v . t 2.D.D.D.D.D.D.D.D.D.",
"D.D.D.D.D.D.D.D.D.D.D.D.[ , . Z 6.D.D.D.D.D.D.D.D.D.D.D.D.D.D.D.D.D.D.D.D.D.D.D.D.D.D.D.D.D.D.D.a.a.N o 4 ) D.D.D.D.D.D.D.D.D.D.",
"D.D.D.D.D.D.D.D.D.D.D.D.a._ 2 X v >.D.D.D.D.D.D.D.D.D.D.D.D.D.D.D.D.D.D.D.D.D.D.D.D.D.D.D.D.D.D.o.x . 2 _ D.D.D.D.D.D.D.D.D.D.D.",
"D.D.D.D.D.D.D.D.D.D.D.D.D.a./ 2 o s [ D.D.D.D.D.D.D.D.D.D.D.a.a.o.o.6.a.D.D.D.D.D.D.D.D.D.D.D.` a X 8 ^ D.D.D.D.D.D.D.D.D.D.D.D.",
"D.D.D.D.D.D.D.D.D.D.D.D.D.D.y.^ e X 6 W D.D.D.D.D.D.D.D.D.D.} b q 6 d P 5.D.D.D.D.D.D.D.D.D.E 6 X e [ a.D.D.D.D.D.D.D.D.D.D.D.D.",
"D.D.D.D.D.D.D.D.D.D.D.D.D.D.D.D.o.v $ X c [ g.D.D.D.D.D.D.D.e % q u 1 & ` D.D.D.D.D.D.D._ x X % n 6.D.D.D.D.D.D.D.D.D.D.D.D.D.D.",
"D.D.D.D.D.D.D.D.D.D.D.D.D.D.D.D.D.6.R < X = N } a.a.D.a.D.;.X v d.6.@.~ a.D.D.D.D.D.| m @ . , R a.a.D.D.D.D.D.D.D.D.D.D.D.D.D.D.",
"D.D.D.D.D.D.D.D.D.D.D.D.D.D.D.D.D.D.D.-.C = . o u T } a.a.o.X p [ -.a.D.D.a.g.| I u o X = A o.g.D.D.D.D.D.D.D.D.D.D.D.D.D.D.D.D.",
"D.D.D.D.D.D.D.D.D.D.D.D.D.D.D.D.D.D.D.D.a.[ D e % X - e 5.a.h o * 6 h Q y.` 9 = X O e D | a.D.D.D.D.D.D.D.D.D.D.D.D.D.D.D.D.D.D.",
"D.D.D.D.D.D.D.D.D.D.D.D.D.D.D.D.D.D.D.D.D.D.D.6.Q m w 6 D.a.5.L x y % = ) o.< q m E 6.y.D.D.D.D.D.D.D.D.D.D.D.D.D.D.D.D.D.D.D.D.",
"D.D.D.D.D.D.D.D.D.D.D.D.D.D.D.D.D.D.D.D.D.D.D.D.D.D.D.g.a.g.D.D.6.a.R . F 6.D.D.a.D.a.D.D.D.D.D.D.D.D.D.D.D.D.D.D.D.D.D.D.D.D.D.",
"D.D.D.D.D.D.D.D.D.D.D.D.D.D.D.D.D.D.D.D.D.D.D.D.D.D.D.D.D.&.c [ D.6.F . P a.D.D.D.D.D.D.D.D.D.D.D.D.D.D.D.D.D.D.D.D.D.D.D.D.D.D.",
"D.D.D.D.D.D.D.D.D.D.D.D.D.D.D.D.D.D.D.D.D.D.D.D.D.D.D.D.D.P o X > = . 2 | D.D.D.D.D.D.D.D.D.D.D.D.D.D.D.D.D.D.D.D.D.D.D.D.D.D.D.",
"D.D.D.D.D.D.D.D.D.D.D.D.D.D.D.D.D.D.D.D.D.D.D.D.D.D.D.D.D.D.Q B x x A } D.D.D.D.D.D.D.D.D.D.D.D.D.D.D.D.D.D.D.D.D.D.D.D.D.D.D.D.",
"D.D.D.D.D.D.D.D.D.D.D.D.D.D.D.D.D.D.D.D.D.D.D.D.D.D.D.D.D.D.D.D.D.D.D.D.D.D.D.D.D.D.D.D.D.D.D.D.D.D.D.D.D.D.D.D.D.D.D.D.D.D.D.D.",
"D.D.D.D.D.D.D.D.D.D.D.D.D.D.D.D.D.D.D.D.D.D.D.D.D.D.D.D.D.D.D.D.D.D.D.D.D.D.D.D.D.D.D.D.D.D.D.D.D.D.D.D.D.D.D.D.D.D.D.D.D.D.D.D.",
"D.D.D.D.D.D.D.D.D.D.D.D.D.D.D.D.D.D.D.D.D.D.D.D.D.D.D.D.D.D.D.D.D.D.D.D.D.D.D.D.D.D.D.D.D.D.D.D.D.D.D.D.D.D.D.D.D.D.D.D.D.D.D.D.",
"D.D.D.D.D.D.D.D.D.D.D.D.D.D.D.D.D.D.D.D.D.D.D.D.D.D.D.D.D.D.D.D.D.D.D.D.D.D.D.D.D.D.D.D.D.D.D.D.D.D.D.D.D.D.D.D.D.D.D.D.D.D.D.D."
};
