/* XPM */
static char *result[] = {
/* columns rows colors chars-per-pixel */
"64 64 246 2 ",
"   c #070405",
".  c #0A0505",
"X  c #0C0805",
"o  c #0C030A",
"O  c #0D0B0C",
"+  c #06050B",
"@  c #130B06",
"#  c #160B0B",
"$  c #19130C",
"%  c #0A0516",
"&  c #0B0D13",
"*  c #080516",
"=  c #160B17",
"-  c #141313",
";  c #191616",
":  c #1A1817",
">  c #191619",
",  c #1C1B1A",
"<  c #16121A",
"1  c #0F181F",
"2  c #27160A",
"3  c #201E1E",
"4  c #261718",
"5  c #260915",
"6  c #23201E",
"7  c #382416",
"8  c #373015",
"9  c #0A0824",
"0  c #160C28",
"q  c #1B1725",
"w  c #160A34",
"e  c #19143B",
"r  c #0C0B2E",
"t  c #211E21",
"y  c #2C1D24",
"u  c #251F39",
"i  c #331E33",
"p  c #1C2429",
"a  c #1F353D",
"s  c #1A2138",
"d  c #242222",
"f  c #2A2323",
"g  c #232229",
"h  c #292F2A",
"j  c #352B25",
"k  c #24213E",
"l  c #223339",
"z  c #3A3132",
"x  c #112117",
"c  c #533414",
"v  c #4B2E11",
"b  c #673C1F",
"n  c #4A1C3C",
"m  c #463427",
"M  c #4B2E30",
"N  c #663C2F",
"B  c #314237",
"V  c #5F4118",
"C  c #6C441D",
"Z  c #4B4331",
"A  c #794B2B",
"S  c #78512E",
"D  c #7D5533",
"F  c #7C5D3C",
"G  c #6C4B32",
"H  c #796039",
"J  c #180E48",
"K  c #1B1256",
"L  c #241B46",
"P  c #221857",
"I  c #301A5F",
"U  c #252146",
"Y  c #253A46",
"T  c #2C2853",
"R  c #150D63",
"E  c #19116F",
"W  c #1B1577",
"Q  c #0F077D",
"!  c #211364",
"~  c #26196A",
"^  c #231278",
"/  c #2A0F75",
"(  c #2E2A75",
")  c #1A2674",
"_  c #5C2341",
"`  c #462A47",
"'  c #6D364A",
"]  c #473169",
"[  c #752E6B",
"{  c #5F1C70",
"}  c #394974",
"|  c #37506A",
" . c #376872",
".. c #786645",
"X. c #505B7B",
"o. c #684168",
"O. c #744766",
"+. c #477070",
"@. c #546C5B",
"#. c #94451A",
"$. c #875327",
"%. c #8C5C36",
"&. c #825D3B",
"*. c #8B5C3B",
"=. c #A15E2E",
"-. c #8E6238",
";. c #9B6435",
":. c #93643B",
">. c #98663A",
",. c #986638",
"<. c #966D32",
"1. c #BA672D",
"2. c #A56B3A",
"3. c #A9713D",
"4. c #B6743D",
"5. c #B76D35",
"6. c #BA4E13",
"7. c #C57B3E",
"8. c #CA7B3C",
"9. c #C4773B",
"0. c #CC6C2B",
"q. c #C05416",
"w. c #8D277E",
"e. c #815E40",
"r. c #9B6B42",
"t. c #9B6D49",
"y. c #AB7545",
"u. c #B77A47",
"i. c #A66B44",
"p. c #904F75",
"a. c #A4597F",
"s. c #C37B42",
"d. c #C97C41",
"f. c #778B75",
"g. c #C2803C",
"h. c #AF8149",
"j. c #92906A",
"k. c #BBB478",
"l. c #C4824A",
"z. c #CA854A",
"x. c #CC8E4E",
"c. c #EA9D4C",
"v. c #E49C55",
"b. c #CDA25F",
"n. c #F1AD59",
"m. c #DA9363",
"M. c #E39D60",
"N. c #D1AC6A",
"B. c #E6B770",
"V. c #DDCA7E",
"C. c #EAD17C",
"Z. c #281786",
"A. c #311A9A",
"S. c #2E1E8B",
"D. c #2F2695",
"F. c #30308B",
"G. c #2E19A7",
"H. c #331CA7",
"J. c #3217B9",
"K. c #2911B0",
"L. c #3525A9",
"P. c #3C28B8",
"I. c #3431AD",
"U. c #1C0992",
"Y. c #511B97",
"T. c #4D369A",
"R. c #6531A6",
"E. c #344E8B",
"W. c #3D668E",
"Q. c #3849B1",
"!. c #3D68A1",
"~. c #554696",
"^. c #6E5790",
"/. c #49678E",
"(. c #4759AC",
"). c #684AAE",
"_. c #4467A7",
"`. c #4B7BAB",
"'. c #4A65BC",
"]. c #547BB9",
"[. c #6373A4",
"{. c #3617C7",
"}. c #3817D8",
"|. c #3D23DD",
" X c #3623CB",
".X c #3817E0",
"XX c #4917D1",
"oX c #681EC1",
"OX c #4125C6",
"+X c #5235D0",
"@X c #7227CA",
"#X c #4557C3",
"$X c #6D52D0",
"%X c #6073C5",
"&X c #785EEC",
"*X c #785BE6",
"=X c #795CF5",
"-X c #7961F5",
";X c #5978C4",
":X c #8E2BA4",
">X c #BF2AB5",
",X c #875786",
"<X c #B35E9A",
"1X c #8358A1",
"2X c #BA4BA9",
"3X c #B571AE",
"4X c #9A6694",
"5X c #C8649D",
"6X c #D16FB1",
"7X c #CA53BA",
"8X c #A132CC",
"9X c #8965F2",
"0X c #A674CD",
"qX c #D57DC7",
"wX c #508D98",
"eX c #4B84AB",
"rX c #4B92AF",
"tX c #4885B6",
"yX c #5096B8",
"uX c #59A6B9",
"iX c #5BB7B3",
"pX c #69B7B8",
"aX c #7CCEA8",
"sX c #76CBAD",
"dX c #5B90C8",
"fX c #5AA1C4",
"gX c #66A9C6",
"hX c #75A6D8",
"jX c #6E95D3",
"kX c #AEB8A4",
"lX c #88CFB2",
"zX c #D3CA94",
"xX c #E5CC85",
"cX c #F6D68B",
"vX c #EBD792",
"bX c #F9E494",
"nX c #F8F99B",
"mX c #938FD8",
"MX c #9582E5",
"NX c #A39BE9",
"BX c #A193ED",
"VX c #ADA6ED",
"CX c #B7B2EB",
"ZX c #D981CB",
"AX c #D683D5",
"SX c #A9E6C9",
/* pixels */
"d d d d d d d p 6 d d d d d d t d p 3 d d d d d d d d d 6 d d d d d p 3 6 6 d d d 6 d 6 6 d 6 d d t d d d d d d d d 3 6 d d d d ",
"d d d f d d d d d d d d d d d d d d 6 d t d 6 q d 6 d 6 p d d 6 p d d d d d d d d d d p d d 3 p d d d d d d d d t d p d d d f d ",
"d d d f f d d d d d d d d d d d d 3 d d d 6 d d d d p 6 d d d d 6 d 6 d d 6 d 6 d d d d d d d d 3 d d t 3 6 d t d d d d d d d d ",
"d d f d d d f d d d d d d 6 q d d d d d d d d d d d 6 d d d d d 6 d d d d q d d 6 p d d d t 6 d d d d d p d d d d d 3 d d d d d ",
"f d d d d f h d d d d d d d 6 d 6 d d d d d d 6 d d d d d d d d d d d d d d d d d d d d d d d d d d d d d d d d d 6 d t d d d d ",
"d d d d d d d d d d 6 6 d d d d 3 p d d d d d d d d d d d d d d d d h d d d d f d f d g d d d d 3 p t d 3 p d d d d d d d d d d ",
"d d d f d d d d d d p 3 d d p 6 d d d d d d d p d d d f f d d f f d d d d d d f d d f d d f f d 6 d d d 6 d d t d d d d p d d d ",
"g f d d d g d d d d d d d d d 6 d t d d d t d d d d f d d d d g f d d d d d f d d d d d d d d f d d d d d 6 d d d t d 6 3 d d t ",
"f d h d d d d d f d d d d d d d d d d d d d d d d d d f d d d d d d d d d f d f d d d f h d d d d d d d d d p d d d d d d d d p ",
"d f d d d f d d d d 6 3 t d t d d t d t 6 d d d d d d d f d f d f d d f f d d d d d d d d d d d d d d 6 d 6 6 6 3 p d d t d 6 3 ",
"d d d d d d d d d d d p d , d d d p d , , , , , 3 6 d 6 d f f d d d d d f d d d d d d d d d d d d d 6 d d d d d 6 d d t d d d d ",
"d f d d d d f d d d d d d d d d d d d O           3 f d d d d d d f d d d d d f d d d d d d d d d d 3 p d d d d d 6 d d t d 6 d ",
"d d f d d d d d d d d d d d d p , - < ~.T.X.| } | p > , f 6 f d d d f d d d d d d h d d d d f d d 3 d d d q 6 d d d d d d d d d ",
"d d d d f d d d q d d d d d t d 1 & * *X=X%X].tXtXp O - f 6 f d d f d d d d d d d d f d f d g d d d d d d d d d p d t d d d p d ",
"d d d d f d d d 6 d d d d , - ~.$X).$X-X=XBXmXtX].W. .+.F.U t t d f d d d d d h d d f d d d d d d d d d d d d 6 3 6 d d d d 3 d ",
"g d d f d f d f d d d d d 1 * ).&X&X&X&X&X9X9X].].tXfXgX+X~ - 4 d d d d d d d d f d d d d d f d d d 6 q t d d d d d t d d 6 d d ",
"d d f d f d d f d f d d , X.mXNXVXVXVXNXBX&X*XP 1 tXyXfXG.F.| | f d d d d d d d d d f d d f f d d 6 d d 6 d d d d d d d d d d d ",
"d d d d d d d d d d d d - ^.NXCXCXVXCXVXBX XOXL + `.yXuXD.(.]._.g d d d d f d d f d d d d d d d d d d d 3 p d 3 d d d 6 6 d d d ",
"d h d f d d d d d d # y 1X( u 4X0X$X&X9X XJ.L.%   + 1 | gXgXgX(.r q q g d f f d d d d d d d d d 6 6 d 3 d d d t d d d q 6 d p 6 ",
"d d d d d d f d d p O = qX3X,X= * 9 T.9X! w % 0 [ / ^ D.#X;XhXL.Z.G.D.0 f d d d d d d f d f h d d p d d d 6 d d t d d d d d d d ",
"f d d f d d d p z ,XO.,XAXqX6X4X4 o 0 L =   { Y.8XXX{.{.{.K.I.F.SX[.L.L.u y d d d d d d d d d d d 6 d d 6 d d d d d d 6 d d d d ",
"d d d d f d d O z ZXAXAXqX6X5Xn [ 2Xn # [ 0 2X8X}. XJ * K R tXrXlX@.9 P.J > d d f d d d d d d d d d d d t d d d 6 d d q d d 6 p ",
"d d d d d d d @ ` ZXqX4X6XqX5X<X6X7Xw.{ >X:XXXXXS.U d 6 p s tX!.W } /.{.^ e t d d d d d d d d d d d p 6 d d p d d d d d d d 6 d ",
"g d d d f d f O ` 6X3X5 p.6X_ 5 :XR.:X@XoX@XG.Z.U d d p d p Y Y E.`.hXR {.A.+ , d d d h d d f d d d 6 6 6 d 3 6 p d d d t d d 6 ",
"d d d d d d d : O   o o o _ 6X6X5Xw.` L ~ Z.L p d d d d d p ; ; sXpXgXE. X X+ : f d d d d d f d d d d d d d 6 p 6 6 d d 6 d t d ",
"d d h d d f d d - + <Xp.p.p.a.2 y y y t g g d d d f d d d d ; X +.wXgXdX{.{.* : d f f d d f g d d 6 d 6 d d d d d d 6 6 d d d d ",
"d f d d d d d d - . 5XM o . # d t d t t d d d d d d g d 3 : p B  . ./.'.}.J.* - d d d d d d f d d d p 3 d t d d d d d p 6 3 d 3 ",
"f d d d f d h d , 5 5X' - - , d f d d g d f d d d d d g <   p  .iX!.e P J.H.% , d d d d d d d d d d d d d 6 d d d d d d d p d d ",
"d f d d d f d d d f ' M g f d f d d f d d d f d d d I D.R  .wXwXiX'.K.A.w 0 g d d d d d d d d f d d d d d d d d d d d d d d d d ",
"d d d f d d d d d d f f f f d f d d d f f d p h g d ( I.) eXuXiXgX#X}.J.% , d d d d d h f d d d d d d f d d d d d d d d d d d t ",
"d d d d g f d d d d f d g d f d d d g d d d d U k < < W.uXuX_.Q K.J.{.K.* , d d f d d f d d d d d f d d d f f d f d f d 3 p d d ",
"d f d d d d d d d d d d d d d d f d d f d , & ( (._.!.`.tXuX].F.K.{.Z.P < p d f d d d g d d d f d d f d d f d d d d d d d d 6 d ",
"f d d d f d d f d f d f d h d d 6 h 6 6 g Z M F._.aXsXE.Q dXgXjXG.Z.e q f f d d d d f d f d f d d d h d d f d d d f d d d 6 d d ",
"d d d d d d d d d d d d d d d d f 6 6 , l kXkX'.E.aXlXE.U.I.P.P.A.0 , d d d d f d d d f d d d d d d d d d d f d d d d f f p 6 d ",
"f d d d d d d d d d d f d d d f f 6 h B f.j.wXpXrXiXsX`.Q.Q.F.J L d d d f d f d d f h d d d d d f d d d d d d d d f d d d d d d ",
"d d h d d d d f d d d d d d d d 6 ; B f.zXh x pXuXrXrXrXrXeX .& = d f d d d d d d d d d d f d d d d d d d h d d d d d g d d d d ",
"d d d d f d d g d d d d d d d d f @ ..vXbXV.k.h a l a a l & - d 6 d f d d d d d d d d d d f d d f d d f d d d d d d d f d d d d ",
"g f d f d d d d d d d h d d f d @ zX..bXbXN.b.%.%.%.&.m O 6 3 d f d d d d d d d d d d d d d d f d d d d d d d d f d d d d d d d ",
"d d d d d d d d d d f d d f 3 , 2 2 ..bXbXx.7.9.d.s.A m : 6 d 6 6 f d d d d d d d d d d d d d d g d d d d d d d d d d d d d d p ",
"d d d d d d d f d d f d d d ,   bXj.H C.x.s.s.9.d.s.# - f d d f f 6 d f d d h d d f d d f g d d f d d f g f d f f d d d f d 6 6 ",
"p d d d d d t d d d d d d d :   bXC.<.c V c C h.A # f d d f d 6 6 f d d d 6 f d f d d d d f d d d d d f f d d d d f d d d d h d ",
"6 d d d 6 d d d d 6 d d d d , X b.b.n.c.4.u.7.u.G   d d d d f 6 d d d d d d d d d d d f f d d f d d d d d d d f d d d d d d d d ",
"d d d 6 d d d p p 6 d 6 d 6 m cX<.7.n.c.9.8.2.# ( * f d d f d d d 6 d f f d d d d d d d d d d d d d g d d d d d f d d d d d d d ",
"d d p 3 t d 6 3 d d d d 6 6 $ r.>.h.n.c.9.9.i.% S.* d 6 d d d 6 d d d d d d d d f f f d d f d d d d d f d d d d d d d f d f d f ",
"d d d t d 6 d d d d d d 6 : $ V.h.u.n.x.u.A 7 # L.S.i d d d d d 6 d d d d d d d d d d d d d d f h d d d f d f f d f d d f d d d ",
"t d d d d d t d d 6 d 6 6 x $ nX<.V c c b A ;.:.U / H.S.& d f f - $ - ; - $ - y d d d d f d d 6 d d d f d d d d g d d d d d d f ",
"d d d d 6 3 d d d d d d 6 6   8 y.h.4.l.d.8.8.d.m I |.J.R S.L < P ! E ! ! J O & O X X O + O , 3 d d d f h d d d d d d f d d d g ",
"p d d 6 d p d d d 6 d 6 6 : X h.g.C v v s.9.8.d.%.o.G.Y.R.OX^ w  X}.}.}.}.J.W W W W E K O & F.I > , f d d d d d d d d d d d f d ",
"3 d d 6 d d p 6 d d d d d ,   v.M.B.vXcXd.8.7.8.z.i.= N m.L T.$XA./ ^ ^ Z. X|.XX|.|..XT.5 i ).] & & d f d d f d f d d d f p d d ",
"6 d d 6 6 3 6 d d d d d d , X m.M.B.bXbXd.8.7.u.v *.z.x.u.v [ ^.i # $ # # 0 e w w w w t.z.x.d.G @ # d d d d d d d f d d d d d d ",
"d d d d d d d t d d d d d d f @ G cXc.c.c.v.z.c ,.8.z.4.D 7.A v u.s.l.l.z.4.4.3.4.2.i.2.2.2.>.u.l.t.7 d f d d g d d d d d f d f ",
"d d t d d 6 d d 3 d 6 d f d d : j F 2.4.i.r.C y.;.2.2.,.%.b.C.xXu.2.2.7.s.s.4.5.4.4.4.2.-.-.>.<.-.:.u.; , d d f g f d f d d d d ",
"t d t d d d d d d d d d d d d d , $ r.>.F F &.3.;.-.:.&.S B.xXxXh.;.,.S D :.:.-.%.%.%.%.S G l.-.G S h.@ : f d d d d d d d 6 d 6 ",
"d 6 d d d 6 d t d d t d f d d d d d o o e.-.&.*.&.&.&.2   r.,.;.,.<.*.. 2 &.&.7 2 2 2 2     @ X   7 t.4 t d d d d d d 6 d p d d ",
"d d 6 d d 6 d d 3 d d d d 6 d d d d d d .             3 d -         O d : .   , q > > > q d d d d ,   f f d d d d d p 6 d 6 d d ",
"p 3 d d p 3 d d p d d d d p d d d d d d t , 3 , 3 3 3 t d t , 3 t 3 3 d p d , d d t t t d d d d d d d d d d d f d d d d 6 3 d d ",
"d d d d 3 p 6 d 3 6 d d d d d d d p 3 6 d d 6 d d d d d d d 6 3 f d 6 d d d d d d d p d d d d d d d d 6 d d d d d d 3 j =.c y g ",
"d 3 d d 6 d d d 6 d 6 q 6 d d d d 3 d d d d 3 p d t d d d d d p d d 3 p d 6 d t d t 3 6 t d d d t d d 3 d t d d j m m 0.1.$.d d ",
"p 3 d d d d d t d d d d d d p 6 d d d d d d t d 6 6 d d d d d d d d t d d 6 d d d d d 6 d d d d d d d p d 6 6 d d m 0.6.1.h d d ",
"d 6 3 d d d d d d d d d d 6 d 6 d d t d 6 d d d d d t d d d d t d d d d d q d d d d d 6 d d 3 d d d d t d d 3 p j 4.q.1.j N d d ",
"d d t d 6 d d d d 6 d 6 d p 3 6 d t d d d d 6 3 p 6 d d 6 d d d t d d 6 d d d d d d 3 p d d d d d d d p d 6 d d #.0.,.7 j m d d ",
"d d d d d d t d d d d 3 d d d d d d d 6 d d d p 3 d d d d d d d 6 d d 6 d 6 p d d d d d d 6 q d t d 6 3 d d d d #.b f p d d d d ",
"d d d d 3 6 d d t d d p t d d d 3 6 d d d 3 6 d d d 3 d d t 3 p d d d p d d 6 6 d d p d d d d d d d d d 6 6 d d q d d d d d d 6 ",
"p d d 3 p d d d d d d d d d d 6 p d d 6 d d d d t d d d d d 6 d d d d d 6 6 d d d 6 6 d 6 d d 6 t d d 6 p d d d d d d 3 d d d d "
};
