/* XPM */
static char *_314e12c73604fc09fdcf3851538a997IUdPEiNt50TD72Ll[] = {
/* columns rows colors chars-per-pixel */
"64 64 151 2 ",
"   c #2B5F77",
".  c #265C7B",
"X  c #295E7C",
"o  c #325F7E",
"O  c #27607B",
"+  c #2B607D",
"@  c #32647F",
"#  c #36687F",
"$  c #295E80",
"%  c #2D6281",
"&  c #346581",
"*  c #386682",
"=  c #356983",
"-  c #3B6A84",
";  c #3D6D88",
":  c #426E8A",
">  c #407087",
",  c #44728A",
"<  c #4A758D",
"1  c #4C798F",
"2  c #4B7690",
"3  c #4D7A90",
"4  c #537D93",
"5  c #5A7F95",
"6  c #5D7F98",
"7  c #568096",
"8  c #5B8196",
"9  c #5C8499",
"0  c #60859A",
"q  c #668A9D",
"w  c #6A8D9F",
"e  c #6D919F",
"r  c #6A8EA2",
"t  c #6D91A4",
"y  c #7293A6",
"u  c #7495A9",
"i  c #7897A9",
"p  c #7B9CAD",
"a  c #7DA1AD",
"s  c #819EAD",
"d  c #83A1AF",
"f  c #86A2B2",
"g  c #8AA6B4",
"h  c #8EA9B5",
"j  c #8EAAB9",
"k  c #92A9B7",
"l  c #93ACB9",
"z  c #93B0B8",
"x  c #9AB2BE",
"c  c #9FB8BF",
"v  c #A0B4BF",
"b  c #9CB5C1",
"n  c #9EB9C4",
"m  c #A1B7C2",
"M  c #A4B9C5",
"N  c #ADBDC6",
"B  c #AABFCA",
"V  c #ACC0C7",
"C  c #AEC2CB",
"Z  c #B2C4CD",
"A  c #B6C8CF",
"S  c #B4C6D0",
"D  c #B7C9D0",
"F  c #BCCCD3",
"G  c #BFD1D7",
"H  c #C0CED6",
"J  c #C3D1D6",
"K  c #C8D3D7",
"L  c #C4D3D9",
"P  c #CAD6DC",
"I  c #CED8DE",
"U  c #D0DBDE",
"Y  c #CCD9E2",
"T  c #D4DEE3",
"R  c #D6E0E4",
"E  c #DAE3E6",
"W  c #D7E2E8",
"Q  c #DDE5E9",
"!  c #DFE9EB",
"~  c #E1E6E9",
"^  c #E5EAED",
"/  c #E6EBEE",
"(  c #E4E9EC",
")  c #E5EDEF",
"_  c #E4EAED",
"`  c #EAEEEF",
"'  c #EBF1EF",
"]  c #E8EDF0",
"[  c #EAEFF2",
"{  c #EBEFF2",
"}  c #EAEEF1",
"|  c #EBF1F1",
" . c #EEF2F5",
".. c #EEF3F4",
"X. c #F3F5F4",
"o. c #F3F4F6",
"O. c #F2F6F7",
"+. c gray96",
"@. c #F4F6F5",
"#. c #F4F5F7",
"$. c #F5F7F6",
"%. c #F2F5F6",
"&. c #F4F8F7",
"*. c #F6F8F7",
"=. c #F5F8F7",
"-. c #F9FAF7",
";. c #F3F7F8",
":. c #F6F7F9",
">. c #F4F6F8",
",. c #F7F9F8",
"<. c #F7F8FA",
"1. c #F6FAFB",
"2. c #F6F9FA",
"3. c #F8F8F8",
"4. c #F9F9F9",
"5. c #F8FAF9",
"6. c #FAFAF8",
"7. c #FBFBF9",
"8. c #FBFBFB",
"9. c #FBFDF8",
"0. c #FBFDFA",
"q. c #FAFCFB",
"w. c #FDFCF8",
"e. c #FDFEF9",
"r. c #FCFCFA",
"t. c #FDFCFA",
"y. c #FDFDFB",
"u. c #FFFCFB",
"i. c #FEFDFB",
"p. c #F8FCFD",
"a. c #FBFDFC",
"s. c #FBFCFE",
"d. c gray99",
"f. c #FDFDFD",
"g. c #FDFFFC",
"h. c #FCFEFD",
"j. c #FEFEFC",
"k. c #FFFEFC",
"l. c #FEFFFD",
"z. c #FFFFFD",
"x. c #FCFDFF",
"c. c #FDFDFF",
"v. c #FFFDFE",
"b. c #FDFFFE",
"n. c #FCFFFF",
"m. c #FEFEFE",
"M. c #FEFEFF",
"N. c #FFFEFF",
"B. c #FEFFFF",
"V. c white",
"C. c #FFFFFE",
/* pixels */
"V.V.V.V.V.V.V.V.V.V.V.V.V.V.V.V.V.V.V.V.V.V.V.V.V.V.V.V.V.V.V.V.V.V.V.V.V.V.V.V.V.V.V.V.V.V.V.V.V.V.V.V.V.V.V.V.V.V.V.V.V.V.V.V.",
"V.V.V.V.V.V.V.V.V.V.V.V.V.V.V.V.V.V.V.V.V.V.V.V.V.V.V.V.V.V.V.V.V.V.V.V.V.V.V.V.V.V.V.V.V.V.V.V.V.V.V.V.V.V.V.V.V.V.V.V.V.V.V.V.",
"V.V.V.V.V.V.V.V.V.V.V.V.V.V.V.V.V.V.V.V.V.V.V.V.V.V.V.V.V.V.V.V.V.V.V.V.V.V.V.V.V.V.V.V.V.V.V.V.V.V.V.V.V.V.V.V.V.V.V.V.V.V.V.V.",
"V.V.V.V.V.V.V.V.V.V.V.V.V.V.V.V.V.V.V.V.V.V.V.V.V.V.V.V.V.V.V.V.V.V.V.V.V.V.V.V.V.V.V.V.V.V.V.V.V.V.V.V.V.V.V.V.V.V.V.V.V.V.V.V.",
"V.V.V.V.V.V.V.V.V.V.V.V.V.V.V.V.V.V.V.V.V.V.V.V.V.V.V.V.V.V.V.V.V.V.V.V.V.V.V.V.V.V.V.V.V.V.V.V.V.V.V.V.V.V.V.V.V.V.V.V.V.V.V.V.",
"V.V.V.V.V.V.V.V.V.V.V.V.V.V.V.V.V.V.V.V.V.V.V.V.V.V.V.V.q.) T J D Z F K T ] a.V.r.V.V.V.V.V.V.V.V.V.V.V.V.V.V.V.V.V.V.V.V.V.V.V.",
"V.V.V.V.V.V.V.V.V.V.V.V.V.V.V.V.V.V.V.V.V.V.V.V.*.E B y ; . . . . . . . . . - i C ! 1.V.V.V.V.V.V.V.V.V.V.V.V.V.V.V.V.V.V.V.V.V.",
"V.V.V.V.V.V.V.V.V.V.V.V.V.V.V.V.V.V.V.V.V.r.X.C 3 X X . - 0 a x B S B x p 8 - . X % 8 Z >.a.V.V.V.V.V.V.V.V.V.V.V.V.V.V.V.V.V.V.",
"V.V.V.V.V.V.V.V.V.V.V.V.V.V.V.V.V.V.V.V.( f - . ; i A ( 8.V.r.V.r.r.r.q.V.r.q.( Z i - . - j ] V.V.V.V.V.V.V.V.V.V.V.V.V.V.V.V.V.",
"V.V.V.V.V.V.V.V.V.V.V.V.V.V.V.V.V.V.*.m , . 2 x ~ 8.V.V.V.V.V.V.V.V.V.V.V.V.V.V.V.q.E x < X 3 C ;.V.V.V.V.V.V.V.V.V.V.V.V.V.V.V.",
"V.V.V.V.V.V.V.V.V.V.V.V.V.V.V.V.V.( e . * l ] q.a.V.V.V.V.V.V.V.V.V.V.V.V.V.V.V.V.V.V.r.` g & + y ] V.V.V.V.V.V.V.V.V.V.V.V.V.V.",
"V.V.V.V.V.V.V.V.V.V.V.V.V.V.V.V.K , X q ( V.V.V.V.V.V.V.V.V.V.V.V.V.V.V.V.V.V.V.V.V.V.V.V.a.E 0 X : T q.V.V.V.V.V.V.V.V.V.V.V.V.",
"V.V.V.V.V.V.V.V.V.V.V.V.V.V.V.F & + v 1.q.V.V.V.V.V.V.V.V.V.V.V.V.V.V.V.V.V.V.V.V.V.V.V.V.V.V.$.l . @ I r.V.V.V.V.V.V.V.V.V.V.V.",
"V.V.V.V.V.V.V.V.V.V.V.V.V.r.Z + * F V.V.V.V.V.V.V.V.V.V.V.V.V.V.V.V.V.V.V.V.V.V.V.V.V.V.V.V.V.V.a.F & & F r.V.V.V.V.V.V.V.V.V.V.",
"V.V.V.V.V.V.V.V.V.V.V.V.a.D % : Y V.V.V.V.V.V.V.V.V.V.V.V.V.V.V.V.V.V.V.V.V.V.V.V.V.V.V.V.V.V.V.V.q.J = - F V.V.V.V.V.V.V.V.V.V.",
"V.V.V.V.V.V.V.V.V.V.V.V.T & = K V.V.V.V.V.V.V.V.V.V.V.V.V.V.V.V.V.V.V.V.V.V.V.V.V.V.V.V.V.V.V.V.V.V.r.Z & ; ~ V.V.V.V.V.V.V.V.V.",
"V.V.V.V.V.V.V.V.V.V.V. .8 O F r.V.V.V.V.V.V.V.V.V.V.V.V.V.V.V.V.V.V.V.V.V.V.V.V.V.V.V.V.V.V.V.V.V.V.V.r.M + 4 $.V.V.V.V.V.V.V.V.",
"V.V.V.V.V.V.V.V.V.V.r.f X g V.V.V.V.V.V.V.V.V.V.V.V.V.V.V.V.V.V.V.V.V.V.V.V.V.V.V.V.V.V.V.V.V.V.V.V.V.V.8.p X c 8.V.V.V.V.V.V.V.",
"V.V.V.V.V.V.V.V.V.V.T + 4 *.V.V.V.V.V.V.V.V.V.V.V.V.V.V.V.V.V.V.V.V.V.V.V.V.V.V.V.V.V.V.V.V.8.V.V.V.V.V.V.$.: . Q V.V.V.V.V.V.V.",
"V.V.V.V.V.V.V.V.V.1.9 @ G V.V.V.V.V.V.V.V.V.V.V.V.V.V.V.V.V.V.V.V.V.V.V.V.V.V.V.V.V.V.a.T d 3 J V.V.V.V.V.V.J + y >.V.V.V.V.V.V.",
"V.V.V.V.V.V.V.V.V.J % i 1.V.V.V.V.V.V.V.V.V.V.V.V.V.V.V.V.V.V.V.V.V.V.V.V.V.V.r.r.q.U p & . . h r.V.V.V.V.V.8.8 @ K V.V.V.V.V.V.",
"V.V.V.V.V.V.V.V.V.4 . T r.V.V.V.V.V.V.V.V.V.V.V.V.V.V.V.V.V.V.V.V.V.V.V.V.V.V.;.L 0 . . X . , _ r.V.V.V.V.V.a.K . t V.V.V.V.V.V.",
"V.V.V.V.V.V.V.V.~ . q r.V.V.V.V.V.V.V.V.V.V.V.V.V.V.V.V.V.V.V.V.V.V.V.V.8.1.G 3 X . X X X . M q.V.V.V.V.V.V.V.r.4 - E V.V.V.V.V.",
"V.V.V.V.V.V.V.r.h . F V.V.V.V.V.V.V.V.V.V.V.V.V.V.V.V.V.V.V.V.V.V.V.r.X.M , X X X X X X X < *.V.V.V.V.V.V.V.V.8.b . l r.V.V.V.V.",
"V.V.V.V.V.V.V.X., - | V.V.V.V.V.V.V.V.V.V.V.V.V.V.V.V.V.V.V.V.V.8.E f : . X O X X . X X + J V.V.V.V.V.V.V.V.V.V.! ; 8 V.V.V.V.V.",
"V.V.V.V.V.V.V.E X t q.V.V.V.V.V.V.V.V.V.V.V.V.V.V.V.V.V.V.V.q.T f - . . . X X X X X X X 7 *.V.V.V.V.V.V.V.V.V.V.8.q & $.V.V.V.V.",
"V.V.V.V.V.V.V.H = Z V.V.V.V.V.V.V.V.V.V.V.V.V.V.V.V.V.V.8.K r . . . X X X X X X X X X X I V.V.V.V.V.V.V.V.V.V.V.V.z . F r.V.V.V.",
"V.V.V.V.r.V.V.V. .>.V.r.V.V.V.V.V.V.V.V.V.V.V.V.V.r.8.J 9 X X . X X X X X X X X X . X t V.V.V.V.V.V.V.V.V.V.V.V.V.F . h V.V.V.V.",
"V.V.V.J q ;.V.k N V.1.8 I V.V.V.V.V.V.V.V.V.V.V.X.V , X . X X X X X X X X X X X . X - T V.V.V.V.V.V.V.V.V.V.V.V.V.R % r V.V.V.V.",
"V.V.V.! X ! 1.- 6 V.P @ ! V.V.V.V.V.V.V.V.r...l , . X X . X X X X X X X X X X X X . f V.V.V.V.V.V.V.V.V.V.V.V.V.V.( ; 8 r.V.V.V.",
"V.V.V.q.& F U X & X.l 9 ;.V.V.V.V.V.V.r.E f - . X X X X X X X X . X X X X X X X . , ! V.V.V.V.V.V.V.V.V.V.V.V.V.V...1 3 q.V.V.V.",
"V.V.V.V.9 j x 9 , P q j V.V.V.V.V.V.V.R   . X . . X X X . X X X X X X X X X X X . M a.V.V.V.V.V.V.V.V.V.V.V.V.V.V.o.4 < q.V.V.V.",
"V.V.V.V.x 9 t x s g , F V.V.V.V.V.V.V.R O X X . = - - - - - - - = = = = - = - & . C a.V.V.V.V.V.V.V.V.V.V.V.V.V.V.X.7 < q.V.V.V.",
"V.V.V.V.T & & ! L # X _ V.V.V.V.V.V.V.r.E t % X , M ..8.V.V.V.V.V.V.r.r.V.V.V.) - < ( V.V.V.V.V.V.V.V.V.V.V.V.V.V. .2 1 q.V.V.V.",
"V.V.V.V. .- , V...X , 8.V.V.V.V.V.V.V.V.r.V.E f + X , h ] V.r.V.V.V.V.V.V.V.V.V.h . k V.V.V.V.V.V.V.V.V.V.V.V.V.V.) ; 7 V.V.V.V.",
"V.V.V.V.q.s l V.V.e x V.r.V.V.V.V.V.V.V.V.V.V.r.( x , . & d T a.V.V.V.V.V.V.V.V.X., ; E V.V.V.V.V.V.V.V.V.V.V.V.V.R @ w V.V.V.V.",
"V.V.V.V.V.V.V.8.] *.V.V.V.V.V.V.V.V.V.V.V.V.V.V.V.V.q.C 4 + . t K X.V.V.V.V.V.V.V.B X y V.V.V.V.V.V.V.V.V.V.V.V.V.F . g V.V.V.V.",
"V.V.V.V.V.V.r.F & S V.V.V.V.V.V.V.V.V.V.V.V.V.V.V.V.V.r.8.H 5 . X 4 L a.V.V.V.V.V.*.9 X T V.V.V.V.V.V.V.V.V.V.V.V.x . F a.V.V.V.",
"V.V.V.V.V.V.V.E + t a.V.V.V.V.V.V.V.V.V.V.V.V.V.V.V.V.V.V.V.d.U t @ . , C X.a.V.V.r.F + 9 -.V.V.V.V.V.V.V.V.V.V.V.w @ X.V.V.V.V.",
"V.V.V.V.V.V.V.X., - ..V.V.V.V.V.V.V.V.V.V.V.V.V.V.V.V.V.V.V.V.r.8.E p X $ , j 1.r.r.$.u + P q.V.V.V.V.V.V.V.V.V._ ; 7 V.V.V.V.V.",
"V.V.V.V.V.V.V.V.g X J V.V.V.V.V.V.V.V.V.V.V.V.V.V.V.V.V.V.V.V.V.V.V.V._ k , . - f ! 8.E + 4 1.V.V.V.V.V.V.V.V.a.M . h V.V.V.V.V.",
"V.V.V.V.V.V.V.V.! . t V.V.V.V.V.V.V.V.V.V.V.V.V.V.V.V.V.V.V.V.V.V.V.V.V.r.*.B < X X y P g . C r.V.V.V.V.V.V.V.r.7 = R V.V.V.V.V.",
"V.V.V.V.V.V.V.V.V.4 . E V.V.V.V.V.V.V.V.V.V.V.V.V.V.V.V.V.V.V.V.V.V.V.V.V.V.r.*.F 3 X X < X 2 ] V.V.V.V.V.V.V.T . t q.V.V.V.V.V.",
"V.V.V.V.V.V.V.V.V.F X p 8.V.V.V.V.V.V.V.V.V.V.V.V.V.V.V.V.V.V.V.V.V.V.V.V.V.V.V.r.V.I r + X X l r.V.V.V.V.V.8.0 X J V.V.V.V.V.V.",
"V.V.V.V.V.V.V.V.V.1.4 & P V.V.V.V.V.V.V.V.V.V.V.V.V.V.V.V.V.V.V.V.V.V.V.V.V.V.V.V.V.V.8.T i = F V.V.V.V.V.r.P o r >.V.V.V.V.V.V.",
"V.V.V.V.V.V.V.V.V.V.P + 9 1.V.V.V.V.V.V.V.V.V.V.V.V.V.V.V.V.V.V.V.V.V.V.V.V.V.V.V.V.V.r.V.V.X.V.V.V.V.V.V.X.< . T V.V.V.V.V.V.V.",
"V.V.V.V.V.V.V.V.V.V.V.i X b r.V.V.V.V.V.V.V.V.V.V.V.V.V.V.V.V.V.V.V.V.V.V.V.V.V.V.V.V.V.V.V.V.V.V.V.V.V.8.k . h d.V.V.V.V.V.V.V.",
"V.V.V.V.V.V.V.V.V.V.V.| 4 X P r.V.V.V.V.V.V.V.V.V.V.V.V.V.V.V.V.V.V.V.V.V.V.V.V.V.V.V.V.V.V.V.V.V.V.V.V.C + < X.V.V.V.V.V.V.V.V.",
"V.V.V.V.V.V.V.V.V.V.V.r.U & & T V.V.V.V.V.V.V.V.V.V.V.V.V.V.V.V.V.V.V.V.V.V.V.V.V.V.V.V.V.V.V.V.V.V.r.F = & ! V.V.V.V.V.V.V.V.V.",
"V.V.V.V.V.V.V.V.V.V.V.V.V.S . ; E V.V.V.V.V.V.V.V.V.V.V.V.V.V.V.V.V.V.V.V.V.V.V.V.V.V.V.V.V.V.V.V.q.U - @ D r.V.V.V.V.V.V.V.V.V.",
"V.V.V.V.V.V.V.V.V.V.V.V.V.d.M % > J V.r.V.V.V.V.V.V.V.V.V.V.V.V.V.V.V.V.V.V.V.V.V.V.V.V.V.V.V.V.V.J - & C V.V.V.V.V.V.V.V.V.V.V.",
"V.V.V.V.V.V.V.V.V.V.V.V.V.V.8.M @ ; C q.V.V.V.V.V.V.V.V.V.V.V.V.V.V.V.V.V.V.V.V.V.V.V.V.V.V.V.*.N = & Z 8.r.V.V.V.V.V.V.V.V.V.V.",
"V.V.V.V.V.V.V.V.V.V.V.V.V.V.V.V.F ; X u ' r.V.V.V.V.V.V.V.V.V.V.V.V.V.V.V.V.V.V.V.V.V.V.V.V.) r $ - U r.V.V.V.V.V.V.V.V.V.V.V.V.",
"V.V.V.V.V.V.V.V.V.V.V.V.V.V.V.V.r._ 5 . * M X.V.V.V.V.V.V.V.V.V.V.V.V.V.V.V.V.V.V.V.V.V.X.x & O 0 ] V.V.V.V.V.V.V.V.V.V.V.V.V.V.",
"V.V.V.V.V.V.V.V.V.V.V.V.V.V.V.V.V.V.$.n @ . 2 M 8.V.V.V.V.V.V.V.V.V.V.V.V.V.V.V.8.V.X.m < O - B ;.V.V.V.V.V.V.V.V.V.V.V.V.V.V.V.",
"V.V.V.V.V.V.V.V.V.V.V.V.V.V.V.V.V.V.V.r.( f - . - i D ) V.r.r.r.V.V.r.r.V.V.a._ C u - . - h ] V.V.V.V.V.V.V.V.V.V.V.V.V.V.V.V.V.",
"V.V.V.V.V.V.V.V.V.V.V.V.V.V.V.V.V.V.V.V.r.8.W j 3 % X > 9 f b C F F F C x p 0 ; X @ 4 l Q V.V.V.V.V.V.V.V.V.V.V.V.V.V.V.V.V.V.V.",
"V.V.V.V.V.V.V.V.V.V.V.V.V.V.V.V.V.V.V.V.V.V.V.V.8.E l 8 @ . . . . . . . . X @ 0 x ! -.V.r.V.V.V.V.V.V.V.V.V.V.V.V.V.V.V.V.V.V.V.",
"V.V.V.V.V.V.V.V.V.V.V.V.V.V.V.V.V.V.V.V.V.V.V.V.V.V.V.r.q.] T J S C A J T ] 9.V.V.V.V.V.V.V.V.V.V.V.V.V.V.V.V.V.V.V.V.V.V.V.V.V.",
"V.V.V.V.V.V.V.V.V.V.V.V.V.V.V.V.V.V.V.V.V.V.V.V.V.V.V.V.V.V.V.V.V.V.V.V.V.V.V.V.V.V.V.V.V.V.V.V.V.V.V.V.V.V.V.V.V.V.V.V.V.V.V.V.",
"V.V.V.V.V.V.V.V.V.V.V.V.V.V.V.V.V.V.V.V.V.V.V.V.V.V.V.V.V.V.V.V.V.V.V.V.V.V.V.V.V.V.V.V.V.V.V.V.V.V.V.V.V.V.V.V.V.V.V.V.V.V.V.V.",
"V.V.V.V.V.V.V.V.V.V.V.V.V.V.V.V.V.V.V.V.V.V.V.V.V.V.V.V.V.V.V.V.V.V.V.V.V.V.V.V.V.V.V.V.V.V.V.V.V.V.V.V.V.V.V.V.V.V.V.V.V.V.V.V.",
"V.V.V.V.V.V.V.V.V.V.V.V.V.V.V.V.V.V.V.V.V.V.V.V.V.V.V.V.V.V.V.V.V.V.V.V.V.V.V.V.V.V.V.V.V.V.V.V.V.V.V.V.V.V.V.V.V.V.V.V.V.V.V.V.",
"V.V.V.V.V.V.V.V.V.V.V.V.V.V.V.V.V.V.V.V.V.V.V.V.V.V.V.V.V.V.V.V.V.V.V.V.V.V.V.V.V.V.V.V.V.V.V.V.V.V.V.V.V.V.V.V.V.V.V.V.V.V.V.V."
};
