/* XPM */
static char *result[] = {
/* columns rows colors chars-per-pixel */
"64 64 177 2 ",
"   c #020202",
".  c #040D06",
"X  c #080804",
"o  c #0D1207",
"O  c #12150B",
"+  c #171B11",
"@  c #1B2314",
"#  c #0C3317",
"$  c #0D3619",
"%  c #0F3317",
"&  c #242D14",
"*  c #333B1A",
"=  c #1B282D",
"-  c #31461B",
";  c #125225",
":  c #114C22",
">  c #3E4720",
",  c #1A7836",
"<  c #1C7E39",
"1  c #414822",
"2  c #485829",
"3  c #505929",
"4  c #5A6C2F",
"5  c #55682F",
"6  c #5B7B2C",
"7  c #5A6B30",
"8  c #48602D",
"9  c #344D58",
"0  c #244450",
"q  c #34697E",
"w  c #4F7D52",
"e  c #4A735B",
"r  c #436669",
"t  c #496F7F",
"y  c #1D893D",
"u  c #238C3D",
"i  c #298E3E",
"p  c #2D913E",
"a  c #33943E",
"s  c #3A963E",
"d  c #3E983E",
"f  c #3A8B3A",
"g  c #459B3E",
"h  c #4C9E3F",
"j  c #4D923A",
"k  c #77843D",
"l  c #79863D",
"z  c #7B893F",
"x  c #6E8438",
"c  c #5CA63F",
"v  c #62A83F",
"b  c #68AB3F",
"n  c #7BA93B",
"m  c #78A43A",
"M  c #7AB33F",
"N  c #4F9F40",
"B  c #5C944B",
"V  c #7C8940",
"C  c #699852",
"Z  c #5BA640",
"A  c #6DAD40",
"S  c #63A940",
"D  c #73A44F",
"F  c #7AA84F",
"G  c #76B140",
"H  c #7CB540",
"J  c #7EAC59",
"K  c #79A853",
"L  c #6CA158",
"P  c #6AA36B",
"I  c #79AB64",
"U  c #71AA78",
"Y  c #80A63E",
"T  c #8EA94B",
"R  c #91AE4E",
"E  c #82B741",
"W  c #87B940",
"Q  c #8DBB44",
"!  c #8EB646",
"~  c #92B747",
"^  c #91BD47",
"/  c #96BF49",
"(  c #98B74C",
")  c #82AD52",
"_  c #88B35A",
"`  c #88B155",
"'  c #90B653",
"]  c #96BA56",
"[  c #A6B855",
"{  c #82B062",
"}  c #9CC14D",
"|  c #9FC055",
" . c #A2C255",
".. c #ABC556",
"X. c #AFC258",
"o. c #AEC857",
"O. c #B6CB5C",
"+. c #39758D",
"@. c #527C8D",
"#. c #4F7B8D",
"$. c #41859F",
"%. c #5F928B",
"&. c #619491",
"*. c #6FAD8D",
"=. c #74B398",
"-. c #458BA7",
";. c #478FAB",
":. c #5697B1",
">. c #6293A8",
",. c #6A9FB6",
"<. c #77B7A6",
"1. c #6DA4BB",
"2. c #7CBCB0",
"3. c #7EC1BF",
"4. c #2DBDEF",
"5. c #32BEEF",
"6. c #39BFEF",
"7. c #53A9CC",
"8. c #5FB8DC",
"9. c #70BDDD",
"0. c #3EC0EF",
"q. c #37C0EF",
"w. c #3DC1F0",
"e. c #37C0F0",
"r. c #7FC2C4",
"t. c #43C1EF",
"y. c #4CC3EF",
"u. c #54C4EE",
"i. c #5DC6EE",
"p. c #45C4F1",
"a. c #4BC6F1",
"s. c #53C9F2",
"d. c #5ACBF2",
"f. c #60C6EE",
"g. c #6DCAEF",
"h. c #65C8EF",
"j. c #74CCEF",
"k. c #7CCEEF",
"l. c #62CDF3",
"z. c #6CCFF3",
"x. c #7ECFF0",
"c. c #74CDF0",
"v. c #69D0F4",
"b. c #7CD3F3",
"n. c #74D3F4",
"m. c #80C4CA",
"M. c #82C4DA",
"N. c #88CEE5",
"B. c #87CCE6",
"V. c #8AD1ED",
"C. c #81CFF0",
"Z. c #84D1F0",
"A. c #8BD2F0",
"S. c #8FDCF7",
"D. c #9CDBF3",
"F. c #95D8F3",
"G. c #A9DDF3",
"H. c #A3DCF3",
"J. c #9EE1F8",
"K. c #AAE3F8",
"L. c #B2E0F3",
"P. c #B1E6F9",
"I. c #BDEAF9",
"U. c #BAE5F6",
"Y. c #C0E4F4",
"T. c #CDEAF7",
"R. c #C8EDFB",
"E. c #D5EDF8",
"W. c #DAEFF9",
"Q. c #D2ECF7",
"!. c #D4F2FC",
"~. c #DBF2FA",
"^. c #E5F5FC",
"/. c #E9F6FB",
"(. c #EBF8FD",
"). c #F4FBFE",
"_. c #FFFFFF",
/* pixels */
"4.4.4.4.4.4.4.4.4.4.4.4.4.4.4.4.4.4.4.4.4.4.4.4.4.4.4.4.4.4.4.4.4.4.4.4.4.4.4.4.4.y.R._._._._._._.).v.l.l.l.l.a.4.4.4.4.4.4.4.4.",
"4.4.4.4.4.4.4.4.4.4.4.4.4.4.4.4.4.4.4.4.4.4.4.4.4.4.4.4.4.4.4.4.4.4.4.4.4.4.4.4.q.~._._._._._._._._.^._._._._.(.n.4.4.4.4.4.4.4.",
"4.4.4.4.4.4.4.4.4.4.4.4.4.4.4.4.4.4.4.4.4.4.4.4.4.4.4.4.4.4.4.4.4.4.4.4.5.d.d.d.z.)._._._._._._._._._._._._._._.).b.e.4.4.4.4.4.",
"4.4.4.4.4.4.4.4.4.4.4.4.4.4.4.4.4.4.4.4.4.4.4.4.4.4.4.4.4.4.4.4.4.4.5.b.!._._._._._._._._._._._._._._._._._._._._.).4.4.4.4.4.4.",
"4.4.4.4.4.4.4.4.4.4.4.4.4.4.4.4.4.4.4.4.4.4.4.4.4.4.4.4.4.4.4.4.4.4.n._._._._._._._._._._._._._._._._._._._._._._._.S.4.4.4.4.4.",
"4.4.4.4.4.4.4.4.4.4.4.4.4.4.4.4.4.4.4.4.4.4.4.4.4.4.4.4.4.4.4.4.4.5.I._._._._._._._._._._._._._._._._._._._._._._._.I.z.e.q.4.4.",
"4.4.4.4.4.4.4.4.4.4.4.4.4.4.4.4.4.4.4.4.4.4.4.4.4.4.4.4.4.4.4.4.4.y.E._._._._._._._._._._._._._._._._._.)._._._._._._._.!.p.4.4.",
"4.4.4.4.4.4.4.4.4.4.4.4.4.4.4.4.4.4.4.4.4.4.4.4.4.4.4.4.4.4.4.4.4.Z.T.)._._._._._._._._._._._._._._._.(.T./._._._.).^._._.!.w.4.",
"4.4.4.5.a.d.d.p.4.4.4.4.4.4.4.4.4.4.4.4.4.4.4.4.4.4.4.4.4.4.4.4.4.Z.Y.Q._._._._.W.W._._._._._._._._.(.T.Y.Y.T.T.T.Y.W._._._.D.4.",
"4.4.s.P.(.).).!.d.5.4.4.4.4.4.4.4.4.4.4.4.4.4.4.4.4.4.4.4.4.4.4.4.v.U.Y.T.T.T.T.U.Y.E.(._._._._.).^.T.Y.Y.Y.Y.Y.Y.Y.W._._._.P.4.",
"4.d.(._._._._._._.P.w.a.a.p.a.e.4.4.4.4.4.4.e.5.5.5.4.4.4.4.4.5.5.t.U.Y.Y.Y.Y.Y.Y.Y.Y.Y.T.T.T.T.T.U.Y.Y.Y.Y.Y.Y.U.Y.E._._._.P.e.",
"v.)._._._._._._._.).~._._._._.K.e.4.4.4.4.4.y.i.i.i.5.4.4.4.y.i.i.f.F.Y.Y.Y.Y.Y.Y.Y.Y.Y.Y.Y.Y.Y.Y.Y.Y.Y.Y.Y.Y.Y.Y.Y.Y.)._._.J.u.",
"J._._._._._._._._._._._._._._._.I.e.4.4.4.4.u.f.i.i.5.4.4.4.y.f.i.f.g.D.Y.Y.Y.Y.Y.Y.Y.Y.Y.Y.U.Y.Y.Y.Y.Y.Y.Y.Y.Y.U.Y.Y.Y.^.K.t.f.",
"_._._._._._._._._._._._._._._._._.L.u.u.u.i.i.f.i.i.u.u.y.u.i.i.f.f.i.y.u.F.D.F.D.H.G.G.G.H.D.D.D.G.G.G.H.F.F.D.D.H.D.D.l.p.t.f.",
"_._._._._._._._._._._._._._._._._.~.g.f.i.f.f.f.f.f.i.f.f.f.f.f.f.f.f.t.4.4.4.4.4.0.f.f.f.u.5.4.5.f.i.f.0.4.4.4.4.u.f.f.f.f.f.f.",
"_._._._._._._._._._._._._._._._._._.F.x.f.f.f.f.f.f.f.f.f.f.f.f.f.f.f.t.q.0.6.6.6.t.f.f.f.f.u.u.u.f.f.f.0.4.4.4.4.y.f.f.f.f.f.f.",
"_._._._._._._._._._._._._._._._._._._.(.F.f.f.f.f.f.f.f.f.f.f.f.f.f.f.i.f.i.f.i.i.f.f.f.f.f.f.f.f.f.f.f.0.4.4.4.4.u.f.f.f.f.f.f.",
"_._._._._._._._._._._.Q.Q._._._._.^.)._._.D.f.f.f.f.f.f.f.f.f.f.f.f.f.f.f.f.f.f.f.f.f.i.f.f.f.f.f.f.f.f.y.0.0.t.0.u.f.f.f.f.f.f.",
"W._._._._._._._._._./.Y.Y.T.W.W.Q.Y._._._.^.j.i.f.f.f.f.i.f.f.f.f.f.f.f.f.f.f.f.f.f.f.f.f.f.f.f.f.f.f.f.f.f.f.f.f.f.f.f.f.f.f.f.",
"Y.Y.)._._._._._._.W.Y.Y.Y.Y.Y.Y.Y.Y._._._._.k.f.f.f.f.f.f.f.f.f.f.f.f.f.f.f.f.f.f.f.f.f.f.f.f.f.f.f.f.f.f.f.f.f.f.f.f.f.f.f.f.f.",
"Y.Y.Y.T.Q.Q.Q.E.Y.Y.Y.Y.Y.Y.Y.Y.Y.Y.)._._._.x.i.f.f.f.f.f.f.f.f.f.f.f.f.f.f.f.f.f.f.f.f.f.f.f.f.f.f.f.f.f.f.f.f.f.f.f.f.f.f.f.f.",
"U.Y.Y.Y.Y.Y.Y.Y.Y.Y.Y.Y.Y.Y.Y.Y.Y.Y.T._._.).c.f.f.f.f.f.f.f.f.f.f.f.f.f.f.f.f.f.f.f.f.f.f.f.f.f.f.f.f.f.f.f.f.f.f.f.f.f.f.f.i.f.",
"Y.Y.Y.Y.Y.U.Y.Y.Y.Y.Y.Y.Y.Y.Y.U.Y.Y.Y.E.).A.f.f.f.f.i.f.f.f.f.f.f.f.f.f.f.f.f.f.f.f.f.f.f.f.i.i.f.f.f.f.f.f.f.f.f.f.f.f.f.f.f.f.",
"L.L.L.L.L.L.L.L.L.L.L.L.L.L.L.L.L.L.L.L.A.h.f.f.f.f.f.f.f.f.f.f.f.7.$.$.$.$.$.$.$.$.$.$.$.$.$.$.$.$.$.$.$.$.$.$.$.$.$.$.7.f.f.f.",
"f.f.f.f.f.f.f.f.f.f.f.f.f.f.f.f.f.f.f.f.f.f.f.f.f.f.f.f.f.f.f.f.f.+.  . . . . . . . . . . . . . o o o o o o o o X O o X q f.f.f.",
"f.f.f.f.f.f.i.f.f.f.f.f.f.f.f.f.f.f.f.f.f.f.f.f.f.f.f.f.f.f.f.f.f.+.# < < < < < y y , , , y y y f n n M n n n M n ( [ 2 q h.f.f.",
"f.f.f.f.f.f.f.f.f.f.f.f.f.f.f.f.f.f.f.i.f.f.f.f.i.f.f.f.f.f.f.f.f.+.# y y y y y y y y y y h c v b Y W W Y Q W W Y o.O.3 q f.f.f.",
"f.f.f.f.f.f.f.f.f.f.f.f.f.f.f.f.f.f.f.f.f.f.f.f.f.f.f.f.f.f.f.i.f.+.# y y y y y y y u p a b Y W W W W W W W W W Q o.O.3 q f.f.f.",
"f.f.f.f.f.f.f.f.f.f.f.i.f.f.f.f.f.f.f.f.f.f.f.f.f.f.f.f.f.f.f.f.i.+.$ y y y y y y y d W W W W W W W W W W W W W Y ..O.3 q f.f.f.",
"f.f.f.f.f.f.f.f.f.f.f.f.f.f.f.f.f.f.f.f.f.f.f.f.f.f.f.f.f.f.f.f.f.+.$ y y y y y d M M W W W W W W W W W W W W W Q ..O.3 q f.f.f.",
"f.f.f.f.f.f.f.f.f.f.f.f.f.f.f.f.f.f.f.f.f.f.f.i.f.f.f.f.f.f.f.f.f.+.$ y y y a g v W W W W W W W W W W W W W W W W o.O.3 q f.f.f.",
"f.f.f.f.f.f.f.f.f.f.f.f.f.f.f.f.f.f.f.f.f.f.f.f.f.f.f.f.f.f.f.f.f.+.$ y y i b Y W W W W W W W W W W W W W W W W W o.O.3 q f.f.f.",
"f.f.f.f.f.f.f.f.f.f.f.f.f.f.f.f.f.f.f.f.f.f.f.f.f.f.f.f.f.f.f.f.f.+.$ y p G W W W W W W W W W W W W W W W W W W W ..O.3 q f.f.f.",
"f.f.f.f.f.f.f.f.i.f.f.f.f.f.f.f.f.f.f.i.f.f.f.f.f.f.f.f.f.f.f.f.f.+.# p S W W W W W W W W W W H W W W W W W W W W ..O.3 q f.f.f.",
"f.f.f.h.f.f.f.f.f.f.f.h.f.f.f.f.f.f.f.f.f.f.f.h.f.h.f.f.f.f.f.h.f.+.# N W W W W W W Y } } } } } W } W } Q ^ ^ ^ ^ o.O.3 q f.f.h.",
"f.f.j.Z.Z.f.f.f.f.c.Z.V.C.f.f.f.f.f.f.f.f.f.x.Z.Z.Z.h.i.f.f.k.Z.V.%.- H W W W W W W } O.o.o...o.O.O.O.o.O.O.O.O.O.O.O.3 q f.z.Z.",
"f.f.c.A.Z.f.f.f.f.j.A.A.Z.i.i.f.f.f.f.f.f.f.C.A.V.A.h.f.f.f.x.A.Z.#.> Y W W W W Y } } O.O.O.O.O.O.O.O.O.O.O.O.O.O.O.O.3 q f.g.V.",
"V.A.A.A.A.f.f.f.f.k.V.A.V.i.i.f.j.Z.Z.Z.Z.Z.A.A.A.A.C.k.k.x.Z.A.V.%.& 6 6 6 6 6 6 6 x l k k k k z x l l k k k k k k k * q h.j.V.",
"A.A.A.A.V.k.k.k.b.Z.A.A.C.i.f.i.k.A.V.A.A.A.A.A.A.A.V.A.A.A.A.A.V.@.                                                    #.A.A.A.",
">.>.>.>.>.>.>.>.>.>.>.>.>.-.-.-.;.>.>.>.>.>.>.>.>.,.A.A.A.A.A.A.A.B.9.9.8.0 : < < < < < < < < < y y < j n n Y O ;.9.M.9.B.A.A.A.",
"                . .         .       . .   . .     = A.A.A.A.A.A.A.A.A.A.A.9 ; y y y y y y y y y y y c M W W Y + :.x.A.A.A.A.A.A.",
"y y y y y y y y y y y y y i H W } Y W W Y W } O.l = A.A.A.A.A.A.A.A.A.A.A.9 ; y y y y y y y y y y u M W W W } + :.b.A.A.A.A.A.A.",
"y y y y y y y y y y s c c b W W Y W W W W W } O.l = A.A.V.A.A.A.A.A.A.A.A.9 ; y y y y y y y y y y c W W W W } @ 7.V.V.A.A.A.A.A.",
"y y y y y y y y p p c W Y W W W Q W W W W Y } O.z = A.A.A.A.A.A.A.A.A.A.A.9 ; y y y y y y y y y d M W W W W Y + 1.D.V.A.A.A.A.A.",
"y y y y y y y y W W W W W W W W W W W W W W } O.l = V.A.A.A.A.A.A.A.A.A.A.9 ; y y y y y y y y i c W W W Q W } + 1.A.A.A.A.A.A.A.",
"y y y y y p A A W W W W W W W W W W W W W W } O.l = A.A.A.A.A.A.A.A.A.A.A.9 ; y y y y y y y y s Y W W W Y Q ..@ 1.A.A.A.A.A.A.A.",
"y y y i d N W W W W W W W W W W W W W W W W } O.l = A.A.A.A.A.A.A.A.A.A.A.9 ; y y y y y y y u H W W W W ^ ^ [ + 1.A.A.A.A.A.A.A.",
"y y y g W W W W W W W W W W W W W W W W W } } O.z = A.A.A.A.A.A.A.A.A.A.A.9 ; y y y y y y y d E W W W W Y / X.+ 1.A.A.A.A.A.A.A.",
"y y A E W W W W W W W W W W W W W W W W W W } O.z = V.V.A.A.A.A.A.A.A.A.V.9 ; y y y y y y u b W W W W W W } o.+ 1.V.A.A.A.A.A.A.",
"y Z E W W W W W W W W W W W W W W Y W W W W } O.z = A.V.A.A.A.A.A.A.A.A.V.9 ; y y y y y y p H W W W W W W } o.+ 1.V.A.A.A.A.A.A.",
"i W W W W W W W ^ Q ^ ^ Q ^ Q ^ ^ ^ ^ ^ } Q } O.z = A.A.A.A.A.A.A.A.A.A.V.9 ; y y y y y i b Y Q W W W W Q ..X.+ 1.A.A.A.A.A.A.A.",
"E W W W W W W W O.O.O.O.O.O.O.O.O.O.O.O.O.O.O.O.l = A.A.A.A.A.A.A.A.A.A.V.9 ; y y y y y a W W W W W W W Y } X.+ 1.A.A.A.A.A.A.A.",
"W W W W W W W / O.O.O.O.O.O.O.O.O.O.O.O.O.O.O.O.l @ U A.A.A.A.A.A.A.A.A.S.9 ; y y y y y g W W W W W W W W } ..+ 1.A.A.A.A.V.m.I ",
"6 6 6 6 6 6 6 x V V V V V V V V z l z z V l V l 3 @ ` =.<.r.A.A.A.A.A.A.V.9 ; y y y y y c W W W W W W W ^ O...+ 1.A.A.A.m.2.=.] ",
"X       X X   X X   X     X X     X X X     X X X & | ' ' { <.V.A.A.S.V.V.9 ; y y y y i M W W W W W W W ^ O.o.+ 1.A.V.<.I ] J  .",
"T C r % , , , , , , , , , , , , f m m m * 8 T ! T R  . .| | I V.A.V.V.V.Z.9 ; y y y y s W W W W W W W W Q o.o.@ 1.A.r._  . .|  .",
" .' r # y y y y y y y y y y y s b W W W > 5 | |  . . . . . ._ M.A.A.A.A.A.9 ; y y y y b W W W W W W W W Y o.X.+ 1.A.U  . . . .[ ",
" .~ r # y y y y y y y y y y y Z W W W } > 8 F  . . . . . ...{ r.V.A.A.A.A.9 ; y y y s M W W W W W W W W } O.X.+ 1.N.L  . . . .) ",
" .] 2 $ y y y y y y y y y y g W W W W W > 4 |  . . .| |  . .] J 3.A.A.A.A.9 ; y y y g W W W W W W W Q W } O.X.+ 1.*.J  . . . . .",
" . .4 # y y y y y y y y y u M W W W W } > 4  . .| ` D D K  . . .L N.A.A.A.9 ; y y u d W W W W W W W W W } O.X.+ %.B ) ] |  . . .",
" . .7 $ y y y y y y y y u g W W W W W } 1 7  . .|  . . . . . . .K N.A.A.A.9 ; y y u b W W W W W W W W W ..O.X.+ B B B D F |  . .",
" . .4 # y y y y y y y y i H W W W W W  .1 7  . . . . . . . . .| J N.A.A.A.9 ; y y a M W W W W W W W W W ..O.X.+ e B B B )  . . .",
" . .5 # y y y y y y y y v W W W W W } ..1 7  . . . . . . . .| _ r.Z.A.A.A.9 ; y u h W W W W W W W W W Q o.O.[ + &.C B B D |  . .",
" . .5 # y y y y y y y i G W W W W W M o.1 7  .|  . . . . .| | J r.V.A.A.A.9 ; y u b W W W W W W W W W Q O.O.X.+ 7.P B B B F | | "
};
