/* XPM */
static char *result[] = {
/* columns rows colors chars-per-pixel */
"64 64 7 1 ",
"  c black",
". c #AC3231",
"X c #45283C",
"o c #8F563B",
"O c #663A31",
"+ c #FBF235",
"@ c #222035",
/* pixels */
"                          ..........                            ",
"                          ..........                            ",
"                      ..................                        ",
"                      ..................                        ",
"                  ..........................                    ",
"                  ..........................                    ",
"                ..............................                  ",
"                ..............................                  ",
"              ................................                  ",
"              ................................                  ",
"            ......................XXXXooooXX..                  ",
"            ......................XXXXooooXX..                  ",
"            ..................XXooXXXXooooooXX                  ",
"            ..................XXooXXXXooooooXX                  ",
"          ..................XXXXOOOOXXooooooOOXX                ",
"          ..................XXXXOOOOXXooooooOOXX                ",
"          ..........ooooooXXXXooXXooOOooooOOooXX                ",
"          ..........ooooooXXXXooXXooOOooooOOooXX                ",
"          ............ooooXXXXoo++++@@oooo++@@                  ",
"          ............ooooXXXXoo++++@@oooo++@@                  ",
"          ............XXooXXXXoo++++@@oooo++@@                  ",
"          ............XXooXXXXoo++++@@oooo++@@                  ",
"          ..........  XXXXXXXXoooooooooooooooo                  ",
"          ..........  XXXXXXXXoooooooooooooooo                  ",
"          ........    XXXXXXXXoooooooooooooooo    XXXX          ",
"          ........    XXXXXXXXoooooooooooooooo    XXXX          ",
"            ....      ooooXXXXOOooooooOOXXXXXXXXXXXXXX          ",
"            ....      ooooXXXXOOooooooOOXXXXXXXXXXXXXX          ",
"            ..      ooooooXXXXooOOOOOOOOoo                      ",
"            ..      ooooooXXXXooOOOOOOOOoo                      ",
"                  ooooooooXXoooooooooooooooo                    ",
"                  ooooooooXXoooooooooooooooo                    ",
"                ooooooooooooOOoooooooooooooo                    ",
"                ooooooooooooOOoooooooooooooo                    ",
"              ooooooooooOOOOOOooooooooooOOoooo                  ",
"              ooooooooooOOOOOOooooooooooOOoooo                  ",
"              ooooooooOOOOOOOOooooooooooOOOOoooo                ",
"              ooooooooOOOOOOOOooooooooooOOOOoooo                ",
"            oooooooooo  OOOOOOoooooooooo  OOOOoooooo            ",
"            oooooooooo  OOOOOOoooooooooo  OOOOoooooo            ",
"            oooooooooo  OOOOOOoooooooooo  OOOOoooooooo          ",
"            oooooooooo  OOOOOOoooooooooo  OOOOoooooooo          ",
"            oooooooooo  ................    OOOOoooooo          ",
"            oooooooooo  ................    OOOOoooooo          ",
"            ooooooOOoo  ................      OOoooooo          ",
"            ooooooOOoo  ................      OOoooooo          ",
"              ooooOOOO    ..............oo      oooo            ",
"              ooooOOOO    ..............oo      oooo            ",
"                oooooo    ..........oooooo                      ",
"                oooooo    ..........oooooo                      ",
"                              OOOOoooooooo                      ",
"                              OOOOoooooooo                      ",
"                            OOOOOOoooooooo                      ",
"                            OOOOOOoooooooo                      ",
"                          OOOOOOoooooooo                        ",
"                          OOOOOOoooooooo                        ",
"                        OOOOOOoooooooooo                        ",
"                        OOOOOOoooooooooo                        ",
"                        OOOOOOoooooooooooooo                    ",
"                        OOOOOOoooooooooooooo                    ",
"                        OOOOOOoooooooooooooo                    ",
"                        OOOOOOoooooooooooooo                    ",
"                                                                ",
"                                                                "
};
